{"glyphs":{"0":{"ha":1215,"x_min":53,"x_max":1164,"o":"m 608 -25 q 383 18 485 -25 q 208 138 281 60 q 93 319 134 215 q 53 547 53 424 q 121 844 53 716 q 314 1042 189 971 q 608 1114 439 1114 q 903 1042 778 1114 q 1096 844 1027 971 q 1164 547 1164 716 q 1123 319 1164 424 q 1009 138 1083 215 q 833 18 935 60 q 608 -25 732 -25 m 608 785 q 539 758 564 785 q 504 691 515 732 q 490 606 493 650 q 488 526 488 562 q 491 460 488 497 q 506 389 494 423 q 543 331 518 354 q 608 309 567 309 q 686 344 661 309 q 721 430 712 379 q 729 526 729 481 q 726 606 729 562 q 713 691 724 650 q 677 758 702 732 q 608 785 652 785 z "},"1":{"ha":783,"x_min":14,"x_max":701,"o":"m 254 583 l 14 496 l 14 825 l 576 1083 l 701 1083 l 701 0 l 254 0 l 254 583 z "},"2":{"ha":1171,"x_min":46,"x_max":1103,"o":"m 129 196 l 542 542 q 605 616 584 578 q 625 688 625 654 q 599 753 625 728 q 526 779 573 779 q 376 731 463 779 q 205 595 289 684 l 46 823 q 198 982 103 918 q 408 1079 294 1046 q 635 1112 522 1112 q 809 1090 726 1112 q 957 1025 892 1069 q 1059 914 1021 981 q 1096 758 1096 848 q 1064 620 1096 682 q 980 506 1031 557 q 870 411 929 455 q 758 325 811 366 l 1103 325 l 1103 0 l 129 0 l 129 196 z "},"3":{"ha":1257,"x_min":54,"x_max":1194,"o":"m 1194 355 q 1161 198 1194 263 q 1071 89 1128 132 q 942 21 1014 45 q 790 -15 869 -4 q 635 -25 711 -25 q 454 -12 555 -25 q 248 38 353 1 q 54 144 144 75 l 215 407 q 392 324 292 356 q 595 292 492 292 q 697 318 663 292 q 730 385 730 345 q 706 451 730 426 q 644 490 682 477 q 565 508 606 503 q 490 513 524 513 q 455 512 471 513 q 432 510 440 511 l 350 653 q 370 671 350 655 q 421 708 391 686 q 482 751 451 730 q 534 787 513 773 l 125 787 l 125 1083 l 1171 1083 l 1171 961 l 822 696 q 1010 647 926 684 q 1144 539 1095 610 q 1194 355 1194 469 z "},"4":{"ha":1270,"x_min":32,"x_max":1206,"o":"m 32 465 l 458 1084 l 1109 1084 l 1109 476 l 1206 476 l 1206 146 l 1109 146 l 1109 0 l 652 0 l 652 146 l 32 146 l 32 465 m 454 465 l 652 465 l 652 772 l 454 465 z "},"5":{"ha":1221,"x_min":46,"x_max":1158,"o":"m 207 379 q 371 316 277 340 q 558 292 464 292 q 661 318 627 292 q 694 385 694 345 q 676 441 694 421 q 630 471 658 462 q 574 481 603 479 q 526 484 546 484 q 425 476 473 484 q 335 460 376 469 l 325 458 l 127 541 l 241 1084 l 1140 1084 l 1083 811 l 550 811 l 530 701 q 591 708 560 705 q 656 710 623 710 q 831 692 743 710 q 994 634 920 675 q 1113 527 1068 594 q 1158 361 1158 460 q 1125 202 1158 269 q 1035 92 1092 136 q 905 22 977 48 q 754 -14 833 -3 q 599 -25 675 -25 q 428 -14 524 -25 q 231 27 331 -3 q 46 117 132 58 l 207 379 z "},"6":{"ha":1211,"x_min":50,"x_max":1160,"o":"m 654 1114 q 799 1095 724 1114 q 942 1041 874 1077 q 1057 952 1010 1005 q 1117 829 1104 899 l 777 736 q 720 798 755 777 q 646 819 684 819 q 543 784 588 819 q 497 672 497 749 q 497 659 497 666 q 498 643 498 652 q 579 659 534 652 q 668 665 623 665 q 845 651 758 665 q 1004 602 932 637 q 1117 504 1075 566 q 1160 343 1160 441 q 1113 161 1160 233 q 989 49 1065 90 q 824 -8 913 8 q 650 -25 734 -25 q 427 9 534 -25 q 234 110 319 43 q 100 272 149 176 q 50 493 50 369 q 96 758 50 643 q 223 953 141 873 q 415 1073 305 1032 q 654 1114 526 1114 m 700 212 q 749 226 726 212 q 772 269 772 239 q 757 346 772 299 q 703 441 741 392 l 519 441 q 545 323 519 374 q 611 242 570 271 q 700 212 652 212 z "},"7":{"ha":1193,"x_min":66,"x_max":1171,"o":"m 650 751 l 650 781 q 589 780 631 781 q 493 777 547 779 q 384 774 439 776 q 281 772 328 773 q 207 771 234 771 q 176 773 199 771 q 129 779 154 776 q 85 786 103 783 q 66 793 66 790 l 66 1084 l 1171 1084 l 1171 1002 l 681 0 l 114 0 l 650 751 z "},"8":{"ha":1200,"x_min":58,"x_max":1141,"o":"m 600 -25 q 462 -18 536 -25 q 316 7 388 -12 q 186 61 245 26 q 93 154 128 97 q 58 296 58 212 q 109 472 58 407 q 264 585 159 538 q 166 646 203 616 q 114 718 130 676 q 98 827 98 760 q 133 952 98 901 q 224 1035 168 1003 q 348 1084 281 1067 q 481 1107 415 1101 q 600 1114 548 1114 q 719 1107 652 1114 q 852 1084 785 1101 q 976 1035 919 1067 q 1067 952 1032 1003 q 1101 827 1101 901 q 1085 718 1101 760 q 1034 646 1069 676 q 936 585 998 616 q 1091 472 1041 538 q 1141 296 1141 407 q 1106 154 1141 212 q 1013 61 1072 97 q 883 7 955 26 q 738 -18 812 -12 q 600 -25 665 -25 m 600 664 q 638 676 617 664 q 676 710 660 688 q 692 758 692 731 q 662 823 692 810 q 600 836 632 836 q 538 823 568 836 q 509 758 509 810 q 525 710 509 731 q 562 676 541 688 q 600 664 584 664 m 600 489 q 526 459 559 489 q 493 379 493 429 q 509 321 493 340 q 549 297 525 303 q 600 292 574 292 q 651 297 627 292 q 691 321 675 303 q 707 379 707 340 q 674 459 707 429 q 600 489 642 489 z "},"9":{"ha":1210,"x_min":50,"x_max":1160,"o":"m 555 -25 q 411 -7 486 -25 q 268 47 335 12 q 153 137 200 83 q 93 260 105 190 l 433 353 q 490 291 454 312 q 564 269 526 269 q 667 305 622 269 q 713 416 713 340 q 713 428 713 423 q 711 440 713 432 q 631 428 676 431 q 542 424 587 424 q 364 438 452 424 q 206 488 277 452 q 93 586 135 523 q 50 746 50 648 q 83 898 50 834 q 171 1003 115 961 q 296 1069 227 1044 q 441 1103 366 1093 q 587 1114 517 1114 q 800 1079 698 1114 q 984 979 903 1045 q 1112 817 1065 913 q 1160 596 1160 720 q 1114 331 1160 447 q 987 136 1069 215 q 795 16 905 57 q 555 -25 685 -25 m 524 647 l 707 647 q 682 766 707 715 q 615 847 656 818 q 526 876 574 876 q 477 863 500 876 q 454 819 454 850 q 470 744 454 790 q 524 647 485 697 z "},"A":{"ha":1443,"x_min":22,"x_max":1423,"o":"m 22 0 l 561 1028 q 622 1086 581 1065 q 708 1107 663 1107 q 786 1088 748 1107 q 846 1032 825 1070 l 1423 0 l 873 0 l 831 107 l 538 107 l 501 0 l 22 0 m 571 322 l 790 322 l 686 615 l 571 322 z "},"Á":{"ha":1443,"x_min":22,"x_max":1423,"o":"m 22 0 l 561 1028 q 622 1086 581 1065 q 708 1107 663 1107 q 786 1088 748 1107 q 846 1032 825 1070 l 1423 0 l 873 0 l 831 107 l 538 107 l 501 0 l 22 0 m 571 322 l 790 322 l 686 615 l 571 322 m 1063 1594 l 771 1230 q 709 1182 733 1182 q 684 1219 684 1182 q 689 1256 684 1237 l 786 1594 l 1063 1594 z "},"Ă":{"ha":1443,"x_min":22,"x_max":1423,"o":"m 22 0 l 561 1028 q 622 1086 581 1065 q 708 1107 663 1107 q 786 1088 748 1107 q 846 1032 825 1070 l 1423 0 l 873 0 l 831 107 l 538 107 l 501 0 l 22 0 m 571 322 l 790 322 l 686 615 l 571 322 m 1127 1586 q 1101 1432 1127 1506 q 1022 1299 1075 1358 q 891 1207 970 1241 q 709 1173 813 1173 q 526 1207 604 1173 q 395 1301 448 1242 q 317 1435 343 1360 q 291 1591 291 1510 l 583 1591 q 615 1465 583 1519 q 709 1410 647 1410 q 803 1463 771 1410 q 834 1586 834 1516 l 1127 1586 z "},"Â":{"ha":1443,"x_min":22,"x_max":1423,"o":"m 22 0 l 561 1028 q 622 1086 581 1065 q 708 1107 663 1107 q 786 1088 748 1107 q 846 1032 825 1070 l 1423 0 l 873 0 l 831 107 l 538 107 l 501 0 l 22 0 m 571 322 l 790 322 l 686 615 l 571 322 m 612 1556 q 654 1602 627 1586 q 710 1617 682 1617 q 764 1603 738 1617 q 806 1556 790 1588 l 945 1274 q 953 1249 951 1260 q 954 1230 954 1238 q 935 1206 954 1206 q 863 1247 907 1206 l 709 1387 l 555 1247 q 484 1206 511 1206 q 463 1230 463 1206 q 465 1249 463 1238 q 473 1274 467 1260 l 612 1556 z "},"Ä":{"ha":1443,"x_min":22,"x_max":1423,"o":"m 22 0 l 561 1028 q 622 1086 581 1065 q 708 1107 663 1107 q 786 1088 748 1107 q 846 1032 825 1070 l 1423 0 l 873 0 l 831 107 l 538 107 l 501 0 l 22 0 m 571 322 l 790 322 l 686 615 l 571 322 m 514 1463 q 626 1423 587 1463 q 665 1327 665 1383 q 647 1249 665 1286 q 591 1187 629 1211 q 494 1164 553 1164 q 378 1205 416 1164 q 339 1304 339 1246 q 359 1380 339 1343 q 419 1440 380 1417 q 514 1463 458 1463 m 924 1463 q 1037 1423 998 1463 q 1076 1327 1076 1383 q 1058 1249 1076 1286 q 1003 1187 1040 1211 q 906 1164 966 1164 q 790 1205 830 1164 q 751 1304 751 1246 q 771 1380 751 1343 q 830 1440 791 1417 q 924 1463 869 1463 z "},"À":{"ha":1443,"x_min":22,"x_max":1423,"o":"m 22 0 l 561 1028 q 622 1086 581 1065 q 708 1107 663 1107 q 786 1088 748 1107 q 846 1032 825 1070 l 1423 0 l 873 0 l 831 107 l 538 107 l 501 0 l 22 0 m 571 322 l 790 322 l 686 615 l 571 322 m 631 1594 l 728 1255 q 734 1219 734 1236 q 709 1181 734 1181 q 646 1229 684 1181 l 355 1594 l 631 1594 z "},"Ȃ":{"ha":1443,"x_min":22,"x_max":1423,"o":"m 22 0 l 561 1028 q 622 1086 581 1065 q 708 1107 663 1107 q 786 1088 748 1107 q 846 1032 825 1070 l 1423 0 l 873 0 l 831 107 l 538 107 l 501 0 l 22 0 m 571 322 l 790 322 l 686 615 l 571 322 m 834 1221 q 820 1290 834 1257 q 779 1345 806 1324 q 709 1367 751 1367 q 615 1322 647 1367 q 583 1221 583 1277 l 332 1221 q 374 1392 332 1311 q 500 1525 416 1474 q 709 1576 584 1576 q 917 1525 833 1576 q 1043 1392 1000 1473 q 1085 1221 1085 1310 l 834 1221 z "},"Ā":{"ha":1443,"x_min":22,"x_max":1423,"o":"m 22 0 l 561 1028 q 622 1086 581 1065 q 708 1107 663 1107 q 786 1088 748 1107 q 846 1032 825 1070 l 1423 0 l 873 0 l 831 107 l 538 107 l 501 0 l 22 0 m 571 322 l 790 322 l 686 615 l 571 322 m 393 1436 l 1013 1436 l 1013 1234 l 393 1234 l 393 1436 z "},"Ą":{"ha":1443,"x_min":22,"x_max":1423,"o":"m 22 0 l 561 1028 q 622 1086 581 1065 q 708 1107 663 1107 q 786 1088 748 1107 q 846 1032 825 1070 l 1423 0 l 873 0 l 831 107 l 538 107 l 501 0 l 22 0 m 571 322 l 790 322 l 686 615 l 571 322 m 1272 -361 q 1178 -404 1234 -387 q 1067 -420 1123 -420 q 969 -404 1015 -420 q 895 -354 924 -388 q 867 -265 867 -319 q 886 -184 867 -224 q 933 -110 905 -144 q 989 -49 961 -75 q 1036 -8 1017 -23 q 1055 7 1055 7 l 1149 7 q 1134 -20 1149 7 q 1100 -89 1120 -47 q 1066 -175 1081 -130 q 1051 -256 1051 -220 q 1065 -303 1051 -285 q 1112 -321 1079 -321 q 1179 -310 1148 -321 q 1231 -289 1210 -299 q 1258 -278 1252 -278 q 1286 -291 1274 -278 q 1299 -319 1299 -303 q 1272 -361 1299 -341 z "},"Å":{"ha":1443,"x_min":22,"x_max":1423,"o":"m 22 0 l 561 1028 q 622 1086 581 1065 q 708 1107 663 1107 q 786 1088 748 1107 q 846 1032 825 1070 l 1423 0 l 873 0 l 831 107 l 538 107 l 501 0 l 22 0 m 571 322 l 790 322 l 686 615 l 571 322 m 707 1184 q 601 1208 652 1184 q 518 1281 551 1232 q 486 1401 486 1329 q 518 1520 486 1473 q 601 1591 551 1567 q 706 1615 651 1615 q 811 1591 761 1615 q 894 1520 862 1567 q 926 1401 926 1472 q 895 1281 926 1329 q 812 1208 863 1232 q 707 1184 762 1184 m 709 1308 q 781 1337 757 1308 q 804 1400 804 1365 q 780 1463 804 1434 q 706 1493 755 1493 q 634 1465 658 1493 q 610 1402 610 1436 q 634 1338 610 1367 q 709 1308 659 1308 z "},"Ã":{"ha":1443,"x_min":22,"x_max":1423,"o":"m 22 0 l 561 1028 q 622 1086 581 1065 q 708 1107 663 1107 q 786 1088 748 1107 q 846 1032 825 1070 l 1423 0 l 873 0 l 831 107 l 538 107 l 501 0 l 22 0 m 571 322 l 790 322 l 686 615 l 571 322 m 507 1263 q 463 1254 482 1263 q 431 1234 444 1244 q 412 1223 418 1223 q 399 1234 399 1223 q 421 1377 399 1326 q 481 1448 443 1428 q 567 1468 519 1468 q 688 1450 624 1468 q 814 1415 753 1432 q 924 1397 876 1397 q 969 1408 950 1397 q 1001 1428 987 1418 q 1021 1438 1014 1438 q 1032 1428 1032 1438 q 1011 1284 1032 1335 q 955 1212 991 1232 q 873 1192 919 1192 q 754 1210 818 1192 q 626 1245 690 1227 q 507 1263 562 1263 z "},"Æ":{"ha":1654,"x_min":16,"x_max":1614,"o":"m 755 1083 l 1593 1083 l 1593 783 l 1238 783 l 1238 679 l 1593 679 l 1593 419 l 1238 419 l 1238 301 l 1614 301 l 1614 0 l 782 0 l 782 83 l 505 83 l 457 0 l 16 0 l 755 1083 m 782 624 l 631 335 l 782 335 l 782 624 z "},"B":{"ha":1283,"x_min":83,"x_max":1226,"o":"m 83 1083 q 121 1085 83 1083 q 221 1089 159 1086 q 355 1094 283 1092 q 498 1098 428 1097 q 623 1100 569 1100 q 941 1069 824 1100 q 1108 982 1058 1038 q 1158 847 1158 925 q 1119 722 1158 772 q 1000 635 1080 671 q 1108 581 1057 616 q 1193 483 1160 545 q 1226 317 1226 420 q 1187 160 1226 222 q 1083 63 1148 98 q 938 11 1018 27 q 775 -11 858 -6 q 619 -16 692 -16 q 542 -14 595 -16 q 419 -11 488 -13 q 283 -6 351 -9 q 162 -1 216 -3 q 83 3 108 1 l 83 1083 m 507 587 q 618 635 565 610 q 705 694 671 661 q 739 772 739 727 q 716 817 739 802 q 671 831 694 831 q 620 821 648 831 q 567 798 592 811 q 525 775 542 785 q 507 764 509 765 l 507 587 m 775 421 q 756 465 775 452 q 708 478 736 478 q 640 463 677 478 q 566 427 602 447 q 507 396 531 408 l 507 225 l 543 239 q 665 289 613 265 q 746 343 718 312 q 775 421 775 374 z "},"C":{"ha":1035,"x_min":41,"x_max":958,"o":"m 958 32 q 646 -26 814 -26 q 422 9 530 -26 q 228 112 314 44 q 92 279 142 180 q 41 505 41 378 q 89 752 41 640 q 225 944 137 863 q 434 1069 313 1025 q 701 1114 555 1114 q 770 1111 728 1114 q 857 1101 812 1108 q 937 1080 901 1094 l 937 730 q 846 747 892 747 q 717 713 776 747 q 623 621 658 679 q 587 493 587 564 q 614 384 587 423 q 694 345 642 345 q 745 351 715 345 q 824 385 774 358 q 958 473 875 412 l 958 32 z "},"Ć":{"ha":1035,"x_min":41,"x_max":961,"o":"m 958 32 q 646 -26 814 -26 q 422 9 530 -26 q 228 112 314 44 q 92 279 142 180 q 41 505 41 378 q 89 752 41 640 q 225 944 137 863 q 434 1069 313 1025 q 701 1114 555 1114 q 770 1111 728 1114 q 857 1101 812 1108 q 937 1080 901 1094 l 937 730 q 846 747 892 747 q 717 713 776 747 q 623 621 658 679 q 587 493 587 564 q 614 384 587 423 q 694 345 642 345 q 745 351 715 345 q 824 385 774 358 q 958 473 875 412 l 958 32 m 961 1594 l 669 1230 q 607 1182 631 1182 q 582 1219 582 1182 q 587 1256 582 1237 l 684 1594 l 961 1594 z "},"Č":{"ha":1035,"x_min":41,"x_max":958,"o":"m 958 32 q 646 -26 814 -26 q 422 9 530 -26 q 228 112 314 44 q 92 279 142 180 q 41 505 41 378 q 89 752 41 640 q 225 944 137 863 q 434 1069 313 1025 q 701 1114 555 1114 q 770 1111 728 1114 q 857 1101 812 1108 q 937 1080 901 1094 l 937 730 q 846 747 892 747 q 717 713 776 747 q 623 621 658 679 q 587 493 587 564 q 614 384 587 423 q 694 345 642 345 q 745 351 715 345 q 824 385 774 358 q 958 473 875 412 l 958 32 m 372 1547 q 361 1590 361 1573 q 382 1613 361 1613 q 454 1573 410 1613 l 607 1433 l 762 1573 q 833 1613 805 1613 q 853 1590 853 1613 q 851 1571 853 1581 q 843 1547 850 1560 l 705 1263 q 663 1217 690 1232 q 608 1202 636 1202 q 553 1218 581 1202 q 511 1263 526 1234 l 372 1547 z "},"Ç":{"ha":1035,"x_min":41,"x_max":958,"o":"m 958 32 q 646 -26 814 -26 q 422 9 530 -26 q 228 112 314 44 q 92 279 142 180 q 41 505 41 378 q 89 752 41 640 q 225 944 137 863 q 434 1069 313 1025 q 701 1114 555 1114 q 770 1111 728 1114 q 857 1101 812 1108 q 937 1080 901 1094 l 937 730 q 846 747 892 747 q 717 713 776 747 q 623 621 658 679 q 587 493 587 564 q 614 384 587 423 q 694 345 642 345 q 745 351 715 345 q 824 385 774 358 q 958 473 875 412 l 958 32 m 422 -370 q 396 -328 396 -348 q 409 -299 396 -311 q 437 -286 421 -286 q 464 -297 443 -286 q 516 -318 485 -307 q 583 -329 547 -329 q 623 -319 602 -329 q 644 -285 644 -310 q 606 -238 644 -254 q 524 -222 569 -222 q 531 -198 524 -221 q 547 -143 537 -176 q 566 -77 556 -110 q 582 -22 575 -44 q 588 0 588 0 l 681 0 l 640 -129 l 654 -129 q 705 -134 676 -129 q 763 -154 734 -139 q 809 -198 791 -169 q 828 -273 828 -227 q 800 -362 828 -328 q 725 -412 771 -396 q 628 -428 680 -428 q 517 -412 572 -428 q 422 -370 461 -395 z "},"Ĉ":{"ha":1035,"x_min":41,"x_max":958,"o":"m 958 32 q 646 -26 814 -26 q 422 9 530 -26 q 228 112 314 44 q 92 279 142 180 q 41 505 41 378 q 89 752 41 640 q 225 944 137 863 q 434 1069 313 1025 q 701 1114 555 1114 q 770 1111 728 1114 q 857 1101 812 1108 q 937 1080 901 1094 l 937 730 q 846 747 892 747 q 717 713 776 747 q 623 621 658 679 q 587 493 587 564 q 614 384 587 423 q 694 345 642 345 q 745 351 715 345 q 824 385 774 358 q 958 473 875 412 l 958 32 m 511 1556 q 552 1602 525 1586 q 608 1617 580 1617 q 662 1603 636 1617 q 704 1556 688 1588 l 843 1274 q 851 1249 850 1260 q 852 1230 852 1238 q 833 1206 852 1206 q 761 1247 805 1206 l 607 1387 l 454 1247 q 382 1206 409 1206 q 361 1230 361 1206 q 363 1249 361 1238 q 372 1274 366 1260 l 511 1556 z "},"Ċ":{"ha":1035,"x_min":41,"x_max":958,"o":"m 958 32 q 646 -26 814 -26 q 422 9 530 -26 q 228 112 314 44 q 92 279 142 180 q 41 505 41 378 q 89 752 41 640 q 225 944 137 863 q 434 1069 313 1025 q 701 1114 555 1114 q 770 1111 728 1114 q 857 1101 812 1108 q 937 1080 901 1094 l 937 730 q 846 747 892 747 q 717 713 776 747 q 623 621 658 679 q 587 493 587 564 q 614 384 587 423 q 694 345 642 345 q 745 351 715 345 q 824 385 774 358 q 958 473 875 412 l 958 32 m 649 1621 q 752 1594 711 1621 q 814 1525 793 1567 q 835 1436 835 1483 q 810 1335 835 1384 q 734 1254 785 1286 q 608 1222 684 1222 q 503 1248 544 1222 q 442 1316 462 1274 q 422 1405 422 1358 q 450 1506 422 1456 q 528 1588 477 1556 q 649 1621 578 1621 z "},"D":{"ha":1227,"x_min":83,"x_max":1177,"o":"m 83 1083 q 124 1086 83 1083 q 231 1094 165 1089 q 374 1103 296 1099 q 526 1111 451 1107 q 659 1114 601 1114 q 889 1063 791 1114 q 1050 929 987 1013 q 1145 744 1114 846 q 1177 541 1177 643 q 1133 313 1177 413 q 1012 142 1090 212 q 830 36 935 73 q 603 0 725 0 l 83 0 l 83 1083 m 505 326 q 583 387 541 357 q 661 452 624 418 q 721 530 698 487 q 745 629 745 573 q 729 705 745 667 q 684 770 713 744 q 611 796 654 796 q 552 779 580 796 q 505 739 525 762 l 505 326 z "},"Ǳ":{"ha":2406,"x_min":83,"x_max":2325,"o":"m 83 1083 q 124 1086 83 1083 q 231 1094 165 1089 q 374 1103 296 1099 q 526 1111 451 1107 q 659 1114 601 1114 q 889 1063 791 1114 q 1050 929 987 1013 q 1145 744 1114 846 q 1177 541 1177 643 q 1133 313 1177 413 q 1012 142 1090 212 q 830 36 935 73 q 603 0 725 0 l 83 0 l 83 1083 m 505 326 q 583 387 541 357 q 661 452 624 418 q 721 530 698 487 q 745 629 745 573 q 729 705 745 667 q 684 770 713 744 q 611 796 654 796 q 552 779 580 796 q 505 739 525 762 l 505 326 m 1644 755 l 1270 755 l 1270 1083 l 2325 1083 l 2325 1000 l 1908 310 l 2325 310 l 2325 0 l 1229 0 l 1229 62 l 1644 755 z "},"Ǆ":{"ha":2406,"x_min":83,"x_max":2325,"o":"m 83 1083 q 124 1086 83 1083 q 231 1094 165 1089 q 374 1103 296 1099 q 526 1111 451 1107 q 659 1114 601 1114 q 889 1063 791 1114 q 1050 929 987 1013 q 1145 744 1114 846 q 1177 541 1177 643 q 1133 313 1177 413 q 1012 142 1090 212 q 830 36 935 73 q 603 0 725 0 l 83 0 l 83 1083 m 505 326 q 583 387 541 357 q 661 452 624 418 q 721 530 698 487 q 745 629 745 573 q 729 705 745 667 q 684 770 713 744 q 611 796 654 796 q 552 779 580 796 q 505 739 525 762 l 505 326 m 1644 755 l 1270 755 l 1270 1083 l 2325 1083 l 2325 1000 l 1908 310 l 2325 310 l 2325 0 l 1229 0 l 1229 62 l 1644 755 m 1563 1547 q 1552 1590 1552 1573 q 1573 1613 1552 1613 q 1645 1573 1601 1613 l 1798 1433 l 1952 1573 q 2024 1613 1996 1613 q 2044 1590 2044 1613 q 2042 1571 2044 1581 q 2034 1547 2041 1560 l 1895 1263 q 1854 1217 1881 1232 q 1799 1202 1827 1202 q 1744 1218 1772 1202 q 1702 1263 1716 1234 l 1563 1547 z "},"Ď":{"ha":1227,"x_min":83,"x_max":1177,"o":"m 83 1083 q 124 1086 83 1083 q 231 1094 165 1089 q 374 1103 296 1099 q 526 1111 451 1107 q 659 1114 601 1114 q 889 1063 791 1114 q 1050 929 987 1013 q 1145 744 1114 846 q 1177 541 1177 643 q 1133 313 1177 413 q 1012 142 1090 212 q 830 36 935 73 q 603 0 725 0 l 83 0 l 83 1083 m 505 326 q 583 387 541 357 q 661 452 624 418 q 721 530 698 487 q 745 629 745 573 q 729 705 745 667 q 684 770 713 744 q 611 796 654 796 q 552 779 580 796 q 505 739 525 762 l 505 326 m 332 1548 q 321 1590 321 1573 q 342 1614 321 1614 q 414 1574 370 1614 l 567 1434 l 722 1574 q 793 1614 765 1614 q 813 1590 813 1614 q 811 1572 813 1582 q 803 1548 810 1561 l 665 1264 q 623 1218 650 1233 q 568 1203 596 1203 q 513 1219 541 1203 q 471 1264 486 1235 l 332 1548 z "},"Đ":{"ha":1229,"x_min":33,"x_max":1177,"o":"m 83 507 l 33 507 l 33 667 l 83 667 l 83 1083 q 124 1086 83 1083 q 231 1094 165 1089 q 374 1103 296 1099 q 526 1111 451 1107 q 659 1114 601 1114 q 889 1063 791 1114 q 1050 929 987 1013 q 1145 744 1114 846 q 1177 541 1177 643 q 1133 313 1177 413 q 1012 142 1090 212 q 830 36 935 73 q 603 0 725 0 l 83 0 l 83 507 m 505 667 l 625 667 l 625 507 l 505 507 l 505 326 q 583 387 541 357 q 661 452 624 418 q 721 530 698 487 q 745 629 745 573 q 729 705 745 667 q 684 770 713 744 q 611 796 654 796 q 552 779 580 796 q 505 739 525 762 l 505 667 z "},"ǲ":{"ha":2233,"x_min":83,"x_max":2174,"o":"m 83 1083 q 124 1086 83 1083 q 231 1094 165 1089 q 374 1103 296 1099 q 526 1111 451 1107 q 659 1114 601 1114 q 889 1063 791 1114 q 1050 929 987 1013 q 1145 744 1114 846 q 1177 541 1177 643 q 1133 313 1177 413 q 1012 142 1090 212 q 830 36 935 73 q 603 0 725 0 l 83 0 l 83 1083 m 505 326 q 583 387 541 357 q 661 452 624 418 q 721 530 698 487 q 745 629 745 573 q 729 705 745 667 q 684 770 713 744 q 611 796 654 796 q 552 779 580 796 q 505 739 525 762 l 505 326 m 1626 587 l 1333 587 l 1333 843 l 2174 843 l 2174 781 l 1845 241 l 2174 241 l 2174 0 l 1301 0 l 1301 46 l 1626 587 z "},"ǅ":{"ha":2233,"x_min":83,"x_max":2174,"o":"m 83 1083 q 124 1086 83 1083 q 231 1094 165 1089 q 374 1103 296 1099 q 526 1111 451 1107 q 659 1114 601 1114 q 889 1063 791 1114 q 1050 929 987 1013 q 1145 744 1114 846 q 1177 541 1177 643 q 1133 313 1177 413 q 1012 142 1090 212 q 830 36 935 73 q 603 0 725 0 l 83 0 l 83 1083 m 505 326 q 583 387 541 357 q 661 452 624 418 q 721 530 698 487 q 745 629 745 573 q 729 705 745 667 q 684 770 713 744 q 611 796 654 796 q 552 779 580 796 q 505 739 525 762 l 505 326 m 1626 587 l 1333 587 l 1333 843 l 2174 843 l 2174 781 l 1845 241 l 2174 241 l 2174 0 l 1301 0 l 1301 46 l 1626 587 m 1515 1336 q 1504 1379 1504 1362 q 1525 1402 1504 1402 q 1597 1362 1553 1402 l 1750 1222 l 1904 1362 q 1976 1402 1948 1402 q 1996 1379 1996 1402 q 1994 1360 1996 1371 q 1986 1336 1992 1350 l 1847 1053 q 1806 1006 1832 1021 q 1751 991 1779 991 q 1696 1007 1724 991 q 1654 1053 1668 1023 l 1515 1336 z "},"Ð":{"ha":1229,"x_min":33,"x_max":1177,"o":"m 83 507 l 33 507 l 33 667 l 83 667 l 83 1083 q 124 1086 83 1083 q 231 1094 165 1089 q 374 1103 296 1099 q 526 1111 451 1107 q 659 1114 601 1114 q 889 1063 791 1114 q 1050 929 987 1013 q 1145 744 1114 846 q 1177 541 1177 643 q 1133 313 1177 413 q 1012 142 1090 212 q 830 36 935 73 q 603 0 725 0 l 83 0 l 83 507 m 505 667 l 625 667 l 625 507 l 505 507 l 505 326 q 583 387 541 357 q 661 452 624 418 q 721 530 698 487 q 745 629 745 573 q 729 705 745 667 q 684 770 713 744 q 611 796 654 796 q 552 779 580 796 q 505 739 525 762 l 505 667 z "},"E":{"ha":965,"x_min":83,"x_max":888,"o":"m 83 1083 l 864 1083 l 864 771 l 505 771 l 505 682 l 863 682 l 863 416 l 505 416 l 505 314 l 888 314 l 888 0 l 83 0 l 83 1083 z "},"É":{"ha":965,"x_min":83,"x_max":888,"o":"m 83 1083 l 864 1083 l 864 771 l 505 771 l 505 682 l 863 682 l 863 416 l 505 416 l 505 314 l 888 314 l 888 0 l 83 0 l 83 1083 m 832 1594 l 541 1230 q 478 1182 503 1182 q 453 1219 453 1182 q 458 1256 453 1237 l 555 1594 l 832 1594 z "},"Ě":{"ha":965,"x_min":83,"x_max":888,"o":"m 83 1083 l 864 1083 l 864 771 l 505 771 l 505 682 l 863 682 l 863 416 l 505 416 l 505 314 l 888 314 l 888 0 l 83 0 l 83 1083 m 243 1547 q 233 1590 233 1573 q 253 1613 233 1613 q 326 1573 281 1613 l 478 1433 l 633 1573 q 705 1613 676 1613 q 724 1590 724 1613 q 723 1571 724 1581 q 714 1547 721 1560 l 576 1263 q 534 1217 561 1232 q 479 1202 507 1202 q 425 1218 452 1202 q 382 1263 397 1234 l 243 1547 z "},"Ê":{"ha":965,"x_min":83,"x_max":888,"o":"m 83 1083 l 864 1083 l 864 771 l 505 771 l 505 682 l 863 682 l 863 416 l 505 416 l 505 314 l 888 314 l 888 0 l 83 0 l 83 1083 m 382 1556 q 424 1602 396 1586 q 479 1617 451 1617 q 533 1603 507 1617 q 575 1556 559 1588 l 714 1274 q 722 1249 721 1260 q 724 1230 724 1238 q 704 1206 724 1206 q 632 1247 676 1206 l 478 1387 l 325 1247 q 253 1206 280 1206 q 232 1230 232 1206 q 234 1249 232 1238 q 243 1274 237 1260 l 382 1556 z "},"Ë":{"ha":965,"x_min":83,"x_max":888,"o":"m 83 1083 l 864 1083 l 864 771 l 505 771 l 505 682 l 863 682 l 863 416 l 505 416 l 505 314 l 888 314 l 888 0 l 83 0 l 83 1083 m 283 1463 q 395 1423 357 1463 q 434 1327 434 1383 q 416 1249 434 1286 q 360 1187 398 1211 q 263 1164 323 1164 q 147 1205 186 1164 q 109 1304 109 1246 q 129 1380 109 1343 q 189 1440 149 1417 q 283 1463 228 1463 m 694 1463 q 806 1423 768 1463 q 845 1327 845 1383 q 827 1249 845 1286 q 772 1187 810 1211 q 675 1164 735 1164 q 560 1205 600 1164 q 520 1304 520 1246 q 541 1380 520 1343 q 600 1440 561 1417 q 694 1463 638 1463 z "},"Ė":{"ha":965,"x_min":83,"x_max":888,"o":"m 83 1083 l 864 1083 l 864 771 l 505 771 l 505 682 l 863 682 l 863 416 l 505 416 l 505 314 l 888 314 l 888 0 l 83 0 l 83 1083 m 520 1621 q 623 1594 582 1621 q 685 1525 665 1567 q 706 1436 706 1483 q 681 1335 706 1384 q 606 1254 656 1286 q 479 1222 555 1222 q 374 1248 415 1222 q 313 1316 333 1274 q 294 1405 294 1358 q 321 1506 294 1456 q 399 1588 348 1556 q 520 1621 450 1621 z "},"È":{"ha":965,"x_min":83,"x_max":888,"o":"m 83 1083 l 864 1083 l 864 771 l 505 771 l 505 682 l 863 682 l 863 416 l 505 416 l 505 314 l 888 314 l 888 0 l 83 0 l 83 1083 m 400 1594 l 498 1255 q 503 1219 503 1236 q 478 1181 503 1181 q 416 1229 454 1181 l 124 1594 l 400 1594 z "},"Ȇ":{"ha":965,"x_min":83,"x_max":888,"o":"m 83 1083 l 864 1083 l 864 771 l 505 771 l 505 682 l 863 682 l 863 416 l 505 416 l 505 314 l 888 314 l 888 0 l 83 0 l 83 1083 m 604 1221 q 590 1290 604 1257 q 548 1345 576 1324 q 478 1367 520 1367 q 384 1322 416 1367 q 352 1221 352 1277 l 102 1221 q 144 1392 102 1311 q 270 1525 186 1474 q 478 1576 353 1576 q 686 1525 603 1576 q 812 1392 770 1473 q 854 1221 854 1310 l 604 1221 z "},"Ē":{"ha":965,"x_min":83,"x_max":888,"o":"m 83 1083 l 864 1083 l 864 771 l 505 771 l 505 682 l 863 682 l 863 416 l 505 416 l 505 314 l 888 314 l 888 0 l 83 0 l 83 1083 m 163 1436 l 782 1436 l 782 1234 l 163 1234 l 163 1436 z "},"Ę":{"ha":965,"x_min":83,"x_max":888,"o":"m 83 1083 l 864 1083 l 864 771 l 505 771 l 505 682 l 863 682 l 863 416 l 505 416 l 505 314 l 888 314 l 888 0 l 83 0 l 83 1083 m 842 -361 q 748 -404 804 -387 q 637 -420 693 -420 q 539 -404 585 -420 q 465 -354 494 -388 q 437 -265 437 -319 q 456 -184 437 -224 q 503 -110 475 -144 q 559 -49 531 -75 q 606 -8 587 -23 q 625 7 625 7 l 719 7 q 704 -20 719 7 q 670 -89 690 -47 q 636 -175 651 -130 q 621 -256 621 -220 q 635 -303 621 -285 q 682 -321 649 -321 q 749 -310 718 -321 q 801 -289 780 -299 q 828 -278 822 -278 q 856 -291 844 -278 q 869 -319 869 -303 q 842 -361 869 -341 z "},"F":{"ha":897,"x_min":83,"x_max":863,"o":"m 83 1083 l 863 1083 l 863 777 l 505 777 l 505 676 l 863 676 l 863 380 l 505 380 l 505 0 l 83 0 l 83 1083 z "},"G":{"ha":1169,"x_min":43,"x_max":1097,"o":"m 1097 14 q 1059 7 1097 14 q 962 -6 1021 1 q 838 -20 903 -14 q 721 -26 774 -26 q 452 14 576 -26 q 236 129 328 54 q 94 310 144 204 q 43 547 43 416 q 98 784 43 679 q 252 962 153 888 q 485 1075 351 1036 q 777 1114 618 1114 q 925 1104 866 1114 q 1014 1084 984 1094 q 1044 1074 1043 1074 l 1044 746 q 860 777 945 777 q 680 736 751 777 q 573 634 608 696 q 538 510 538 573 q 578 390 538 437 q 689 343 618 343 q 720 346 705 343 q 747 353 736 348 q 749 417 749 378 q 749 515 749 457 q 950 516 879 515 q 1053 516 1022 516 q 1091 516 1084 516 q 1097 517 1097 517 l 1097 14 z "},"Ǵ":{"ha":1169,"x_min":43,"x_max":1097,"o":"m 1097 14 q 1059 7 1097 14 q 962 -6 1021 1 q 838 -20 903 -14 q 721 -26 774 -26 q 452 14 576 -26 q 236 129 328 54 q 94 310 144 204 q 43 547 43 416 q 98 784 43 679 q 252 962 153 888 q 485 1075 351 1036 q 777 1114 618 1114 q 925 1104 866 1114 q 1014 1084 984 1094 q 1044 1074 1043 1074 l 1044 746 q 860 777 945 777 q 680 736 751 777 q 573 634 608 696 q 538 510 538 573 q 578 390 538 437 q 689 343 618 343 q 720 346 705 343 q 747 353 736 348 q 749 417 749 378 q 749 515 749 457 q 950 516 879 515 q 1053 516 1022 516 q 1091 516 1084 516 q 1097 517 1097 517 l 1097 14 m 1004 1594 l 712 1230 q 650 1182 674 1182 q 625 1219 625 1182 q 630 1256 625 1237 l 727 1594 l 1004 1594 z "},"Ğ":{"ha":1169,"x_min":43,"x_max":1097,"o":"m 1097 14 q 1059 7 1097 14 q 962 -6 1021 1 q 838 -20 903 -14 q 721 -26 774 -26 q 452 14 576 -26 q 236 129 328 54 q 94 310 144 204 q 43 547 43 416 q 98 784 43 679 q 252 962 153 888 q 485 1075 351 1036 q 777 1114 618 1114 q 925 1104 866 1114 q 1014 1084 984 1094 q 1044 1074 1043 1074 l 1044 746 q 860 777 945 777 q 680 736 751 777 q 573 634 608 696 q 538 510 538 573 q 578 390 538 437 q 689 343 618 343 q 720 346 705 343 q 747 353 736 348 q 749 417 749 378 q 749 515 749 457 q 950 516 879 515 q 1053 516 1022 516 q 1091 516 1084 516 q 1097 517 1097 517 l 1097 14 m 1068 1586 q 1042 1432 1068 1506 q 963 1299 1016 1358 q 832 1207 911 1241 q 650 1173 754 1173 q 467 1207 545 1173 q 336 1301 389 1242 q 258 1435 284 1360 q 232 1591 232 1510 l 524 1591 q 556 1465 524 1519 q 650 1410 588 1410 q 744 1463 712 1410 q 775 1586 775 1516 l 1068 1586 z "},"Ģ":{"ha":1169,"x_min":43,"x_max":1097,"o":"m 1097 14 q 1059 7 1097 14 q 962 -6 1021 1 q 838 -20 903 -14 q 721 -26 774 -26 q 452 14 576 -26 q 236 129 328 54 q 94 310 144 204 q 43 547 43 416 q 98 784 43 679 q 252 962 153 888 q 485 1075 351 1036 q 777 1114 618 1114 q 925 1104 866 1114 q 1014 1084 984 1094 q 1044 1074 1043 1074 l 1044 746 q 860 777 945 777 q 680 736 751 777 q 573 634 608 696 q 538 510 538 573 q 578 390 538 437 q 689 343 618 343 q 720 346 705 343 q 747 353 736 348 q 749 417 749 378 q 749 515 749 457 q 950 516 879 515 q 1053 516 1022 516 q 1091 516 1084 516 q 1097 517 1097 517 l 1097 14 m 378 -518 q 449 -497 424 -518 q 485 -450 474 -477 q 497 -401 495 -422 q 500 -378 500 -380 l 378 -378 l 378 -92 l 791 -92 l 791 -366 q 692 -606 791 -519 q 378 -693 593 -693 l 378 -518 z "},"Ġ":{"ha":1169,"x_min":43,"x_max":1097,"o":"m 1097 14 q 1059 7 1097 14 q 962 -6 1021 1 q 838 -20 903 -14 q 721 -26 774 -26 q 452 14 576 -26 q 236 129 328 54 q 94 310 144 204 q 43 547 43 416 q 98 784 43 679 q 252 962 153 888 q 485 1075 351 1036 q 777 1114 618 1114 q 925 1104 866 1114 q 1014 1084 984 1094 q 1044 1074 1043 1074 l 1044 746 q 860 777 945 777 q 680 736 751 777 q 573 634 608 696 q 538 510 538 573 q 578 390 538 437 q 689 343 618 343 q 720 346 705 343 q 747 353 736 348 q 749 417 749 378 q 749 515 749 457 q 950 516 879 515 q 1053 516 1022 516 q 1091 516 1084 516 q 1097 517 1097 517 l 1097 14 m 692 1621 q 795 1594 753 1621 q 857 1525 836 1567 q 878 1436 878 1483 q 852 1335 878 1384 q 777 1254 827 1286 q 651 1222 727 1222 q 546 1248 587 1222 q 485 1316 505 1274 q 465 1405 465 1358 q 492 1506 465 1456 q 570 1588 519 1556 q 692 1621 621 1621 z "},"H":{"ha":1236,"x_min":83,"x_max":1153,"o":"m 730 1083 l 1153 1083 l 1153 0 l 730 0 l 730 400 l 505 380 l 505 0 l 83 0 l 83 1083 l 505 1083 l 505 692 l 730 710 l 730 1083 z "},"Ħ":{"ha":1236,"x_min":83,"x_max":1153,"o":"m 505 967 l 730 967 l 730 1083 l 1153 1083 l 1153 0 l 730 0 l 730 400 l 505 380 l 505 0 l 83 0 l 83 1083 l 505 1083 l 505 967 m 730 836 l 505 836 l 505 692 l 730 710 l 730 836 z "},"I":{"ha":587,"x_min":83,"x_max":505,"o":"m 505 0 l 83 0 l 83 1083 l 505 1083 l 505 0 z "},"Ĳ":{"ha":1658,"x_min":83,"x_max":1592,"o":"m 505 0 l 83 0 l 83 1083 l 505 1083 l 505 0 m 1080 -26 q 829 16 939 -26 q 659 150 720 59 q 597 385 597 241 l 597 488 l 973 539 l 973 435 q 1001 337 973 369 q 1063 306 1028 306 q 1130 341 1100 306 q 1160 439 1160 377 l 1160 1083 l 1592 1083 l 1592 559 q 1553 280 1592 393 q 1444 100 1514 168 q 1281 3 1374 33 q 1080 -26 1188 -26 z "},"Í":{"ha":587,"x_min":83,"x_max":654,"o":"m 505 0 l 83 0 l 83 1083 l 505 1083 l 505 0 m 654 1594 l 362 1230 q 300 1182 324 1182 q 275 1219 275 1182 q 280 1256 275 1237 l 377 1594 l 654 1594 z "},"Î":{"ha":587,"x_min":54,"x_max":545,"o":"m 505 0 l 83 0 l 83 1083 l 505 1083 l 505 0 m 203 1556 q 245 1602 218 1586 q 301 1617 273 1617 q 355 1603 329 1617 q 397 1556 381 1588 l 536 1274 q 544 1249 543 1260 q 545 1230 545 1238 q 526 1206 545 1206 q 454 1247 498 1206 l 300 1387 l 146 1247 q 75 1206 102 1206 q 54 1230 54 1206 q 56 1249 54 1238 q 64 1274 58 1260 l 203 1556 z "},"Ï":{"ha":587,"x_min":-70,"x_max":667,"o":"m 505 0 l 83 0 l 83 1083 l 505 1083 l 505 0 m 105 1463 q 217 1423 178 1463 q 256 1327 256 1383 q 238 1249 256 1286 q 182 1187 220 1211 q 85 1164 144 1164 q -31 1205 7 1164 q -70 1304 -70 1246 q -50 1380 -70 1343 q 10 1440 -29 1417 q 105 1463 50 1463 m 515 1463 q 628 1423 589 1463 q 667 1327 667 1383 q 649 1249 667 1286 q 594 1187 631 1211 q 497 1164 557 1164 q 381 1205 421 1164 q 342 1304 342 1246 q 362 1380 342 1343 q 421 1440 382 1417 q 515 1463 460 1463 z "},"İ":{"ha":587,"x_min":83,"x_max":528,"o":"m 505 0 l 83 0 l 83 1083 l 505 1083 l 505 0 m 342 1621 q 445 1594 404 1621 q 507 1525 486 1567 q 528 1436 528 1483 q 503 1335 528 1384 q 427 1254 477 1286 q 301 1222 377 1222 q 196 1248 237 1222 q 135 1316 155 1274 q 115 1405 115 1358 q 142 1506 115 1456 q 220 1588 170 1556 q 342 1621 271 1621 z "},"Ì":{"ha":587,"x_min":-54,"x_max":505,"o":"m 505 0 l 83 0 l 83 1083 l 505 1083 l 505 0 m 222 1594 l 319 1255 q 325 1219 325 1236 q 300 1181 325 1181 q 237 1229 275 1181 l -54 1594 l 222 1594 z "},"Ȋ":{"ha":587,"x_min":-77,"x_max":676,"o":"m 505 0 l 83 0 l 83 1083 l 505 1083 l 505 0 m 425 1221 q 411 1290 425 1257 q 370 1345 397 1324 q 300 1367 342 1367 q 206 1322 238 1367 q 174 1221 174 1277 l -77 1221 q -35 1392 -77 1311 q 91 1525 7 1474 q 300 1576 175 1576 q 508 1525 425 1576 q 634 1392 591 1473 q 676 1221 676 1310 l 425 1221 z "},"Ī":{"ha":587,"x_min":-16,"x_max":604,"o":"m 505 0 l 83 0 l 83 1083 l 505 1083 l 505 0 m -16 1436 l 604 1436 l 604 1234 l -16 1234 l -16 1436 z "},"Į":{"ha":587,"x_min":66,"x_max":505,"o":"m 505 0 l 83 0 l 83 1083 l 505 1083 l 505 0 m 472 -368 q 378 -410 433 -394 q 267 -427 323 -427 q 169 -411 215 -427 q 95 -360 123 -395 q 66 -272 66 -326 q 85 -191 66 -231 q 133 -117 104 -151 q 189 -56 161 -82 q 236 -15 217 -30 q 255 0 255 0 l 349 0 q 334 -27 349 0 q 300 -95 319 -54 q 266 -182 281 -137 q 251 -262 251 -227 q 265 -310 251 -292 q 312 -328 279 -328 q 379 -317 348 -328 q 431 -295 410 -306 q 458 -285 452 -285 q 486 -297 473 -285 q 498 -326 498 -310 q 472 -368 498 -348 z "},"Ĩ":{"ha":587,"x_min":-10,"x_max":623,"o":"m 505 0 l 83 0 l 83 1083 l 505 1083 l 505 0 m 98 1263 q 54 1254 73 1263 q 22 1234 35 1244 q 3 1223 9 1223 q -10 1234 -10 1223 q 12 1377 -10 1326 q 72 1448 34 1428 q 158 1468 111 1468 q 279 1450 215 1468 q 406 1415 344 1432 q 515 1397 467 1397 q 560 1408 541 1397 q 592 1428 578 1418 q 612 1438 605 1438 q 623 1428 623 1438 q 603 1284 623 1335 q 546 1212 582 1232 q 464 1192 510 1192 q 345 1210 409 1192 q 217 1245 281 1227 q 98 1263 153 1263 z "},"J":{"ha":1071,"x_min":9,"x_max":1004,"o":"m 493 -26 q 242 16 351 -26 q 71 150 133 59 q 9 385 9 241 l 9 488 l 386 539 l 386 435 q 413 337 386 369 q 476 306 441 306 q 543 341 513 306 q 572 439 572 377 l 572 1083 l 1004 1083 l 1004 559 q 965 280 1004 393 q 857 100 926 168 q 694 3 787 33 q 493 -26 601 -26 z "},"Ĵ":{"ha":1071,"x_min":9,"x_max":1004,"o":"m 493 -26 q 242 16 351 -26 q 71 150 133 59 q 9 385 9 241 l 9 488 l 386 539 l 386 435 q 413 337 386 369 q 476 306 441 306 q 543 341 513 306 q 572 439 572 377 l 572 1083 l 1004 1083 l 1004 559 q 965 280 1004 393 q 857 100 926 168 q 694 3 787 33 q 493 -26 601 -26 m 654 1556 q 695 1602 668 1586 q 751 1617 723 1617 q 805 1603 779 1617 q 847 1556 831 1588 l 986 1274 q 994 1249 993 1260 q 996 1230 996 1238 q 976 1206 996 1206 q 904 1247 948 1206 l 750 1387 l 597 1247 q 525 1206 552 1206 q 504 1230 504 1206 q 506 1249 504 1238 q 515 1274 509 1260 l 654 1556 z "},"K":{"ha":1326,"x_min":83,"x_max":1268,"o":"m 513 1083 l 513 750 l 774 1083 l 1214 1083 l 864 627 l 1268 0 l 774 0 l 547 383 l 522 339 l 522 0 l 83 0 l 83 1083 l 513 1083 z "},"Ķ":{"ha":1326,"x_min":83,"x_max":1268,"o":"m 513 1083 l 513 750 l 774 1083 l 1214 1083 l 864 627 l 1268 0 l 774 0 l 547 383 l 522 339 l 522 0 l 83 0 l 83 1083 l 513 1083 m 456 -518 q 528 -497 503 -518 q 563 -450 553 -477 q 576 -401 574 -422 q 578 -378 578 -380 l 456 -378 l 456 -92 l 869 -92 l 869 -366 q 771 -606 869 -519 q 456 -693 672 -693 l 456 -518 z "},"L":{"ha":890,"x_min":83,"x_max":869,"o":"m 83 1083 l 505 1083 l 505 326 l 869 326 l 869 0 l 83 0 l 83 1083 z "},"Ǉ":{"ha":1961,"x_min":83,"x_max":1895,"o":"m 83 1083 l 505 1083 l 505 326 l 869 326 l 869 0 l 83 0 l 83 1083 m 1383 -26 q 1133 16 1242 -26 q 962 150 1023 59 q 900 385 900 241 l 900 488 l 1276 539 l 1276 435 q 1304 337 1276 369 q 1367 306 1331 306 q 1433 341 1403 306 q 1463 439 1463 377 l 1463 1083 l 1895 1083 l 1895 559 q 1856 280 1895 393 q 1747 100 1817 168 q 1584 3 1677 33 q 1383 -26 1491 -26 z "},"Ĺ":{"ha":890,"x_min":83,"x_max":869,"o":"m 83 1083 l 505 1083 l 505 326 l 869 326 l 869 0 l 83 0 l 83 1083 m 656 1595 l 364 1230 q 302 1183 326 1183 q 277 1220 277 1183 q 282 1257 277 1238 l 379 1595 l 656 1595 z "},"Ľ":{"ha":954,"x_min":83,"x_max":1008,"o":"m 83 1083 l 505 1083 l 505 326 l 869 326 l 869 0 l 83 0 l 83 1083 m 595 659 q 666 681 641 659 q 702 729 691 702 q 714 778 712 757 q 717 800 717 800 l 595 800 l 595 1086 l 1008 1086 l 1008 812 q 909 571 1008 658 q 595 484 810 484 l 595 659 z "},"Ļ":{"ha":890,"x_min":83,"x_max":869,"o":"m 83 1083 l 505 1083 l 505 326 l 869 326 l 869 0 l 83 0 l 83 1083 m 239 -518 q 310 -497 285 -518 q 346 -450 335 -477 q 358 -401 356 -422 q 361 -378 361 -380 l 239 -378 l 239 -92 l 652 -92 l 652 -366 q 553 -606 652 -519 q 239 -693 454 -693 l 239 -518 z "},"Ŀ":{"ha":1004,"x_min":83,"x_max":1025,"o":"m 83 1083 l 505 1083 l 505 326 l 869 326 l 869 0 l 83 0 l 83 1083 m 839 861 q 942 835 901 861 q 1004 766 983 808 q 1025 677 1025 724 q 1000 575 1025 625 q 924 494 975 526 q 798 463 874 463 q 693 488 734 463 q 632 556 652 514 q 612 646 612 598 q 640 747 612 697 q 718 829 667 796 q 839 861 768 861 z "},"ǈ":{"ha":1579,"x_min":83,"x_max":1511,"o":"m 83 1083 l 505 1083 l 505 326 l 869 326 l 869 0 l 83 0 l 83 1083 m 1324 1234 q 1465 1190 1419 1234 q 1511 1090 1511 1147 q 1485 1007 1511 1048 q 1409 940 1459 966 q 1286 913 1359 913 q 1140 955 1182 913 q 1097 1051 1097 998 q 1122 1136 1097 1095 q 1198 1206 1147 1178 q 1324 1234 1249 1234 m 913 47 q 983 36 940 36 q 1036 64 1008 36 q 1083 134 1064 93 q 1103 215 1103 176 l 1103 843 l 1508 843 l 1508 75 q 1466 -86 1508 -19 q 1353 -190 1423 -154 q 1196 -225 1282 -225 q 1045 -199 1119 -225 q 913 -127 971 -174 l 913 47 z "},"Ł":{"ha":896,"x_min":0,"x_max":869,"o":"m 0 618 l 83 647 l 83 1083 l 505 1083 l 505 798 l 629 842 l 629 590 l 505 546 l 505 326 l 869 326 l 869 0 l 83 0 l 83 396 l 0 367 l 0 618 z "},"M":{"ha":1533,"x_min":83,"x_max":1450,"o":"m 83 1083 l 239 1083 l 762 591 l 1300 1083 l 1450 1083 l 1450 0 l 1004 0 l 1004 351 l 728 47 l 458 343 l 458 0 l 83 0 l 83 1083 z "},"N":{"ha":1250,"x_min":83,"x_max":1166,"o":"m 83 1083 l 193 1083 l 785 661 l 785 1083 l 1166 1083 l 1166 0 l 1021 0 l 464 372 l 464 0 l 83 0 l 83 1083 z "},"Ǌ":{"ha":2321,"x_min":83,"x_max":2254,"o":"m 83 1083 l 193 1083 l 785 661 l 785 1083 l 1166 1083 l 1166 0 l 1021 0 l 464 372 l 464 0 l 83 0 l 83 1083 m 1743 -26 q 1492 16 1601 -26 q 1321 150 1383 59 q 1259 385 1259 241 l 1259 488 l 1636 539 l 1636 435 q 1663 337 1636 369 q 1726 306 1691 306 q 1792 341 1763 306 q 1822 439 1822 377 l 1822 1083 l 2254 1083 l 2254 559 q 2215 280 2254 393 q 2106 100 2176 168 q 1944 3 2037 33 q 1743 -26 1851 -26 z "},"Ń":{"ha":1250,"x_min":83,"x_max":1166,"o":"m 83 1083 l 193 1083 l 785 661 l 785 1083 l 1166 1083 l 1166 0 l 1021 0 l 464 372 l 464 0 l 83 0 l 83 1083 m 1006 1594 l 714 1230 q 652 1182 676 1182 q 627 1219 627 1182 q 632 1256 627 1237 l 729 1594 l 1006 1594 z "},"Ň":{"ha":1250,"x_min":83,"x_max":1166,"o":"m 83 1083 l 193 1083 l 785 661 l 785 1083 l 1166 1083 l 1166 0 l 1021 0 l 464 372 l 464 0 l 83 0 l 83 1083 m 417 1547 q 406 1590 406 1573 q 427 1613 406 1613 q 499 1573 455 1613 l 652 1433 l 806 1573 q 878 1613 850 1613 q 898 1590 898 1613 q 896 1571 898 1581 q 888 1547 895 1560 l 749 1263 q 708 1217 734 1232 q 653 1202 681 1202 q 598 1218 626 1202 q 556 1263 570 1234 l 417 1547 z "},"Ņ":{"ha":1250,"x_min":83,"x_max":1166,"o":"m 83 1083 l 193 1083 l 785 661 l 785 1083 l 1166 1083 l 1166 0 l 1021 0 l 464 372 l 464 0 l 83 0 l 83 1083 m 418 -518 q 490 -497 465 -518 q 525 -450 515 -477 q 538 -401 536 -422 q 541 -378 541 -380 l 418 -378 l 418 -92 l 831 -92 l 831 -366 q 733 -606 831 -519 q 418 -693 634 -693 l 418 -518 z "},"ǋ":{"ha":1939,"x_min":83,"x_max":1870,"o":"m 83 1083 l 193 1083 l 785 661 l 785 1083 l 1166 1083 l 1166 0 l 1021 0 l 464 372 l 464 0 l 83 0 l 83 1083 m 1683 1234 q 1825 1190 1779 1234 q 1870 1090 1870 1147 q 1844 1007 1870 1048 q 1768 940 1818 966 q 1646 913 1718 913 q 1499 955 1541 913 q 1457 1051 1457 998 q 1482 1136 1457 1095 q 1557 1206 1507 1178 q 1683 1234 1608 1234 m 1272 47 q 1343 36 1299 36 q 1396 64 1368 36 q 1443 134 1423 93 q 1462 215 1462 176 l 1462 843 l 1868 843 l 1868 75 q 1825 -86 1868 -19 q 1712 -190 1783 -154 q 1556 -225 1641 -225 q 1404 -199 1478 -225 q 1272 -127 1331 -174 l 1272 47 z "},"Ñ":{"ha":1250,"x_min":83,"x_max":1166,"o":"m 83 1083 l 193 1083 l 785 661 l 785 1083 l 1166 1083 l 1166 0 l 1021 0 l 464 372 l 464 0 l 83 0 l 83 1083 m 450 1263 q 406 1254 425 1263 q 374 1234 387 1244 q 355 1223 361 1223 q 342 1234 342 1223 q 364 1377 342 1326 q 424 1448 386 1428 q 510 1468 463 1468 q 631 1450 567 1468 q 758 1415 696 1432 q 867 1397 819 1397 q 912 1408 893 1397 q 944 1428 930 1418 q 964 1438 957 1438 q 975 1428 975 1438 q 955 1284 975 1335 q 898 1212 934 1232 q 816 1192 862 1192 q 697 1210 761 1192 q 569 1245 633 1227 q 450 1263 505 1263 z "},"O":{"ha":1317,"x_min":50,"x_max":1265,"o":"m 652 -26 q 430 14 537 -26 q 236 130 322 54 q 100 310 151 205 q 50 546 50 416 q 97 778 50 673 q 228 958 144 882 q 420 1073 311 1033 q 652 1114 529 1114 q 892 1075 781 1114 q 1087 961 1004 1036 q 1218 781 1171 887 q 1265 541 1265 675 q 1216 306 1265 410 q 1080 127 1166 201 q 884 13 994 53 q 652 -26 774 -26 m 604 326 q 681 361 640 326 q 758 450 722 396 q 816 565 793 505 q 839 676 839 625 q 814 755 839 724 q 729 786 789 786 q 651 752 692 786 q 573 664 609 718 q 513 550 536 610 q 490 439 490 490 q 516 358 490 390 q 604 326 543 326 z "},"Ó":{"ha":1317,"x_min":50,"x_max":1265,"o":"m 652 -26 q 430 14 537 -26 q 236 130 322 54 q 100 310 151 205 q 50 546 50 416 q 97 778 50 673 q 228 958 144 882 q 420 1073 311 1033 q 652 1114 529 1114 q 892 1075 781 1114 q 1087 961 1004 1036 q 1218 781 1171 887 q 1265 541 1265 675 q 1216 306 1265 410 q 1080 127 1166 201 q 884 13 994 53 q 652 -26 774 -26 m 604 326 q 681 361 640 326 q 758 450 722 396 q 816 565 793 505 q 839 676 839 625 q 814 755 839 724 q 729 786 789 786 q 651 752 692 786 q 573 664 609 718 q 513 550 536 610 q 490 439 490 490 q 516 358 490 390 q 604 326 543 326 m 1006 1594 l 714 1230 q 652 1182 676 1182 q 627 1219 627 1182 q 632 1256 627 1237 l 729 1594 l 1006 1594 z "},"Ô":{"ha":1317,"x_min":50,"x_max":1265,"o":"m 652 -26 q 430 14 537 -26 q 236 130 322 54 q 100 310 151 205 q 50 546 50 416 q 97 778 50 673 q 228 958 144 882 q 420 1073 311 1033 q 652 1114 529 1114 q 892 1075 781 1114 q 1087 961 1004 1036 q 1218 781 1171 887 q 1265 541 1265 675 q 1216 306 1265 410 q 1080 127 1166 201 q 884 13 994 53 q 652 -26 774 -26 m 604 326 q 681 361 640 326 q 758 450 722 396 q 816 565 793 505 q 839 676 839 625 q 814 755 839 724 q 729 786 789 786 q 651 752 692 786 q 573 664 609 718 q 513 550 536 610 q 490 439 490 490 q 516 358 490 390 q 604 326 543 326 m 555 1556 q 597 1602 570 1586 q 653 1617 625 1617 q 707 1603 681 1617 q 749 1556 733 1588 l 888 1274 q 896 1249 895 1260 q 897 1230 897 1238 q 878 1206 897 1206 q 806 1247 850 1206 l 652 1387 l 498 1247 q 427 1206 454 1206 q 406 1230 406 1206 q 408 1249 406 1238 q 416 1274 410 1260 l 555 1556 z "},"Ö":{"ha":1317,"x_min":50,"x_max":1265,"o":"m 652 -26 q 430 14 537 -26 q 236 130 322 54 q 100 310 151 205 q 50 546 50 416 q 97 778 50 673 q 228 958 144 882 q 420 1073 311 1033 q 652 1114 529 1114 q 892 1075 781 1114 q 1087 961 1004 1036 q 1218 781 1171 887 q 1265 541 1265 675 q 1216 306 1265 410 q 1080 127 1166 201 q 884 13 994 53 q 652 -26 774 -26 m 604 326 q 681 361 640 326 q 758 450 722 396 q 816 565 793 505 q 839 676 839 625 q 814 755 839 724 q 729 786 789 786 q 651 752 692 786 q 573 664 609 718 q 513 550 536 610 q 490 439 490 490 q 516 358 490 390 q 604 326 543 326 m 457 1463 q 569 1423 530 1463 q 608 1327 608 1383 q 590 1249 608 1286 q 534 1187 572 1211 q 437 1164 496 1164 q 321 1205 359 1164 q 282 1304 282 1246 q 302 1380 282 1343 q 362 1440 323 1417 q 457 1463 401 1463 m 867 1463 q 980 1423 941 1463 q 1019 1327 1019 1383 q 1001 1249 1019 1286 q 946 1187 983 1211 q 849 1164 909 1164 q 733 1205 773 1164 q 694 1304 694 1246 q 714 1380 694 1343 q 773 1440 734 1417 q 867 1463 812 1463 z "},"Ò":{"ha":1317,"x_min":50,"x_max":1265,"o":"m 652 -26 q 430 14 537 -26 q 236 130 322 54 q 100 310 151 205 q 50 546 50 416 q 97 778 50 673 q 228 958 144 882 q 420 1073 311 1033 q 652 1114 529 1114 q 892 1075 781 1114 q 1087 961 1004 1036 q 1218 781 1171 887 q 1265 541 1265 675 q 1216 306 1265 410 q 1080 127 1166 201 q 884 13 994 53 q 652 -26 774 -26 m 604 326 q 681 361 640 326 q 758 450 722 396 q 816 565 793 505 q 839 676 839 625 q 814 755 839 724 q 729 786 789 786 q 651 752 692 786 q 573 664 609 718 q 513 550 536 610 q 490 439 490 490 q 516 358 490 390 q 604 326 543 326 m 574 1594 l 671 1255 q 677 1219 677 1236 q 652 1181 677 1181 q 589 1229 627 1181 l 298 1594 l 574 1594 z "},"Ő":{"ha":1317,"x_min":50,"x_max":1265,"o":"m 652 -26 q 430 14 537 -26 q 236 130 322 54 q 100 310 151 205 q 50 546 50 416 q 97 778 50 673 q 228 958 144 882 q 420 1073 311 1033 q 652 1114 529 1114 q 892 1075 781 1114 q 1087 961 1004 1036 q 1218 781 1171 887 q 1265 541 1265 675 q 1216 306 1265 410 q 1080 127 1166 201 q 884 13 994 53 q 652 -26 774 -26 m 604 326 q 681 361 640 326 q 758 450 722 396 q 816 565 793 505 q 839 676 839 625 q 814 755 839 724 q 729 786 789 786 q 651 752 692 786 q 573 664 609 718 q 513 550 536 610 q 490 439 490 490 q 516 358 490 390 q 604 326 543 326 m 781 1600 l 558 1234 q 503 1187 529 1187 q 483 1201 492 1187 q 475 1242 475 1215 q 475 1252 475 1247 q 475 1261 475 1256 l 504 1600 l 781 1600 m 1158 1600 l 867 1234 q 802 1190 831 1190 q 779 1223 779 1190 q 784 1261 779 1241 l 868 1600 l 1158 1600 z "},"Ȏ":{"ha":1317,"x_min":50,"x_max":1265,"o":"m 652 -26 q 430 14 537 -26 q 236 130 322 54 q 100 310 151 205 q 50 546 50 416 q 97 778 50 673 q 228 958 144 882 q 420 1073 311 1033 q 652 1114 529 1114 q 892 1075 781 1114 q 1087 961 1004 1036 q 1218 781 1171 887 q 1265 541 1265 675 q 1216 306 1265 410 q 1080 127 1166 201 q 884 13 994 53 q 652 -26 774 -26 m 604 326 q 681 361 640 326 q 758 450 722 396 q 816 565 793 505 q 839 676 839 625 q 814 755 839 724 q 729 786 789 786 q 651 752 692 786 q 573 664 609 718 q 513 550 536 610 q 490 439 490 490 q 516 358 490 390 q 604 326 543 326 m 777 1221 q 763 1290 777 1257 q 722 1345 749 1324 q 652 1367 694 1367 q 558 1322 590 1367 q 526 1221 526 1277 l 275 1221 q 317 1392 275 1311 q 443 1525 359 1474 q 652 1576 527 1576 q 860 1525 777 1576 q 986 1392 943 1473 q 1028 1221 1028 1310 l 777 1221 z "},"Ø":{"ha":1260,"x_min":43,"x_max":1258,"o":"m 644 -26 q 580 -23 612 -26 q 517 -12 548 -19 l 471 -153 l 374 -125 l 418 14 q 228 130 313 54 q 93 311 142 205 q 43 546 43 416 q 90 778 43 673 q 221 958 138 882 q 413 1073 304 1033 q 644 1114 522 1114 q 814 1095 730 1114 l 856 1223 l 953 1196 l 911 1065 q 1093 950 1015 1024 q 1215 773 1171 876 q 1258 541 1258 670 q 1208 306 1258 410 q 1073 127 1159 201 q 877 13 987 53 q 644 -26 766 -26 m 722 786 q 644 752 686 786 q 566 664 602 718 q 507 550 530 610 q 484 439 484 490 q 510 358 484 390 q 597 326 536 326 q 674 361 633 326 q 751 450 715 396 q 809 565 787 505 q 832 676 832 625 q 807 755 832 724 q 722 786 782 786 z "},"Õ":{"ha":1317,"x_min":50,"x_max":1265,"o":"m 652 -26 q 430 14 537 -26 q 236 130 322 54 q 100 310 151 205 q 50 546 50 416 q 97 778 50 673 q 228 958 144 882 q 420 1073 311 1033 q 652 1114 529 1114 q 892 1075 781 1114 q 1087 961 1004 1036 q 1218 781 1171 887 q 1265 541 1265 675 q 1216 306 1265 410 q 1080 127 1166 201 q 884 13 994 53 q 652 -26 774 -26 m 604 326 q 681 361 640 326 q 758 450 722 396 q 816 565 793 505 q 839 676 839 625 q 814 755 839 724 q 729 786 789 786 q 651 752 692 786 q 573 664 609 718 q 513 550 536 610 q 490 439 490 490 q 516 358 490 390 q 604 326 543 326 m 450 1263 q 406 1254 425 1263 q 374 1234 387 1244 q 355 1223 361 1223 q 342 1234 342 1223 q 364 1377 342 1326 q 424 1448 386 1428 q 510 1468 463 1468 q 631 1450 567 1468 q 758 1415 696 1432 q 867 1397 819 1397 q 912 1408 893 1397 q 944 1428 930 1418 q 964 1438 957 1438 q 975 1428 975 1438 q 955 1284 975 1335 q 898 1212 934 1232 q 816 1192 862 1192 q 697 1210 761 1192 q 569 1245 633 1227 q 450 1263 505 1263 z "},"Œ":{"ha":1603,"x_min":32,"x_max":1561,"o":"m 32 501 q 78 734 32 627 q 209 919 124 840 q 409 1041 294 998 q 664 1084 525 1084 l 1561 1084 l 1561 789 l 1219 789 l 1219 686 l 1547 686 l 1547 421 l 1219 421 l 1219 318 l 1561 318 l 1561 0 l 545 0 q 342 39 436 0 q 179 146 249 77 q 71 305 110 214 q 32 501 32 396 m 711 786 q 633 752 674 786 q 555 664 591 718 q 495 550 518 610 q 472 439 472 490 q 498 358 472 390 q 586 326 524 326 q 663 361 622 326 q 739 450 703 396 q 798 565 775 505 q 821 676 821 625 q 795 755 821 724 q 711 786 770 786 z "},"P":{"ha":1187,"x_min":83,"x_max":1157,"o":"m 623 1114 q 929 1069 812 1114 q 1102 927 1047 1024 q 1157 672 1157 830 q 1117 478 1157 566 q 1008 327 1078 391 q 845 228 938 263 q 647 193 753 193 q 591 195 620 193 q 526 196 562 196 l 526 0 l 83 0 l 83 1080 q 375 1105 241 1096 q 623 1114 509 1114 m 694 832 q 641 820 671 832 q 585 792 612 808 q 541 764 558 776 q 524 751 524 751 l 524 496 l 603 534 q 721 618 671 568 q 771 747 771 668 q 751 807 771 781 q 694 832 731 832 z "},"Þ":{"ha":1126,"x_min":41,"x_max":1104,"o":"m 41 1084 l 485 1084 l 485 996 q 627 1031 562 1020 q 747 1042 693 1042 q 952 993 874 1042 q 1067 865 1031 945 q 1104 692 1104 785 q 1034 407 1104 529 q 825 215 963 284 q 485 140 687 145 l 485 0 l 41 0 l 41 1084 m 643 757 q 593 746 621 757 q 540 720 566 734 q 498 693 515 705 q 482 682 482 682 l 482 440 l 557 476 q 669 556 623 508 q 715 677 715 604 q 696 734 715 711 q 643 757 677 757 z "},"Q":{"ha":1367,"x_min":49,"x_max":1352,"o":"m 650 -26 q 428 14 535 -26 q 235 130 320 54 q 99 310 149 205 q 49 546 49 416 q 96 778 49 673 q 226 958 143 882 q 418 1073 309 1033 q 650 1114 527 1114 q 891 1075 779 1114 q 1086 961 1002 1036 q 1217 781 1170 887 q 1264 541 1264 675 q 1251 415 1264 475 q 1213 304 1238 356 q 1349 277 1296 277 q 1350 247 1350 277 q 1351 172 1350 216 q 1351 83 1351 127 q 1352 8 1352 38 q 1352 -22 1352 -22 q 1289 -26 1320 -26 q 1140 -1 1212 -26 q 1000 68 1067 25 q 650 -26 844 -26 m 728 786 q 649 752 691 786 q 571 664 608 718 q 512 550 535 610 q 489 439 489 490 q 515 358 489 390 q 603 326 541 326 q 641 336 621 326 q 682 363 661 347 q 632 421 656 392 q 583 479 608 450 l 657 590 q 722 548 689 569 q 789 507 755 527 q 824 594 810 550 q 838 676 838 638 q 812 755 838 724 q 728 786 787 786 z "},"R":{"ha":1300,"x_min":83,"x_max":1253,"o":"m 83 0 l 83 1083 q 126 1086 83 1083 q 237 1094 168 1089 q 388 1103 306 1099 q 550 1111 469 1107 q 693 1114 630 1114 q 916 1079 825 1114 q 1064 989 1008 1045 q 1146 865 1120 932 q 1173 729 1173 797 q 1112 525 1173 610 q 958 385 1052 440 l 1253 0 l 717 0 l 526 314 l 526 0 l 83 0 m 524 511 q 712 617 655 560 q 770 741 770 675 q 749 816 770 795 q 699 836 729 836 q 658 830 679 836 q 614 814 637 823 l 524 777 l 524 511 z "},"Ŕ":{"ha":1300,"x_min":83,"x_max":1253,"o":"m 83 0 l 83 1083 q 126 1086 83 1083 q 237 1094 168 1089 q 388 1103 306 1099 q 550 1111 469 1107 q 693 1114 630 1114 q 916 1079 825 1114 q 1064 989 1008 1045 q 1146 865 1120 932 q 1173 729 1173 797 q 1112 525 1173 610 q 958 385 1052 440 l 1253 0 l 717 0 l 526 314 l 526 0 l 83 0 m 524 511 q 712 617 655 560 q 770 741 770 675 q 749 816 770 795 q 699 836 729 836 q 658 830 679 836 q 614 814 637 823 l 524 777 l 524 511 m 907 1594 l 615 1230 q 553 1182 577 1182 q 528 1219 528 1182 q 533 1256 528 1237 l 630 1594 l 907 1594 z "},"Ř":{"ha":1300,"x_min":83,"x_max":1253,"o":"m 83 0 l 83 1083 q 126 1086 83 1083 q 237 1094 168 1089 q 388 1103 306 1099 q 550 1111 469 1107 q 693 1114 630 1114 q 916 1079 825 1114 q 1064 989 1008 1045 q 1146 865 1120 932 q 1173 729 1173 797 q 1112 525 1173 610 q 958 385 1052 440 l 1253 0 l 717 0 l 526 314 l 526 0 l 83 0 m 524 511 q 712 617 655 560 q 770 741 770 675 q 749 816 770 795 q 699 836 729 836 q 658 830 679 836 q 614 814 637 823 l 524 777 l 524 511 m 318 1547 q 307 1590 307 1573 q 328 1613 307 1613 q 400 1573 356 1613 l 553 1433 l 707 1573 q 779 1613 751 1613 q 799 1590 799 1613 q 797 1571 799 1581 q 789 1547 795 1560 l 650 1263 q 609 1217 635 1232 q 554 1202 582 1202 q 499 1218 527 1202 q 457 1263 471 1234 l 318 1547 z "},"Ŗ":{"ha":1300,"x_min":83,"x_max":1253,"o":"m 83 0 l 83 1083 q 126 1086 83 1083 q 237 1094 168 1089 q 388 1103 306 1099 q 550 1111 469 1107 q 693 1114 630 1114 q 916 1079 825 1114 q 1064 989 1008 1045 q 1146 865 1120 932 q 1173 729 1173 797 q 1112 525 1173 610 q 958 385 1052 440 l 1253 0 l 717 0 l 526 314 l 526 0 l 83 0 m 524 511 q 712 617 655 560 q 770 741 770 675 q 749 816 770 795 q 699 836 729 836 q 658 830 679 836 q 614 814 637 823 l 524 777 l 524 511 m 444 -518 q 515 -497 490 -518 q 550 -450 540 -477 q 563 -401 561 -422 q 566 -378 566 -380 l 444 -378 l 444 -92 l 857 -92 l 857 -366 q 758 -606 857 -519 q 444 -693 659 -693 l 444 -518 z "},"Ȓ":{"ha":1300,"x_min":83,"x_max":1253,"o":"m 83 0 l 83 1083 q 126 1086 83 1083 q 237 1094 168 1089 q 388 1103 306 1099 q 550 1111 469 1107 q 693 1114 630 1114 q 916 1079 825 1114 q 1064 989 1008 1045 q 1146 865 1120 932 q 1173 729 1173 797 q 1112 525 1173 610 q 958 385 1052 440 l 1253 0 l 717 0 l 526 314 l 526 0 l 83 0 m 524 511 q 712 617 655 560 q 770 741 770 675 q 749 816 770 795 q 699 836 729 836 q 658 830 679 836 q 614 814 637 823 l 524 777 l 524 511 m 678 1221 q 664 1290 678 1257 q 623 1345 650 1324 q 553 1367 595 1367 q 459 1322 491 1367 q 427 1221 427 1277 l 176 1221 q 218 1392 176 1311 q 344 1525 260 1474 q 553 1576 428 1576 q 761 1525 677 1576 q 887 1392 844 1473 q 929 1221 929 1310 l 678 1221 z "},"S":{"ha":981,"x_min":65,"x_max":920,"o":"m 68 359 q 106 348 72 359 q 189 322 140 336 q 287 298 238 309 q 371 288 336 288 q 420 296 401 288 q 439 329 439 305 q 412 376 439 355 q 342 419 385 397 q 252 470 300 441 q 162 538 204 498 q 92 634 119 578 q 65 768 65 690 q 105 930 65 864 q 213 1037 145 996 q 365 1095 280 1077 q 538 1114 449 1114 q 680 1105 613 1114 q 794 1088 747 1097 q 852 1075 840 1078 l 852 764 q 824 770 852 764 q 754 783 796 776 q 666 797 711 791 q 587 803 621 803 q 541 792 556 803 q 525 766 525 781 q 538 740 525 754 q 571 717 552 725 q 705 653 642 686 q 817 578 768 621 q 892 474 865 535 q 920 323 920 412 q 866 139 920 218 q 713 17 813 60 q 472 -26 613 -26 q 272 -15 351 -26 q 149 11 193 -3 q 86 37 104 26 q 68 49 68 49 l 68 359 z "},"Ś":{"ha":981,"x_min":65,"x_max":920,"o":"m 68 359 q 106 348 72 359 q 189 322 140 336 q 287 298 238 309 q 371 288 336 288 q 420 296 401 288 q 439 329 439 305 q 412 376 439 355 q 342 419 385 397 q 252 470 300 441 q 162 538 204 498 q 92 634 119 578 q 65 768 65 690 q 105 930 65 864 q 213 1037 145 996 q 365 1095 280 1077 q 538 1114 449 1114 q 680 1105 613 1114 q 794 1088 747 1097 q 852 1075 840 1078 l 852 764 q 824 770 852 764 q 754 783 796 776 q 666 797 711 791 q 587 803 621 803 q 541 792 556 803 q 525 766 525 781 q 538 740 525 754 q 571 717 552 725 q 705 653 642 686 q 817 578 768 621 q 892 474 865 535 q 920 323 920 412 q 866 139 920 218 q 713 17 813 60 q 472 -26 613 -26 q 272 -15 351 -26 q 149 11 193 -3 q 86 37 104 26 q 68 49 68 49 l 68 359 m 840 1594 l 549 1230 q 486 1182 511 1182 q 461 1219 461 1182 q 467 1256 461 1237 l 564 1594 l 840 1594 z "},"Š":{"ha":981,"x_min":65,"x_max":920,"o":"m 68 359 q 106 348 72 359 q 189 322 140 336 q 287 298 238 309 q 371 288 336 288 q 420 296 401 288 q 439 329 439 305 q 412 376 439 355 q 342 419 385 397 q 252 470 300 441 q 162 538 204 498 q 92 634 119 578 q 65 768 65 690 q 105 930 65 864 q 213 1037 145 996 q 365 1095 280 1077 q 538 1114 449 1114 q 680 1105 613 1114 q 794 1088 747 1097 q 852 1075 840 1078 l 852 764 q 824 770 852 764 q 754 783 796 776 q 666 797 711 791 q 587 803 621 803 q 541 792 556 803 q 525 766 525 781 q 538 740 525 754 q 571 717 552 725 q 705 653 642 686 q 817 578 768 621 q 892 474 865 535 q 920 323 920 412 q 866 139 920 218 q 713 17 813 60 q 472 -26 613 -26 q 272 -15 351 -26 q 149 11 193 -3 q 86 37 104 26 q 68 49 68 49 l 68 359 m 252 1547 q 241 1590 241 1573 q 261 1613 241 1613 q 334 1573 290 1613 l 486 1433 l 641 1573 q 713 1613 684 1613 q 732 1590 732 1613 q 731 1571 732 1581 q 722 1547 729 1560 l 584 1263 q 542 1217 569 1232 q 488 1202 515 1202 q 433 1218 460 1202 q 391 1263 405 1234 l 252 1547 z "},"Ş":{"ha":981,"x_min":65,"x_max":920,"o":"m 68 359 q 106 348 72 359 q 189 322 140 336 q 287 298 238 309 q 371 288 336 288 q 420 296 401 288 q 439 329 439 305 q 412 376 439 355 q 342 419 385 397 q 252 470 300 441 q 162 538 204 498 q 92 634 119 578 q 65 768 65 690 q 105 930 65 864 q 213 1037 145 996 q 365 1095 280 1077 q 538 1114 449 1114 q 680 1105 613 1114 q 794 1088 747 1097 q 852 1075 840 1078 l 852 764 q 824 770 852 764 q 754 783 796 776 q 666 797 711 791 q 587 803 621 803 q 541 792 556 803 q 525 766 525 781 q 538 740 525 754 q 571 717 552 725 q 705 653 642 686 q 817 578 768 621 q 892 474 865 535 q 920 323 920 412 q 866 139 920 218 q 713 17 813 60 q 472 -26 613 -26 q 272 -15 351 -26 q 149 11 193 -3 q 86 37 104 26 q 68 49 68 49 l 68 359 m 266 -370 q 239 -328 239 -348 q 252 -299 239 -311 q 280 -286 264 -286 q 307 -297 286 -286 q 359 -318 328 -307 q 426 -329 391 -329 q 466 -319 445 -329 q 487 -285 487 -310 q 450 -238 487 -254 q 368 -222 412 -222 q 374 -198 368 -221 q 390 -143 380 -176 q 409 -77 399 -110 q 425 -22 418 -44 q 431 0 431 0 l 524 0 l 483 -129 l 498 -129 q 549 -134 519 -129 q 606 -154 578 -139 q 653 -198 634 -169 q 671 -273 671 -227 q 643 -362 671 -328 q 569 -412 614 -396 q 471 -428 523 -428 q 360 -412 416 -428 q 266 -370 304 -395 z "},"Ș":{"ha":981,"x_min":65,"x_max":920,"o":"m 68 359 q 106 348 72 359 q 189 322 140 336 q 287 298 238 309 q 371 288 336 288 q 420 296 401 288 q 439 329 439 305 q 412 376 439 355 q 342 419 385 397 q 252 470 300 441 q 162 538 204 498 q 92 634 119 578 q 65 768 65 690 q 105 930 65 864 q 213 1037 145 996 q 365 1095 280 1077 q 538 1114 449 1114 q 680 1105 613 1114 q 794 1088 747 1097 q 852 1075 840 1078 l 852 764 q 824 770 852 764 q 754 783 796 776 q 666 797 711 791 q 587 803 621 803 q 541 792 556 803 q 525 766 525 781 q 538 740 525 754 q 571 717 552 725 q 705 653 642 686 q 817 578 768 621 q 892 474 865 535 q 920 323 920 412 q 866 139 920 218 q 713 17 813 60 q 472 -26 613 -26 q 272 -15 351 -26 q 149 11 193 -3 q 86 37 104 26 q 68 49 68 49 l 68 359 m 267 -518 q 338 -497 313 -518 q 373 -450 363 -477 q 386 -401 384 -422 q 389 -378 389 -380 l 267 -378 l 267 -92 l 680 -92 l 680 -366 q 581 -606 680 -519 q 267 -693 482 -693 l 267 -518 z "},"ẞ":{"ha":1961,"x_min":65,"x_max":1900,"o":"m 68 359 q 106 348 72 359 q 189 322 140 336 q 287 298 238 309 q 371 288 336 288 q 420 296 401 288 q 439 329 439 305 q 412 376 439 355 q 342 419 385 397 q 252 470 300 441 q 162 538 204 498 q 92 634 119 578 q 65 768 65 690 q 105 930 65 864 q 213 1037 145 996 q 365 1095 280 1077 q 538 1114 449 1114 q 680 1105 613 1114 q 794 1088 747 1097 q 852 1075 840 1078 l 852 764 q 824 770 852 764 q 754 783 796 776 q 666 797 711 791 q 587 803 621 803 q 541 792 556 803 q 525 766 525 781 q 538 740 525 754 q 571 717 552 725 q 705 653 642 686 q 817 578 768 621 q 892 474 865 535 q 920 323 920 412 q 866 139 920 218 q 713 17 813 60 q 472 -26 613 -26 q 272 -15 351 -26 q 149 11 193 -3 q 86 37 104 26 q 68 49 68 49 l 68 359 m 1048 359 q 1087 348 1053 359 q 1170 322 1121 336 q 1268 298 1219 309 q 1352 288 1317 288 q 1400 296 1381 288 q 1419 329 1419 305 q 1392 376 1419 355 q 1323 419 1365 397 q 1233 470 1280 441 q 1142 538 1185 498 q 1073 634 1100 578 q 1046 768 1046 690 q 1086 930 1046 864 q 1193 1037 1126 996 q 1345 1095 1261 1077 q 1518 1114 1430 1114 q 1661 1105 1594 1114 q 1774 1088 1728 1097 q 1833 1075 1821 1078 l 1833 764 q 1805 770 1833 764 q 1734 783 1777 776 q 1647 797 1692 791 q 1568 803 1602 803 q 1521 792 1537 803 q 1506 766 1506 781 q 1519 740 1506 754 q 1552 717 1533 725 q 1686 653 1623 686 q 1797 578 1749 621 q 1873 474 1845 535 q 1900 323 1900 412 q 1847 139 1900 218 q 1694 17 1794 60 q 1453 -26 1594 -26 q 1253 -15 1331 -26 q 1129 11 1174 -3 q 1066 37 1084 26 q 1048 49 1048 49 l 1048 359 z "},"T":{"ha":1101,"x_min":39,"x_max":1064,"o":"m 39 1083 l 1064 1083 l 1064 732 l 762 732 l 762 0 l 340 0 l 340 732 l 39 732 l 39 1083 z "},"Ť":{"ha":1101,"x_min":39,"x_max":1064,"o":"m 39 1083 l 1064 1083 l 1064 732 l 762 732 l 762 0 l 340 0 l 340 732 l 39 732 l 39 1083 m 320 1548 q 309 1590 309 1573 q 330 1614 309 1614 q 402 1574 358 1614 l 555 1434 l 709 1574 q 781 1614 753 1614 q 801 1590 801 1614 q 799 1572 801 1582 q 791 1548 798 1561 l 652 1264 q 611 1218 637 1233 q 556 1203 584 1203 q 501 1219 529 1203 q 459 1264 473 1235 l 320 1548 z "},"Ţ":{"ha":1101,"x_min":39,"x_max":1064,"o":"m 39 1083 l 1064 1083 l 1064 732 l 762 732 l 762 0 l 340 0 l 340 732 l 39 732 l 39 1083 m 361 -370 q 334 -328 334 -348 q 347 -299 334 -311 q 375 -286 359 -286 q 402 -297 381 -286 q 454 -318 423 -307 q 521 -329 486 -329 q 561 -319 540 -329 q 582 -285 582 -310 q 545 -238 582 -254 q 463 -222 507 -222 q 469 -198 463 -221 q 485 -143 475 -176 q 504 -77 494 -110 q 520 -22 513 -44 q 526 0 526 0 l 619 0 l 578 -129 l 593 -129 q 644 -134 614 -129 q 701 -154 673 -139 q 748 -198 729 -169 q 766 -273 766 -227 q 738 -362 766 -328 q 664 -412 709 -396 q 566 -428 618 -428 q 455 -412 511 -428 q 361 -370 399 -395 z "},"Ț":{"ha":1101,"x_min":39,"x_max":1064,"o":"m 39 1083 l 1064 1083 l 1064 732 l 762 732 l 762 0 l 340 0 l 340 732 l 39 732 l 39 1083 m 344 -518 q 415 -497 390 -518 q 451 -450 440 -477 q 464 -401 461 -422 q 466 -378 466 -380 l 344 -378 l 344 -92 l 757 -92 l 757 -366 q 658 -606 757 -519 q 344 -693 559 -693 l 344 -518 z "},"U":{"ha":1183,"x_min":72,"x_max":1111,"o":"m 72 1083 l 500 1083 l 500 444 q 528 348 500 387 q 618 309 555 309 q 708 349 680 309 q 736 447 736 389 l 736 1083 l 1111 1083 l 1111 432 q 982 86 1111 199 q 611 -26 854 -26 q 209 86 347 -26 q 72 432 72 199 l 72 1083 z "},"Ú":{"ha":1183,"x_min":72,"x_max":1111,"o":"m 72 1083 l 500 1083 l 500 444 q 528 348 500 387 q 618 309 555 309 q 708 349 680 309 q 736 447 736 389 l 736 1083 l 1111 1083 l 1111 432 q 982 86 1111 199 q 611 -26 854 -26 q 209 86 347 -26 q 72 432 72 199 l 72 1083 m 972 1594 l 680 1230 q 618 1182 642 1182 q 593 1219 593 1182 q 598 1256 593 1237 l 695 1594 l 972 1594 z "},"Û":{"ha":1183,"x_min":72,"x_max":1111,"o":"m 72 1083 l 500 1083 l 500 444 q 528 348 500 387 q 618 309 555 309 q 708 349 680 309 q 736 447 736 389 l 736 1083 l 1111 1083 l 1111 432 q 982 86 1111 199 q 611 -26 854 -26 q 209 86 347 -26 q 72 432 72 199 l 72 1083 m 522 1556 q 563 1602 536 1586 q 619 1617 591 1617 q 673 1603 647 1617 q 715 1556 699 1588 l 854 1274 q 862 1249 861 1260 q 863 1230 863 1238 q 844 1206 863 1206 q 772 1247 816 1206 l 618 1387 l 465 1247 q 393 1206 420 1206 q 372 1230 372 1206 q 374 1249 372 1238 q 382 1274 376 1260 l 522 1556 z "},"Ü":{"ha":1183,"x_min":72,"x_max":1111,"o":"m 72 1083 l 500 1083 l 500 444 q 528 348 500 387 q 618 309 555 309 q 708 349 680 309 q 736 447 736 389 l 736 1083 l 1111 1083 l 1111 432 q 982 86 1111 199 q 611 -26 854 -26 q 209 86 347 -26 q 72 432 72 199 l 72 1083 m 423 1463 q 535 1423 496 1463 q 574 1327 574 1383 q 556 1249 574 1286 q 500 1187 538 1211 q 403 1164 463 1164 q 287 1205 326 1164 q 248 1304 248 1246 q 269 1380 248 1343 q 328 1440 289 1417 q 423 1463 368 1463 m 833 1463 q 946 1423 907 1463 q 985 1327 985 1383 q 967 1249 985 1286 q 912 1187 949 1211 q 815 1164 875 1164 q 700 1205 739 1164 q 660 1304 660 1246 q 680 1380 660 1343 q 739 1440 701 1417 q 833 1463 778 1463 z "},"Ù":{"ha":1183,"x_min":72,"x_max":1111,"o":"m 72 1083 l 500 1083 l 500 444 q 528 348 500 387 q 618 309 555 309 q 708 349 680 309 q 736 447 736 389 l 736 1083 l 1111 1083 l 1111 432 q 982 86 1111 199 q 611 -26 854 -26 q 209 86 347 -26 q 72 432 72 199 l 72 1083 m 540 1594 l 637 1255 q 643 1219 643 1236 q 618 1181 643 1181 q 555 1229 593 1181 l 264 1594 l 540 1594 z "},"Ű":{"ha":1183,"x_min":72,"x_max":1124,"o":"m 72 1083 l 500 1083 l 500 444 q 528 348 500 387 q 618 309 555 309 q 708 349 680 309 q 736 447 736 389 l 736 1083 l 1111 1083 l 1111 432 q 982 86 1111 199 q 611 -26 854 -26 q 209 86 347 -26 q 72 432 72 199 l 72 1083 m 747 1600 l 524 1234 q 469 1187 495 1187 q 449 1201 458 1187 q 441 1242 441 1215 q 441 1252 441 1247 q 441 1261 441 1256 l 470 1600 l 747 1600 m 1124 1600 l 833 1234 q 768 1190 798 1190 q 745 1223 745 1190 q 750 1261 745 1241 l 834 1600 l 1124 1600 z "},"Ȗ":{"ha":1183,"x_min":72,"x_max":1111,"o":"m 72 1083 l 500 1083 l 500 444 q 528 348 500 387 q 618 309 555 309 q 708 349 680 309 q 736 447 736 389 l 736 1083 l 1111 1083 l 1111 432 q 982 86 1111 199 q 611 -26 854 -26 q 209 86 347 -26 q 72 432 72 199 l 72 1083 m 743 1221 q 729 1290 743 1257 q 688 1345 715 1324 q 618 1367 660 1367 q 524 1322 556 1367 q 492 1221 492 1277 l 241 1221 q 283 1392 241 1311 q 409 1525 326 1474 q 618 1576 493 1576 q 826 1525 743 1576 q 952 1392 909 1473 q 994 1221 994 1310 l 743 1221 z "},"Ū":{"ha":1183,"x_min":72,"x_max":1111,"o":"m 72 1083 l 500 1083 l 500 444 q 528 348 500 387 q 618 309 555 309 q 708 349 680 309 q 736 447 736 389 l 736 1083 l 1111 1083 l 1111 432 q 982 86 1111 199 q 611 -26 854 -26 q 209 86 347 -26 q 72 432 72 199 l 72 1083 m 302 1436 l 922 1436 l 922 1234 l 302 1234 l 302 1436 z "},"Ų":{"ha":1183,"x_min":72,"x_max":1111,"o":"m 72 1083 l 500 1083 l 500 444 q 528 348 500 387 q 618 309 555 309 q 708 349 680 309 q 736 447 736 389 l 736 1083 l 1111 1083 l 1111 432 q 982 86 1111 199 q 611 -26 854 -26 q 209 86 347 -26 q 72 432 72 199 l 72 1083 m 783 -368 q 689 -410 745 -394 q 578 -427 634 -427 q 480 -411 526 -427 q 406 -360 435 -395 q 378 -272 378 -326 q 397 -191 378 -231 q 444 -117 416 -151 q 500 -56 472 -82 q 547 -15 528 -30 q 566 0 566 0 l 660 0 q 645 -27 660 0 q 611 -95 631 -54 q 577 -182 592 -137 q 562 -262 562 -227 q 576 -310 562 -292 q 623 -328 590 -328 q 690 -317 659 -328 q 742 -295 721 -306 q 769 -285 763 -285 q 797 -297 785 -285 q 810 -326 810 -310 q 783 -368 810 -348 z "},"Ů":{"ha":1183,"x_min":72,"x_max":1111,"o":"m 72 1083 l 500 1083 l 500 444 q 528 348 500 387 q 618 309 555 309 q 708 349 680 309 q 736 447 736 389 l 736 1083 l 1111 1083 l 1111 432 q 982 86 1111 199 q 611 -26 854 -26 q 209 86 347 -26 q 72 432 72 199 l 72 1083 m 616 1184 q 510 1208 561 1184 q 428 1281 460 1232 q 395 1401 395 1329 q 428 1520 395 1473 q 510 1591 460 1567 q 615 1615 560 1615 q 721 1591 670 1615 q 803 1520 771 1567 q 836 1401 836 1472 q 804 1281 836 1329 q 722 1208 772 1232 q 616 1184 671 1184 m 618 1308 q 690 1337 666 1308 q 713 1400 713 1365 q 689 1463 713 1434 q 615 1493 664 1493 q 543 1465 567 1493 q 519 1402 519 1436 q 544 1338 519 1367 q 618 1308 568 1308 z "},"V":{"ha":1250,"x_min":17,"x_max":1232,"o":"m 509 1083 l 677 743 l 835 1083 l 1232 1083 l 700 1 q 674 -23 692 -14 q 639 -32 657 -32 q 603 -24 620 -32 q 578 1 587 -16 l 17 1083 l 509 1083 z "},"W":{"ha":1807,"x_min":43,"x_max":1761,"o":"m 529 1083 l 653 697 l 924 1060 q 945 1084 937 1078 q 961 1089 952 1089 q 978 1084 970 1089 q 999 1060 986 1079 l 1251 701 l 1373 1083 l 1761 1083 l 1407 28 q 1374 -23 1396 -5 q 1326 -40 1352 -40 q 1231 22 1274 -40 l 928 460 l 602 21 q 556 -22 581 -6 q 507 -37 532 -37 q 459 -21 481 -37 q 424 31 437 -5 l 43 1083 l 529 1083 z "},"Ẃ":{"ha":1807,"x_min":43,"x_max":1761,"o":"m 529 1083 l 653 697 l 924 1060 q 945 1084 937 1078 q 961 1089 952 1089 q 978 1084 970 1089 q 999 1060 986 1079 l 1251 701 l 1373 1083 l 1761 1083 l 1407 28 q 1374 -23 1396 -5 q 1326 -40 1352 -40 q 1231 22 1274 -40 l 928 460 l 602 21 q 556 -22 581 -6 q 507 -37 532 -37 q 459 -21 481 -37 q 424 31 437 -5 l 43 1083 l 529 1083 m 1257 1640 l 966 1276 q 903 1228 928 1228 q 878 1265 878 1228 q 884 1302 878 1283 l 981 1640 l 1257 1640 z "},"Ŵ":{"ha":1807,"x_min":43,"x_max":1761,"o":"m 529 1083 l 653 697 l 924 1060 q 945 1084 937 1078 q 961 1089 952 1089 q 978 1084 970 1089 q 999 1060 986 1079 l 1251 701 l 1373 1083 l 1761 1083 l 1407 28 q 1374 -23 1396 -5 q 1326 -40 1352 -40 q 1231 22 1274 -40 l 928 460 l 602 21 q 556 -22 581 -6 q 507 -37 532 -37 q 459 -21 481 -37 q 424 31 437 -5 l 43 1083 l 529 1083 m 807 1603 q 849 1648 821 1632 q 905 1664 876 1664 q 959 1649 932 1664 q 1000 1603 985 1634 l 1139 1320 q 1147 1295 1146 1306 q 1149 1276 1149 1284 q 1129 1253 1149 1253 q 1057 1293 1101 1253 l 903 1433 l 750 1293 q 678 1253 705 1253 q 657 1276 657 1253 q 660 1295 657 1284 q 668 1320 662 1306 l 807 1603 z "},"Ẅ":{"ha":1807,"x_min":43,"x_max":1761,"o":"m 529 1083 l 653 697 l 924 1060 q 945 1084 937 1078 q 961 1089 952 1089 q 978 1084 970 1089 q 999 1060 986 1079 l 1251 701 l 1373 1083 l 1761 1083 l 1407 28 q 1374 -23 1396 -5 q 1326 -40 1352 -40 q 1231 22 1274 -40 l 928 460 l 602 21 q 556 -22 581 -6 q 507 -37 532 -37 q 459 -21 481 -37 q 424 31 437 -5 l 43 1083 l 529 1083 m 709 1510 q 821 1470 782 1510 q 859 1373 859 1430 q 841 1295 859 1333 q 786 1234 823 1257 q 688 1210 748 1210 q 572 1251 611 1210 q 534 1350 534 1293 q 554 1426 534 1390 q 614 1486 574 1463 q 709 1510 653 1510 m 1119 1510 q 1232 1470 1193 1510 q 1270 1373 1270 1430 q 1253 1295 1270 1333 q 1198 1234 1235 1257 q 1101 1210 1160 1210 q 985 1251 1025 1210 q 945 1350 945 1293 q 966 1426 945 1390 q 1025 1486 986 1463 q 1119 1510 1063 1510 z "},"Ẁ":{"ha":1807,"x_min":43,"x_max":1761,"o":"m 529 1083 l 653 697 l 924 1060 q 945 1084 937 1078 q 961 1089 952 1089 q 978 1084 970 1089 q 999 1060 986 1079 l 1251 701 l 1373 1083 l 1761 1083 l 1407 28 q 1374 -23 1396 -5 q 1326 -40 1352 -40 q 1231 22 1274 -40 l 928 460 l 602 21 q 556 -22 581 -6 q 507 -37 532 -37 q 459 -21 481 -37 q 424 31 437 -5 l 43 1083 l 529 1083 m 825 1640 l 923 1301 q 928 1265 928 1282 q 903 1227 928 1227 q 841 1275 879 1227 l 549 1640 l 825 1640 z "},"X":{"ha":1304,"x_min":65,"x_max":1246,"o":"m 616 248 l 493 0 l 89 0 l 385 564 l 65 1083 l 551 1083 l 672 867 l 799 1083 l 1178 1083 l 895 574 l 1246 0 l 746 0 l 616 248 z "},"Y":{"ha":1165,"x_min":29,"x_max":1136,"o":"m 359 422 l 29 1083 l 513 1083 l 621 861 l 732 1083 l 1136 1083 l 799 422 l 799 0 l 359 0 l 359 422 z "},"Ý":{"ha":1165,"x_min":29,"x_max":1136,"o":"m 359 422 l 29 1083 l 513 1083 l 621 861 l 732 1083 l 1136 1083 l 799 422 l 799 0 l 359 0 l 359 422 m 975 1594 l 683 1230 q 621 1182 645 1182 q 595 1219 595 1182 q 601 1256 595 1237 l 698 1594 l 975 1594 z "},"Ŷ":{"ha":1165,"x_min":29,"x_max":1136,"o":"m 359 422 l 29 1083 l 513 1083 l 621 861 l 732 1083 l 1136 1083 l 799 422 l 799 0 l 359 0 l 359 422 m 524 1556 q 566 1602 538 1586 q 622 1617 593 1617 q 676 1603 650 1617 q 718 1556 702 1588 l 857 1274 q 865 1249 863 1260 q 866 1230 866 1238 q 846 1206 866 1206 q 774 1247 819 1206 l 621 1387 l 467 1247 q 395 1206 422 1206 q 374 1230 374 1206 q 377 1249 374 1238 q 385 1274 379 1260 l 524 1556 z "},"Ÿ":{"ha":1165,"x_min":29,"x_max":1136,"o":"m 359 422 l 29 1083 l 513 1083 l 621 861 l 732 1083 l 1136 1083 l 799 422 l 799 0 l 359 0 l 359 422 m 426 1463 q 538 1423 499 1463 q 576 1327 576 1383 q 558 1249 576 1286 q 503 1187 541 1211 q 406 1164 465 1164 q 290 1205 328 1164 q 251 1304 251 1246 q 271 1380 251 1343 q 331 1440 292 1417 q 426 1463 370 1463 m 836 1463 q 949 1423 910 1463 q 987 1327 987 1383 q 970 1249 987 1286 q 915 1187 952 1211 q 818 1164 878 1164 q 702 1205 742 1164 q 663 1304 663 1246 q 683 1380 663 1343 q 742 1440 703 1417 q 836 1463 781 1463 z "},"Ỳ":{"ha":1165,"x_min":29,"x_max":1136,"o":"m 359 422 l 29 1083 l 513 1083 l 621 861 l 732 1083 l 1136 1083 l 799 422 l 799 0 l 359 0 l 359 422 m 543 1594 l 640 1255 q 646 1219 646 1236 q 621 1181 646 1181 q 558 1229 596 1181 l 267 1594 l 543 1594 z "},"Z":{"ha":1251,"x_min":74,"x_max":1171,"o":"m 489 755 l 115 755 l 115 1083 l 1171 1083 l 1171 1000 l 753 310 l 1171 310 l 1171 0 l 74 0 l 74 62 l 489 755 z "},"Ź":{"ha":1251,"x_min":74,"x_max":1171,"o":"m 489 755 l 115 755 l 115 1083 l 1171 1083 l 1171 1000 l 753 310 l 1171 310 l 1171 0 l 74 0 l 74 62 l 489 755 m 997 1594 l 705 1230 q 643 1182 667 1182 q 618 1219 618 1182 q 623 1256 618 1237 l 720 1594 l 997 1594 z "},"Ž":{"ha":1251,"x_min":74,"x_max":1171,"o":"m 489 755 l 115 755 l 115 1083 l 1171 1083 l 1171 1000 l 753 310 l 1171 310 l 1171 0 l 74 0 l 74 62 l 489 755 m 408 1547 q 397 1590 397 1573 q 418 1613 397 1613 q 490 1573 446 1613 l 643 1433 l 798 1573 q 869 1613 841 1613 q 889 1590 889 1613 q 887 1571 889 1581 q 879 1547 886 1560 l 741 1263 q 699 1217 726 1232 q 644 1202 672 1202 q 589 1218 617 1202 q 547 1263 562 1234 l 408 1547 z "},"Ż":{"ha":1251,"x_min":74,"x_max":1171,"o":"m 489 755 l 115 755 l 115 1083 l 1171 1083 l 1171 1000 l 753 310 l 1171 310 l 1171 0 l 74 0 l 74 62 l 489 755 m 685 1621 q 788 1594 747 1621 q 850 1525 829 1567 q 871 1436 871 1483 q 846 1335 871 1384 q 770 1254 821 1286 q 644 1222 720 1222 q 539 1248 580 1222 q 478 1316 498 1274 q 458 1405 458 1358 q 486 1506 458 1456 q 564 1588 513 1556 q 685 1621 614 1621 z "},"a":{"ha":1171,"x_min":57,"x_max":1090,"o":"m 57 383 q 95 585 57 494 q 197 740 132 675 q 345 840 262 805 q 518 875 428 875 q 660 839 591 875 q 771 739 730 804 l 868 843 l 1090 843 l 1090 0 l 868 0 l 771 140 q 631 19 719 63 q 449 -25 543 -25 q 256 19 346 -25 q 112 154 167 64 q 57 383 57 245 m 461 350 q 477 287 461 317 q 528 257 492 257 q 614 278 562 257 q 725 347 667 298 l 725 587 q 671 602 701 602 q 595 578 633 602 q 528 517 558 555 q 479 435 498 479 q 461 350 461 391 z "},"á":{"ha":1171,"x_min":57,"x_max":1090,"o":"m 57 383 q 95 585 57 494 q 197 740 132 675 q 345 840 262 805 q 518 875 428 875 q 660 839 591 875 q 771 739 730 804 l 868 843 l 1090 843 l 1090 0 l 868 0 l 771 140 q 631 19 719 63 q 449 -25 543 -25 q 256 19 346 -25 q 112 154 167 64 q 57 383 57 245 m 461 350 q 477 287 461 317 q 528 257 492 257 q 614 278 562 257 q 725 347 667 298 l 725 587 q 671 602 701 602 q 595 578 633 602 q 528 517 558 555 q 479 435 498 479 q 461 350 461 391 m 969 1383 l 677 1019 q 615 971 640 971 q 590 1008 590 971 q 595 1045 590 1026 l 692 1383 l 969 1383 z "},"ă":{"ha":1171,"x_min":57,"x_max":1090,"o":"m 57 383 q 95 585 57 494 q 197 740 132 675 q 345 840 262 805 q 518 875 428 875 q 660 839 591 875 q 771 739 730 804 l 868 843 l 1090 843 l 1090 0 l 868 0 l 771 140 q 631 19 719 63 q 449 -25 543 -25 q 256 19 346 -25 q 112 154 167 64 q 57 383 57 245 m 461 350 q 477 287 461 317 q 528 257 492 257 q 614 278 562 257 q 725 347 667 298 l 725 587 q 671 602 701 602 q 595 578 633 602 q 528 517 558 555 q 479 435 498 479 q 461 350 461 391 m 1034 1375 q 1007 1221 1034 1295 q 929 1088 981 1147 q 798 996 876 1030 q 615 962 720 962 q 432 996 511 962 q 302 1090 354 1031 q 223 1224 250 1149 q 197 1380 197 1299 l 489 1380 q 521 1254 489 1308 q 615 1199 553 1199 q 709 1252 677 1199 q 741 1375 741 1305 l 1034 1375 z "},"â":{"ha":1171,"x_min":57,"x_max":1090,"o":"m 57 383 q 95 585 57 494 q 197 740 132 675 q 345 840 262 805 q 518 875 428 875 q 660 839 591 875 q 771 739 730 804 l 868 843 l 1090 843 l 1090 0 l 868 0 l 771 140 q 631 19 719 63 q 449 -25 543 -25 q 256 19 346 -25 q 112 154 167 64 q 57 383 57 245 m 461 350 q 477 287 461 317 q 528 257 492 257 q 614 278 562 257 q 725 347 667 298 l 725 587 q 671 602 701 602 q 595 578 633 602 q 528 517 558 555 q 479 435 498 479 q 461 350 461 391 m 519 1345 q 561 1391 533 1375 q 616 1407 588 1407 q 670 1392 644 1407 q 712 1345 696 1377 l 851 1063 q 859 1038 858 1049 q 861 1019 861 1027 q 841 996 861 996 q 769 1036 813 996 l 615 1176 l 462 1036 q 390 996 417 996 q 369 1019 369 996 q 371 1038 369 1027 q 380 1063 374 1049 l 519 1345 z "},"ä":{"ha":1171,"x_min":57,"x_max":1090,"o":"m 57 383 q 95 585 57 494 q 197 740 132 675 q 345 840 262 805 q 518 875 428 875 q 660 839 591 875 q 771 739 730 804 l 868 843 l 1090 843 l 1090 0 l 868 0 l 771 140 q 631 19 719 63 q 449 -25 543 -25 q 256 19 346 -25 q 112 154 167 64 q 57 383 57 245 m 461 350 q 477 287 461 317 q 528 257 492 257 q 614 278 562 257 q 725 347 667 298 l 725 587 q 671 602 701 602 q 595 578 633 602 q 528 517 558 555 q 479 435 498 479 q 461 350 461 391 m 420 1253 q 532 1213 494 1253 q 571 1116 571 1173 q 553 1038 571 1076 q 497 977 535 1000 q 400 953 460 953 q 284 994 323 953 q 245 1093 245 1036 q 266 1169 245 1133 q 326 1229 286 1206 q 420 1253 365 1253 m 831 1253 q 943 1213 905 1253 q 982 1116 982 1173 q 964 1038 982 1076 q 909 977 947 1000 q 812 953 872 953 q 697 994 736 953 q 657 1093 657 1036 q 677 1169 657 1133 q 736 1229 698 1206 q 831 1253 775 1253 z "},"à":{"ha":1171,"x_min":57,"x_max":1090,"o":"m 57 383 q 95 585 57 494 q 197 740 132 675 q 345 840 262 805 q 518 875 428 875 q 660 839 591 875 q 771 739 730 804 l 868 843 l 1090 843 l 1090 0 l 868 0 l 771 140 q 631 19 719 63 q 449 -25 543 -25 q 256 19 346 -25 q 112 154 167 64 q 57 383 57 245 m 461 350 q 477 287 461 317 q 528 257 492 257 q 614 278 562 257 q 725 347 667 298 l 725 587 q 671 602 701 602 q 595 578 633 602 q 528 517 558 555 q 479 435 498 479 q 461 350 461 391 m 537 1383 l 635 1044 q 640 1008 640 1025 q 615 970 640 970 q 553 1018 591 970 l 261 1383 l 537 1383 z "},"ȃ":{"ha":1171,"x_min":57,"x_max":1090,"o":"m 57 383 q 95 585 57 494 q 197 740 132 675 q 345 840 262 805 q 518 875 428 875 q 660 839 591 875 q 771 739 730 804 l 868 843 l 1090 843 l 1090 0 l 868 0 l 771 140 q 631 19 719 63 q 449 -25 543 -25 q 256 19 346 -25 q 112 154 167 64 q 57 383 57 245 m 461 350 q 477 287 461 317 q 528 257 492 257 q 614 278 562 257 q 725 347 667 298 l 725 587 q 671 602 701 602 q 595 578 633 602 q 528 517 558 555 q 479 435 498 479 q 461 350 461 391 m 741 1010 q 727 1079 741 1046 q 685 1134 713 1113 q 615 1156 657 1156 q 521 1111 553 1156 q 489 1010 489 1066 l 239 1010 q 281 1181 239 1100 q 407 1314 323 1263 q 615 1365 490 1365 q 823 1314 740 1365 q 949 1181 907 1262 q 991 1010 991 1099 l 741 1010 z "},"ā":{"ha":1171,"x_min":57,"x_max":1090,"o":"m 57 383 q 95 585 57 494 q 197 740 132 675 q 345 840 262 805 q 518 875 428 875 q 660 839 591 875 q 771 739 730 804 l 868 843 l 1090 843 l 1090 0 l 868 0 l 771 140 q 631 19 719 63 q 449 -25 543 -25 q 256 19 346 -25 q 112 154 167 64 q 57 383 57 245 m 461 350 q 477 287 461 317 q 528 257 492 257 q 614 278 562 257 q 725 347 667 298 l 725 587 q 671 602 701 602 q 595 578 633 602 q 528 517 558 555 q 479 435 498 479 q 461 350 461 391 m 300 1225 l 919 1225 l 919 1023 l 300 1023 l 300 1225 z "},"ą":{"ha":1171,"x_min":57,"x_max":1090,"o":"m 57 383 q 95 585 57 494 q 197 740 132 675 q 345 840 262 805 q 518 875 428 875 q 660 839 591 875 q 771 739 730 804 l 868 843 l 1090 843 l 1090 0 l 868 0 l 771 140 q 631 19 719 63 q 449 -25 543 -25 q 256 19 346 -25 q 112 154 167 64 q 57 383 57 245 m 461 350 q 477 287 461 317 q 528 257 492 257 q 614 278 562 257 q 725 347 667 298 l 725 587 q 671 602 701 602 q 595 578 633 602 q 528 517 558 555 q 479 435 498 479 q 461 350 461 391 m 1027 -361 q 933 -404 988 -387 q 821 -420 878 -420 q 724 -404 770 -420 q 650 -354 678 -388 q 621 -265 621 -319 q 640 -184 621 -224 q 687 -110 659 -144 q 744 -49 715 -75 q 791 -8 772 -23 q 810 7 810 7 l 903 7 q 889 -20 903 7 q 855 -89 874 -47 q 821 -175 836 -130 q 806 -256 806 -220 q 820 -303 806 -285 q 867 -321 833 -321 q 933 -310 903 -321 q 985 -289 964 -299 q 1013 -278 1006 -278 q 1041 -291 1028 -278 q 1053 -319 1053 -303 q 1027 -361 1053 -341 z "},"å":{"ha":1171,"x_min":57,"x_max":1090,"o":"m 57 383 q 95 585 57 494 q 197 740 132 675 q 345 840 262 805 q 518 875 428 875 q 660 839 591 875 q 771 739 730 804 l 868 843 l 1090 843 l 1090 0 l 868 0 l 771 140 q 631 19 719 63 q 449 -25 543 -25 q 256 19 346 -25 q 112 154 167 64 q 57 383 57 245 m 461 350 q 477 287 461 317 q 528 257 492 257 q 614 278 562 257 q 725 347 667 298 l 725 587 q 671 602 701 602 q 595 578 633 602 q 528 517 558 555 q 479 435 498 479 q 461 350 461 391 m 614 973 q 508 997 558 973 q 425 1070 457 1021 q 393 1190 393 1118 q 425 1309 393 1262 q 507 1380 457 1356 q 612 1404 557 1404 q 718 1380 667 1404 q 801 1309 768 1356 q 833 1190 833 1261 q 801 1070 833 1118 q 719 997 769 1021 q 614 973 669 973 m 615 1097 q 687 1126 663 1097 q 711 1189 711 1154 q 686 1252 711 1223 q 612 1282 661 1282 q 540 1254 564 1282 q 516 1192 516 1225 q 541 1127 516 1156 q 615 1097 566 1097 z "},"ã":{"ha":1171,"x_min":57,"x_max":1090,"o":"m 57 383 q 95 585 57 494 q 197 740 132 675 q 345 840 262 805 q 518 875 428 875 q 660 839 591 875 q 771 739 730 804 l 868 843 l 1090 843 l 1090 0 l 868 0 l 771 140 q 631 19 719 63 q 449 -25 543 -25 q 256 19 346 -25 q 112 154 167 64 q 57 383 57 245 m 461 350 q 477 287 461 317 q 528 257 492 257 q 614 278 562 257 q 725 347 667 298 l 725 587 q 671 602 701 602 q 595 578 633 602 q 528 517 558 555 q 479 435 498 479 q 461 350 461 391 m 414 1053 q 370 1043 389 1053 q 338 1023 351 1033 q 318 1013 325 1013 q 305 1023 305 1013 q 327 1166 305 1116 q 388 1237 349 1217 q 473 1257 426 1257 q 595 1239 530 1257 q 721 1204 659 1221 q 831 1186 783 1186 q 875 1197 857 1186 q 907 1217 894 1207 q 928 1227 920 1227 q 939 1217 939 1227 q 918 1073 939 1124 q 861 1001 897 1021 q 779 981 825 981 q 661 999 724 981 q 533 1035 597 1017 q 414 1053 469 1053 z "},"æ":{"ha":1674,"x_min":50,"x_max":1604,"o":"m 1231 876 q 1444 836 1362 876 q 1565 733 1527 796 q 1604 600 1604 670 q 1556 454 1604 525 q 1414 338 1508 384 q 1185 293 1321 293 q 1151 293 1172 293 q 1114 294 1129 294 q 1134 233 1114 252 q 1185 209 1154 214 q 1247 204 1216 204 q 1325 213 1275 204 q 1435 247 1376 222 q 1547 317 1494 271 l 1589 106 q 1387 6 1509 37 q 1132 -25 1264 -25 q 942 11 1034 -25 q 786 119 850 47 q 589 2 673 30 q 441 -25 506 -25 q 250 19 339 -25 q 105 154 160 64 q 50 383 50 245 q 93 585 50 494 q 208 740 135 675 q 374 840 281 805 q 567 875 467 875 q 631 868 591 875 q 718 848 672 861 q 806 813 764 834 q 873 764 848 792 q 1039 848 947 820 q 1231 876 1132 876 m 1221 661 q 1154 628 1173 657 q 1129 553 1135 600 q 1114 449 1124 507 l 1263 482 l 1275 586 q 1276 594 1275 590 q 1276 602 1276 597 q 1221 661 1276 661 m 427 350 q 442 287 427 317 q 493 257 458 257 q 580 278 527 257 q 690 347 633 298 l 690 587 q 637 602 667 602 q 561 578 598 602 q 493 517 524 555 q 445 435 463 479 q 427 350 427 391 z "},"b":{"ha":1175,"x_min":83,"x_max":1124,"o":"m 83 1141 l 478 1141 l 478 743 q 570 808 519 783 q 668 843 620 832 q 750 854 715 854 q 957 797 873 854 q 1082 647 1040 740 q 1124 446 1124 553 q 1106 339 1124 400 q 1046 214 1088 277 q 936 95 1005 150 q 763 7 866 41 q 519 -26 661 -26 q 319 -18 431 -26 q 83 11 208 -9 l 83 1141 m 673 572 q 594 557 631 572 q 526 520 556 541 q 476 484 496 500 l 476 228 l 543 228 q 612 251 578 228 q 676 311 647 273 q 723 393 705 349 q 741 479 741 437 q 725 542 741 511 q 673 572 710 572 z "},"c":{"ha":843,"x_min":50,"x_max":766,"o":"m 766 22 q 647 -12 709 1 q 519 -25 585 -25 q 346 2 430 -25 q 195 82 262 29 q 90 214 129 136 q 50 396 50 293 q 117 648 50 540 q 303 816 184 756 q 578 876 422 876 q 658 870 606 876 q 753 847 710 864 l 753 586 q 729 598 743 595 q 703 602 716 602 q 630 581 668 602 q 561 524 593 560 q 509 443 529 488 q 489 349 489 397 q 501 289 489 309 q 532 263 513 269 q 568 257 551 257 q 605 262 583 257 q 666 288 628 267 q 766 354 705 309 l 766 22 z "},"ć":{"ha":843,"x_min":50,"x_max":804,"o":"m 766 22 q 647 -12 709 1 q 519 -25 585 -25 q 346 2 430 -25 q 195 82 262 29 q 90 214 129 136 q 50 396 50 293 q 117 648 50 540 q 303 816 184 756 q 578 876 422 876 q 658 870 606 876 q 753 847 710 864 l 753 586 q 729 598 743 595 q 703 602 716 602 q 630 581 668 602 q 561 524 593 560 q 509 443 529 488 q 489 349 489 397 q 501 289 489 309 q 532 263 513 269 q 568 257 551 257 q 605 262 583 257 q 666 288 628 267 q 766 354 705 309 l 766 22 m 804 1383 l 513 1019 q 450 971 475 971 q 425 1008 425 971 q 431 1045 425 1026 l 528 1383 l 804 1383 z "},"č":{"ha":843,"x_min":50,"x_max":766,"o":"m 766 22 q 647 -12 709 1 q 519 -25 585 -25 q 346 2 430 -25 q 195 82 262 29 q 90 214 129 136 q 50 396 50 293 q 117 648 50 540 q 303 816 184 756 q 578 876 422 876 q 658 870 606 876 q 753 847 710 864 l 753 586 q 729 598 743 595 q 703 602 716 602 q 630 581 668 602 q 561 524 593 560 q 509 443 529 488 q 489 349 489 397 q 501 289 489 309 q 532 263 513 269 q 568 257 551 257 q 605 262 583 257 q 666 288 628 267 q 766 354 705 309 l 766 22 m 216 1336 q 205 1379 205 1362 q 225 1402 205 1402 q 298 1362 254 1402 l 450 1222 l 605 1362 q 677 1402 648 1402 q 696 1379 696 1402 q 695 1360 696 1371 q 686 1336 693 1350 l 548 1053 q 506 1006 533 1021 q 452 991 479 991 q 397 1007 425 991 q 355 1053 369 1023 l 216 1336 z "},"ç":{"ha":843,"x_min":50,"x_max":766,"o":"m 766 22 q 647 -12 709 1 q 519 -25 585 -25 q 346 2 430 -25 q 195 82 262 29 q 90 214 129 136 q 50 396 50 293 q 117 648 50 540 q 303 816 184 756 q 578 876 422 876 q 658 870 606 876 q 753 847 710 864 l 753 586 q 729 598 743 595 q 703 602 716 602 q 630 581 668 602 q 561 524 593 560 q 509 443 529 488 q 489 349 489 397 q 501 289 489 309 q 532 263 513 269 q 568 257 551 257 q 605 262 583 257 q 666 288 628 267 q 766 354 705 309 l 766 22 m 289 -370 q 262 -328 262 -348 q 275 -299 262 -311 q 303 -286 288 -286 q 330 -297 309 -286 q 382 -318 351 -307 q 449 -329 414 -329 q 489 -319 468 -329 q 510 -285 510 -310 q 473 -238 510 -254 q 391 -222 435 -222 q 397 -198 391 -221 q 413 -143 404 -176 q 432 -77 422 -110 q 448 -22 441 -44 q 454 0 454 0 l 547 0 l 506 -129 l 521 -129 q 572 -134 543 -129 q 629 -154 601 -139 q 676 -198 657 -169 q 694 -273 694 -227 q 666 -362 694 -328 q 592 -412 637 -396 q 494 -428 546 -428 q 383 -412 439 -428 q 289 -370 328 -395 z "},"ĉ":{"ha":843,"x_min":50,"x_max":766,"o":"m 766 22 q 647 -12 709 1 q 519 -25 585 -25 q 346 2 430 -25 q 195 82 262 29 q 90 214 129 136 q 50 396 50 293 q 117 648 50 540 q 303 816 184 756 q 578 876 422 876 q 658 870 606 876 q 753 847 710 864 l 753 586 q 729 598 743 595 q 703 602 716 602 q 630 581 668 602 q 561 524 593 560 q 509 443 529 488 q 489 349 489 397 q 501 289 489 309 q 532 263 513 269 q 568 257 551 257 q 605 262 583 257 q 666 288 628 267 q 766 354 705 309 l 766 22 m 354 1345 q 396 1391 368 1375 q 452 1407 423 1407 q 506 1392 479 1407 q 547 1345 532 1377 l 686 1063 q 694 1038 693 1049 q 696 1019 696 1027 q 676 996 696 996 q 604 1036 648 996 l 450 1176 l 297 1036 q 225 996 252 996 q 204 1019 204 996 q 207 1038 204 1027 q 215 1063 209 1049 l 354 1345 z "},"ċ":{"ha":843,"x_min":50,"x_max":766,"o":"m 766 22 q 647 -12 709 1 q 519 -25 585 -25 q 346 2 430 -25 q 195 82 262 29 q 90 214 129 136 q 50 396 50 293 q 117 648 50 540 q 303 816 184 756 q 578 876 422 876 q 658 870 606 876 q 753 847 710 864 l 753 586 q 729 598 743 595 q 703 602 716 602 q 630 581 668 602 q 561 524 593 560 q 509 443 529 488 q 489 349 489 397 q 501 289 489 309 q 532 263 513 269 q 568 257 551 257 q 605 262 583 257 q 666 288 628 267 q 766 354 705 309 l 766 22 m 492 1410 q 595 1383 554 1410 q 657 1314 637 1356 q 678 1225 678 1272 q 653 1124 678 1173 q 578 1043 628 1075 q 452 1011 528 1011 q 346 1037 387 1011 q 286 1105 305 1063 q 266 1194 266 1147 q 293 1295 266 1245 q 371 1377 320 1345 q 492 1410 422 1410 z "},"d":{"ha":1211,"x_min":50,"x_max":1129,"o":"m 50 379 q 93 601 50 507 q 208 754 136 694 q 369 844 280 815 q 549 873 457 873 q 644 867 597 873 q 734 847 691 861 l 734 1141 l 1129 1141 l 1129 0 l 878 0 l 781 140 q 631 16 717 56 q 454 -24 545 -24 q 306 3 378 -24 q 176 83 233 31 q 84 210 118 135 q 50 379 50 284 m 538 257 q 618 273 581 257 q 685 309 655 288 q 734 346 715 330 l 734 587 q 682 602 711 602 q 608 579 645 602 q 539 518 570 556 q 489 437 508 481 q 471 350 471 393 q 486 288 471 318 q 538 257 501 257 z "},"ď":{"ha":1211,"x_min":50,"x_max":1600,"o":"m 50 379 q 93 601 50 507 q 208 754 136 694 q 369 844 280 815 q 549 873 457 873 q 644 867 597 873 q 734 847 691 861 l 734 1141 l 1129 1141 l 1129 0 l 878 0 l 781 140 q 631 16 717 56 q 454 -24 545 -24 q 306 3 378 -24 q 176 83 233 31 q 84 210 118 135 q 50 379 50 284 m 538 257 q 618 273 581 257 q 685 309 655 288 q 734 346 715 330 l 734 587 q 682 602 711 602 q 608 579 645 602 q 539 518 570 556 q 489 437 508 481 q 471 350 471 393 q 486 288 471 318 q 538 257 501 257 m 1187 720 q 1258 742 1233 720 q 1294 790 1283 763 q 1306 839 1304 818 q 1309 861 1309 861 l 1187 861 l 1187 1147 l 1600 1147 l 1600 873 q 1501 632 1600 719 q 1187 545 1402 545 l 1187 720 z "},"đ":{"ha":1211,"x_min":50,"x_max":1227,"o":"m 608 1026 l 734 1026 l 734 1141 l 1129 1141 l 1129 1026 l 1227 1026 l 1227 925 l 1129 925 l 1129 0 l 878 0 l 781 140 q 631 16 717 56 q 454 -24 545 -24 q 306 3 378 -24 q 176 83 233 31 q 84 210 118 135 q 50 379 50 284 q 93 601 50 507 q 208 754 136 694 q 369 844 280 815 q 549 873 457 873 q 644 867 597 873 q 734 847 691 861 l 734 925 l 608 925 l 608 1026 m 538 257 q 618 273 581 257 q 685 309 655 288 q 734 346 715 330 l 734 587 q 682 602 711 602 q 608 579 645 602 q 539 518 570 556 q 489 437 508 481 q 471 350 471 393 q 486 288 471 318 q 538 257 501 257 z "},"ǳ":{"ha":2217,"x_min":50,"x_max":2157,"o":"m 50 379 q 93 601 50 507 q 208 754 136 694 q 369 844 280 815 q 549 873 457 873 q 644 867 597 873 q 734 847 691 861 l 734 1141 l 1129 1141 l 1129 0 l 878 0 l 781 140 q 631 16 717 56 q 454 -24 545 -24 q 306 3 378 -24 q 176 83 233 31 q 84 210 118 135 q 50 379 50 284 m 538 257 q 618 273 581 257 q 685 309 655 288 q 734 346 715 330 l 734 587 q 682 602 711 602 q 608 579 645 602 q 539 518 570 556 q 489 437 508 481 q 471 350 471 393 q 486 288 471 318 q 538 257 501 257 m 1610 587 l 1317 587 l 1317 843 l 2157 843 l 2157 781 l 1829 241 l 2157 241 l 2157 0 l 1285 0 l 1285 46 l 1610 587 z "},"ǆ":{"ha":2217,"x_min":50,"x_max":2157,"o":"m 50 379 q 93 601 50 507 q 208 754 136 694 q 369 844 280 815 q 549 873 457 873 q 644 867 597 873 q 734 847 691 861 l 734 1141 l 1129 1141 l 1129 0 l 878 0 l 781 140 q 631 16 717 56 q 454 -24 545 -24 q 306 3 378 -24 q 176 83 233 31 q 84 210 118 135 q 50 379 50 284 m 538 257 q 618 273 581 257 q 685 309 655 288 q 734 346 715 330 l 734 587 q 682 602 711 602 q 608 579 645 602 q 539 518 570 556 q 489 437 508 481 q 471 350 471 393 q 486 288 471 318 q 538 257 501 257 m 1610 587 l 1317 587 l 1317 843 l 2157 843 l 2157 781 l 1829 241 l 2157 241 l 2157 0 l 1285 0 l 1285 46 l 1610 587 m 1499 1336 q 1488 1379 1488 1362 q 1508 1402 1488 1402 q 1581 1362 1537 1402 l 1733 1222 l 1888 1362 q 1960 1402 1931 1402 q 1980 1379 1980 1402 q 1978 1360 1980 1371 q 1969 1336 1976 1350 l 1831 1053 q 1789 1006 1816 1021 q 1735 991 1763 991 q 1680 1007 1708 991 q 1638 1053 1652 1023 l 1499 1336 z "},"ð":{"ha":1128,"x_min":50,"x_max":1076,"o":"m 374 749 l 408 867 q 287 857 347 867 q 179 833 227 848 l 140 1039 q 256 1064 204 1055 q 358 1078 308 1074 q 467 1083 408 1083 l 473 1083 l 526 1258 l 667 1231 l 618 1067 q 853 962 749 1038 q 1016 766 956 885 q 1076 493 1076 648 q 1030 258 1076 356 q 905 97 984 159 q 726 5 825 35 q 519 -25 627 -25 q 358 -8 441 -25 q 206 51 276 9 q 93 163 136 92 q 50 343 50 235 q 85 494 50 432 q 180 594 121 556 q 312 649 239 632 q 462 667 386 667 q 584 657 524 667 q 697 629 644 647 q 656 770 697 719 q 551 844 615 821 l 515 721 l 374 749 m 496 196 q 576 212 538 196 q 643 248 613 227 q 693 285 673 269 l 693 471 q 667 483 680 481 q 640 485 654 485 q 566 467 604 485 q 498 420 529 449 q 448 357 467 391 q 429 289 429 322 q 444 226 429 256 q 496 196 459 196 z "},"e":{"ha":1021,"x_min":50,"x_max":961,"o":"m 489 -25 q 329 1 407 -25 q 188 78 251 26 q 87 204 125 129 q 50 379 50 279 q 95 596 50 503 q 215 752 139 690 q 387 845 291 814 q 587 876 484 876 q 801 836 719 876 q 922 733 884 796 q 961 600 961 670 q 913 454 961 525 q 771 338 865 384 q 542 293 678 293 q 508 293 529 293 q 471 294 486 294 q 491 233 471 252 q 542 209 511 214 q 604 204 573 204 q 683 213 632 204 q 792 247 733 222 q 904 317 851 271 l 946 106 q 744 6 866 37 q 489 -25 621 -25 m 471 449 l 619 482 l 632 586 q 633 594 632 590 q 633 602 633 597 q 578 661 633 661 q 511 628 530 657 q 486 553 492 600 q 471 449 481 507 z "},"é":{"ha":1021,"x_min":50,"x_max":961,"o":"m 489 -25 q 329 1 407 -25 q 188 78 251 26 q 87 204 125 129 q 50 379 50 279 q 95 596 50 503 q 215 752 139 690 q 387 845 291 814 q 587 876 484 876 q 801 836 719 876 q 922 733 884 796 q 961 600 961 670 q 913 454 961 525 q 771 338 865 384 q 542 293 678 293 q 508 293 529 293 q 471 294 486 294 q 491 233 471 252 q 542 209 511 214 q 604 204 573 204 q 683 213 632 204 q 792 247 733 222 q 904 317 851 271 l 946 106 q 744 6 866 37 q 489 -25 621 -25 m 471 449 l 619 482 l 632 586 q 633 594 632 590 q 633 602 633 597 q 578 661 633 661 q 511 628 530 657 q 486 553 492 600 q 471 449 481 507 m 904 1382 l 612 1017 q 550 970 574 970 q 525 1007 525 970 q 530 1044 525 1025 l 627 1382 l 904 1382 z "},"ě":{"ha":1021,"x_min":50,"x_max":961,"o":"m 489 -25 q 329 1 407 -25 q 188 78 251 26 q 87 204 125 129 q 50 379 50 279 q 95 596 50 503 q 215 752 139 690 q 387 845 291 814 q 587 876 484 876 q 801 836 719 876 q 922 733 884 796 q 961 600 961 670 q 913 454 961 525 q 771 338 865 384 q 542 293 678 293 q 508 293 529 293 q 471 294 486 294 q 491 233 471 252 q 542 209 511 214 q 604 204 573 204 q 683 213 632 204 q 792 247 733 222 q 904 317 851 271 l 946 106 q 744 6 866 37 q 489 -25 621 -25 m 471 449 l 619 482 l 632 586 q 633 594 632 590 q 633 602 633 597 q 578 661 633 661 q 511 628 530 657 q 486 553 492 600 q 471 449 481 507 m 315 1335 q 304 1377 304 1360 q 325 1401 304 1401 q 397 1361 353 1401 l 550 1221 l 705 1361 q 777 1401 748 1401 q 796 1377 796 1401 q 794 1359 796 1369 q 786 1335 793 1348 l 648 1051 q 606 1005 633 1020 q 551 990 579 990 q 496 1006 524 990 q 454 1051 469 1022 l 315 1335 z "},"ê":{"ha":1021,"x_min":50,"x_max":961,"o":"m 489 -25 q 329 1 407 -25 q 188 78 251 26 q 87 204 125 129 q 50 379 50 279 q 95 596 50 503 q 215 752 139 690 q 387 845 291 814 q 587 876 484 876 q 801 836 719 876 q 922 733 884 796 q 961 600 961 670 q 913 454 961 525 q 771 338 865 384 q 542 293 678 293 q 508 293 529 293 q 471 294 486 294 q 491 233 471 252 q 542 209 511 214 q 604 204 573 204 q 683 213 632 204 q 792 247 733 222 q 904 317 851 271 l 946 106 q 744 6 866 37 q 489 -25 621 -25 m 471 449 l 619 482 l 632 586 q 633 594 632 590 q 633 602 633 597 q 578 661 633 661 q 511 628 530 657 q 486 553 492 600 q 471 449 481 507 m 454 1344 q 495 1390 468 1374 q 551 1405 523 1405 q 605 1391 579 1405 q 647 1344 631 1376 l 786 1061 q 794 1037 793 1048 q 795 1018 795 1026 q 776 994 795 994 q 704 1035 748 994 l 550 1175 l 397 1035 q 325 994 352 994 q 304 1018 304 994 q 306 1037 304 1026 q 315 1061 309 1048 l 454 1344 z "},"ë":{"ha":1021,"x_min":50,"x_max":961,"o":"m 489 -25 q 329 1 407 -25 q 188 78 251 26 q 87 204 125 129 q 50 379 50 279 q 95 596 50 503 q 215 752 139 690 q 387 845 291 814 q 587 876 484 876 q 801 836 719 876 q 922 733 884 796 q 961 600 961 670 q 913 454 961 525 q 771 338 865 384 q 542 293 678 293 q 508 293 529 293 q 471 294 486 294 q 491 233 471 252 q 542 209 511 214 q 604 204 573 204 q 683 213 632 204 q 792 247 733 222 q 904 317 851 271 l 946 106 q 744 6 866 37 q 489 -25 621 -25 m 471 449 l 619 482 l 632 586 q 633 594 632 590 q 633 602 633 597 q 578 661 633 661 q 511 628 530 657 q 486 553 492 600 q 471 449 481 507 m 355 1251 q 467 1211 429 1251 q 506 1115 506 1171 q 488 1037 506 1074 q 432 975 470 999 q 335 951 395 951 q 219 993 258 951 q 180 1092 180 1034 q 201 1168 180 1131 q 260 1228 221 1204 q 355 1251 300 1251 m 766 1251 q 878 1211 840 1251 q 917 1115 917 1171 q 899 1037 917 1074 q 844 975 882 999 q 747 951 807 951 q 632 993 671 951 q 592 1092 592 1034 q 612 1168 592 1131 q 671 1228 633 1204 q 766 1251 710 1251 z "},"ė":{"ha":1021,"x_min":50,"x_max":961,"o":"m 489 -25 q 329 1 407 -25 q 188 78 251 26 q 87 204 125 129 q 50 379 50 279 q 95 596 50 503 q 215 752 139 690 q 387 845 291 814 q 587 876 484 876 q 801 836 719 876 q 922 733 884 796 q 961 600 961 670 q 913 454 961 525 q 771 338 865 384 q 542 293 678 293 q 508 293 529 293 q 471 294 486 294 q 491 233 471 252 q 542 209 511 214 q 604 204 573 204 q 683 213 632 204 q 792 247 733 222 q 904 317 851 271 l 946 106 q 744 6 866 37 q 489 -25 621 -25 m 471 449 l 619 482 l 632 586 q 633 594 632 590 q 633 602 633 597 q 578 661 633 661 q 511 628 530 657 q 486 553 492 600 q 471 449 481 507 m 592 1409 q 695 1382 654 1409 q 757 1313 736 1355 q 778 1223 778 1271 q 753 1123 778 1172 q 677 1042 728 1074 q 551 1010 627 1010 q 446 1036 487 1010 q 385 1103 405 1061 q 366 1193 366 1145 q 393 1294 366 1244 q 471 1376 420 1343 q 592 1409 522 1409 z "},"è":{"ha":1021,"x_min":50,"x_max":961,"o":"m 489 -25 q 329 1 407 -25 q 188 78 251 26 q 87 204 125 129 q 50 379 50 279 q 95 596 50 503 q 215 752 139 690 q 387 845 291 814 q 587 876 484 876 q 801 836 719 876 q 922 733 884 796 q 961 600 961 670 q 913 454 961 525 q 771 338 865 384 q 542 293 678 293 q 508 293 529 293 q 471 294 486 294 q 491 233 471 252 q 542 209 511 214 q 604 204 573 204 q 683 213 632 204 q 792 247 733 222 q 904 317 851 271 l 946 106 q 744 6 866 37 q 489 -25 621 -25 m 471 449 l 619 482 l 632 586 q 633 594 632 590 q 633 602 633 597 q 578 661 633 661 q 511 628 530 657 q 486 553 492 600 q 471 449 481 507 m 472 1381 l 570 1043 q 575 1006 575 1024 q 550 969 575 969 q 488 1017 526 969 l 196 1381 l 472 1381 z "},"ȇ":{"ha":1021,"x_min":50,"x_max":961,"o":"m 489 -25 q 329 1 407 -25 q 188 78 251 26 q 87 204 125 129 q 50 379 50 279 q 95 596 50 503 q 215 752 139 690 q 387 845 291 814 q 587 876 484 876 q 801 836 719 876 q 922 733 884 796 q 961 600 961 670 q 913 454 961 525 q 771 338 865 384 q 542 293 678 293 q 508 293 529 293 q 471 294 486 294 q 491 233 471 252 q 542 209 511 214 q 604 204 573 204 q 683 213 632 204 q 792 247 733 222 q 904 317 851 271 l 946 106 q 744 6 866 37 q 489 -25 621 -25 m 471 449 l 619 482 l 632 586 q 633 594 632 590 q 633 602 633 597 q 578 661 633 661 q 511 628 530 657 q 486 553 492 600 q 471 449 481 507 m 675 1008 q 662 1078 675 1044 q 620 1133 648 1112 q 550 1154 592 1154 q 456 1109 488 1154 q 424 1008 424 1065 l 174 1008 q 216 1180 174 1099 q 341 1313 258 1261 q 550 1364 425 1364 q 758 1312 675 1364 q 884 1179 842 1261 q 926 1008 926 1098 l 675 1008 z "},"ē":{"ha":1021,"x_min":50,"x_max":961,"o":"m 489 -25 q 329 1 407 -25 q 188 78 251 26 q 87 204 125 129 q 50 379 50 279 q 95 596 50 503 q 215 752 139 690 q 387 845 291 814 q 587 876 484 876 q 801 836 719 876 q 922 733 884 796 q 961 600 961 670 q 913 454 961 525 q 771 338 865 384 q 542 293 678 293 q 508 293 529 293 q 471 294 486 294 q 491 233 471 252 q 542 209 511 214 q 604 204 573 204 q 683 213 632 204 q 792 247 733 222 q 904 317 851 271 l 946 106 q 744 6 866 37 q 489 -25 621 -25 m 471 449 l 619 482 l 632 586 q 633 594 632 590 q 633 602 633 597 q 578 661 633 661 q 511 628 530 657 q 486 553 492 600 q 471 449 481 507 m 235 1223 l 854 1223 l 854 1022 l 235 1022 l 235 1223 z "},"ę":{"ha":1021,"x_min":50,"x_max":961,"o":"m 489 -25 q 329 1 407 -25 q 188 78 251 26 q 87 204 125 129 q 50 379 50 279 q 95 596 50 503 q 215 752 139 690 q 387 845 291 814 q 587 876 484 876 q 801 836 719 876 q 922 733 884 796 q 961 600 961 670 q 913 454 961 525 q 771 338 865 384 q 542 293 678 293 q 508 293 529 293 q 471 294 486 294 q 491 233 471 252 q 542 209 511 214 q 604 204 573 204 q 683 213 632 204 q 792 247 733 222 q 904 317 851 271 l 946 106 q 744 6 866 37 q 489 -25 621 -25 m 471 449 l 619 482 l 632 586 q 633 594 632 590 q 633 602 633 597 q 578 661 633 661 q 511 628 530 657 q 486 553 492 600 q 471 449 481 507 m 892 -361 q 799 -404 854 -387 q 687 -420 743 -420 q 590 -404 635 -420 q 515 -354 544 -388 q 487 -265 487 -319 q 506 -184 487 -224 q 553 -110 525 -144 q 609 -49 581 -75 q 656 -8 637 -23 q 675 7 675 7 l 769 7 q 754 -20 769 7 q 721 -89 740 -47 q 686 -175 701 -130 q 671 -256 671 -220 q 685 -303 671 -285 q 732 -321 699 -321 q 799 -310 768 -321 q 851 -289 830 -299 q 878 -278 872 -278 q 906 -291 894 -278 q 919 -319 919 -303 q 892 -361 919 -341 z "},"f":{"ha":761,"x_min":46,"x_max":721,"o":"m 46 843 l 123 843 l 123 986 q 166 1119 123 1064 q 280 1202 209 1173 q 436 1231 351 1231 q 588 1213 513 1231 q 720 1161 662 1195 l 720 958 q 654 968 684 968 q 562 931 590 968 q 529 843 533 895 l 721 843 l 721 628 l 529 628 l 529 0 l 123 0 l 123 628 l 46 628 l 46 843 z "},"g":{"ha":1154,"x_min":50,"x_max":1079,"o":"m 730 104 q 595 7 671 40 q 437 -25 519 -25 q 247 20 335 -25 q 104 158 158 66 q 50 387 50 250 q 87 588 50 498 q 188 742 124 678 q 335 841 252 806 q 507 875 417 875 q 649 839 580 875 q 760 739 718 804 l 857 843 l 1079 843 l 1079 0 q 1040 -181 1079 -109 q 937 -296 1002 -254 q 791 -358 871 -339 q 625 -376 710 -376 q 503 -369 563 -376 q 389 -347 442 -361 l 389 -107 q 464 -119 423 -111 q 546 -126 505 -126 q 637 -108 595 -126 q 705 -40 679 -90 q 730 104 730 9 m 517 257 q 597 273 559 257 q 664 309 634 288 q 714 346 694 330 l 714 587 q 661 602 690 602 q 587 579 624 602 q 518 518 549 556 q 469 437 488 481 q 450 350 450 393 q 465 288 450 318 q 517 257 480 257 z "},"ǵ":{"ha":1154,"x_min":50,"x_max":1079,"o":"m 730 104 q 595 7 671 40 q 437 -25 519 -25 q 247 20 335 -25 q 104 158 158 66 q 50 387 50 250 q 87 588 50 498 q 188 742 124 678 q 335 841 252 806 q 507 875 417 875 q 649 839 580 875 q 760 739 718 804 l 857 843 l 1079 843 l 1079 0 q 1040 -181 1079 -109 q 937 -296 1002 -254 q 791 -358 871 -339 q 625 -376 710 -376 q 503 -369 563 -376 q 389 -347 442 -361 l 389 -107 q 464 -119 423 -111 q 546 -126 505 -126 q 637 -108 595 -126 q 705 -40 679 -90 q 730 104 730 9 m 517 257 q 597 273 559 257 q 664 309 634 288 q 714 346 694 330 l 714 587 q 661 602 690 602 q 587 579 624 602 q 518 518 549 556 q 469 437 488 481 q 450 350 450 393 q 465 288 450 318 q 517 257 480 257 m 866 1382 l 574 1017 q 512 970 536 970 q 487 1007 487 970 q 492 1044 487 1025 l 589 1382 l 866 1382 z "},"ğ":{"ha":1154,"x_min":50,"x_max":1079,"o":"m 730 104 q 595 7 671 40 q 437 -25 519 -25 q 247 20 335 -25 q 104 158 158 66 q 50 387 50 250 q 87 588 50 498 q 188 742 124 678 q 335 841 252 806 q 507 875 417 875 q 649 839 580 875 q 760 739 718 804 l 857 843 l 1079 843 l 1079 0 q 1040 -181 1079 -109 q 937 -296 1002 -254 q 791 -358 871 -339 q 625 -376 710 -376 q 503 -369 563 -376 q 389 -347 442 -361 l 389 -107 q 464 -119 423 -111 q 546 -126 505 -126 q 637 -108 595 -126 q 705 -40 679 -90 q 730 104 730 9 m 517 257 q 597 273 559 257 q 664 309 634 288 q 714 346 694 330 l 714 587 q 661 602 690 602 q 587 579 624 602 q 518 518 549 556 q 469 437 488 481 q 450 350 450 393 q 465 288 450 318 q 517 257 480 257 m 930 1374 q 904 1220 930 1294 q 826 1087 878 1145 q 695 995 773 1029 q 512 960 616 960 q 329 995 408 960 q 199 1089 251 1029 q 120 1223 146 1148 q 94 1379 94 1298 l 386 1379 q 418 1252 386 1307 q 512 1198 450 1198 q 606 1251 574 1198 q 637 1374 637 1304 l 930 1374 z "},"ģ":{"ha":1154,"x_min":50,"x_max":1079,"o":"m 719 1360 q 648 1339 673 1360 q 612 1291 623 1318 q 599 1243 602 1264 q 597 1219 597 1221 l 719 1219 l 719 933 l 306 933 l 306 1207 q 405 1448 306 1361 q 719 1535 503 1535 l 719 1360 m 730 104 q 595 7 671 40 q 437 -25 519 -25 q 247 20 335 -25 q 104 158 158 66 q 50 387 50 250 q 87 588 50 498 q 188 742 124 678 q 335 841 252 806 q 507 875 417 875 q 649 839 580 875 q 760 739 718 804 l 857 843 l 1079 843 l 1079 0 q 1040 -181 1079 -109 q 937 -296 1002 -254 q 791 -358 871 -339 q 625 -376 710 -376 q 503 -369 563 -376 q 389 -347 442 -361 l 389 -107 q 464 -119 423 -111 q 546 -126 505 -126 q 637 -108 595 -126 q 705 -40 679 -90 q 730 104 730 9 m 517 257 q 597 273 559 257 q 664 309 634 288 q 714 346 694 330 l 714 587 q 661 602 690 602 q 587 579 624 602 q 518 518 549 556 q 469 437 488 481 q 450 350 450 393 q 465 288 450 318 q 517 257 480 257 z "},"ġ":{"ha":1154,"x_min":50,"x_max":1079,"o":"m 730 104 q 595 7 671 40 q 437 -25 519 -25 q 247 20 335 -25 q 104 158 158 66 q 50 387 50 250 q 87 588 50 498 q 188 742 124 678 q 335 841 252 806 q 507 875 417 875 q 649 839 580 875 q 760 739 718 804 l 857 843 l 1079 843 l 1079 0 q 1040 -181 1079 -109 q 937 -296 1002 -254 q 791 -358 871 -339 q 625 -376 710 -376 q 503 -369 563 -376 q 389 -347 442 -361 l 389 -107 q 464 -119 423 -111 q 546 -126 505 -126 q 637 -108 595 -126 q 705 -40 679 -90 q 730 104 730 9 m 517 257 q 597 273 559 257 q 664 309 634 288 q 714 346 694 330 l 714 587 q 661 602 690 602 q 587 579 624 602 q 518 518 549 556 q 469 437 488 481 q 450 350 450 393 q 465 288 450 318 q 517 257 480 257 m 554 1409 q 657 1382 616 1409 q 719 1313 699 1355 q 740 1223 740 1271 q 715 1123 740 1172 q 640 1042 690 1074 q 513 1010 589 1010 q 408 1036 449 1010 q 347 1103 367 1061 q 328 1193 328 1145 q 355 1294 328 1244 q 433 1376 382 1343 q 554 1409 484 1409 z "},"h":{"ha":1149,"x_min":82,"x_max":1074,"o":"m 82 0 l 82 1141 l 485 1141 l 485 753 q 600 843 529 811 q 747 875 670 875 q 912 832 838 875 q 1030 710 986 790 q 1074 519 1074 631 l 1074 0 l 668 0 l 668 366 q 632 547 668 478 q 550 615 596 615 q 500 590 515 615 q 485 526 485 564 l 485 0 l 82 0 z "},"ħ":{"ha":1118,"x_min":-7,"x_max":1090,"o":"m -7 1044 l 99 1044 l 99 1141 l 502 1141 l 502 1044 l 612 1044 l 612 906 l 502 906 l 502 753 q 616 843 546 811 q 764 875 687 875 q 929 832 855 875 q 1047 710 1003 790 q 1090 519 1090 631 l 1090 0 l 685 0 l 685 366 q 649 547 685 478 q 567 615 613 615 q 517 590 532 615 q 502 526 502 564 l 502 0 l 99 0 l 99 906 l -7 906 l -7 1044 z "},"i":{"ha":557,"x_min":72,"x_max":486,"o":"m 298 1234 q 440 1190 395 1234 q 486 1090 486 1147 q 460 1007 486 1048 q 384 940 434 966 q 261 913 334 913 q 114 955 157 913 q 72 1051 72 998 q 97 1136 72 1095 q 173 1206 122 1178 q 298 1234 223 1234 m 475 0 l 82 0 l 82 843 l 475 843 l 475 0 z "},"ı":{"ha":475,"x_min":41,"x_max":433,"o":"m 433 0 l 41 0 l 41 843 l 433 843 l 433 0 z "},"í":{"ha":475,"x_min":41,"x_max":595,"o":"m 433 0 l 41 0 l 41 843 l 433 843 l 433 0 m 595 1383 l 303 1019 q 241 971 265 971 q 216 1008 216 971 q 221 1045 216 1026 l 318 1383 l 595 1383 z "},"î":{"ha":475,"x_min":-5,"x_max":486,"o":"m 433 0 l 41 0 l 41 843 l 433 843 l 433 0 m 144 1345 q 186 1391 159 1375 q 242 1407 214 1407 q 296 1392 270 1407 q 338 1345 322 1377 l 477 1063 q 485 1038 484 1049 q 486 1019 486 1027 q 467 996 486 996 q 395 1036 439 996 l 241 1176 l 87 1036 q 16 996 43 996 q -5 1019 -5 996 q -3 1038 -5 1027 q 5 1063 -1 1049 l 144 1345 z "},"ï":{"ha":475,"x_min":-130,"x_max":607,"o":"m 433 0 l 41 0 l 41 843 l 433 843 l 433 0 m 45 1253 q 157 1213 119 1253 q 196 1116 196 1173 q 178 1038 196 1076 q 122 977 160 1000 q 25 953 85 953 q -91 994 -52 953 q -130 1093 -130 1036 q -109 1169 -130 1133 q -50 1229 -89 1206 q 45 1253 -10 1253 m 456 1253 q 568 1213 530 1253 q 607 1116 607 1173 q 589 1038 607 1076 q 534 977 572 1000 q 437 953 497 953 q 322 994 361 953 q 282 1093 282 1036 q 302 1169 282 1133 q 361 1229 323 1206 q 456 1253 400 1253 z "},"ì":{"ha":475,"x_min":-114,"x_max":433,"o":"m 433 0 l 41 0 l 41 843 l 433 843 l 433 0 m 162 1383 l 260 1044 q 265 1008 265 1025 q 240 970 265 970 q 178 1018 216 970 l -114 1383 l 162 1383 z "},"ȋ":{"ha":475,"x_min":-136,"x_max":616,"o":"m 433 0 l 41 0 l 41 843 l 433 843 l 433 0 m 366 1010 q 352 1079 366 1046 q 310 1134 338 1113 q 240 1156 282 1156 q 146 1111 178 1156 q 114 1010 114 1066 l -136 1010 q -94 1181 -136 1100 q 32 1314 -52 1263 q 240 1365 115 1365 q 448 1314 365 1365 q 574 1181 532 1262 q 616 1010 616 1099 l 366 1010 z "},"ī":{"ha":475,"x_min":-75,"x_max":544,"o":"m 433 0 l 41 0 l 41 843 l 433 843 l 433 0 m -75 1225 l 544 1225 l 544 1023 l -75 1023 l -75 1225 z "},"į":{"ha":539,"x_min":54,"x_max":486,"o":"m 298 1234 q 440 1190 395 1234 q 486 1090 486 1147 q 460 1007 486 1048 q 384 940 434 966 q 261 913 334 913 q 114 955 157 913 q 72 1051 72 998 q 97 1136 72 1095 q 173 1206 122 1178 q 298 1234 223 1234 m 475 0 l 82 0 l 82 843 l 475 843 l 475 0 m 460 -368 q 366 -410 421 -394 q 254 -427 311 -427 q 157 -411 203 -427 q 83 -360 111 -395 q 54 -272 54 -326 q 73 -191 54 -231 q 120 -117 92 -151 q 177 -56 149 -82 q 224 -15 205 -30 q 243 0 243 0 l 336 0 q 322 -27 336 0 q 288 -95 307 -54 q 254 -182 269 -137 q 239 -262 239 -227 q 253 -310 239 -292 q 300 -328 267 -328 q 367 -317 336 -328 q 418 -295 397 -306 q 446 -285 439 -285 q 474 -297 461 -285 q 486 -326 486 -310 q 460 -368 486 -348 z "},"ĩ":{"ha":475,"x_min":-70,"x_max":564,"o":"m 433 0 l 41 0 l 41 843 l 433 843 l 433 0 m 39 1053 q -5 1043 14 1053 q -37 1023 -24 1033 q -57 1013 -50 1013 q -70 1023 -70 1013 q -48 1166 -70 1116 q 13 1237 -26 1217 q 98 1257 51 1257 q 220 1239 155 1257 q 346 1204 284 1221 q 456 1186 408 1186 q 500 1197 481 1186 q 532 1217 519 1207 q 553 1227 545 1227 q 564 1217 564 1227 q 543 1073 564 1124 q 486 1001 522 1021 q 404 981 450 981 q 286 999 349 981 q 158 1035 222 1017 q 39 1053 94 1053 z "},"ĳ":{"ha":1246,"x_min":72,"x_max":1177,"o":"m 298 1234 q 440 1190 395 1234 q 486 1090 486 1147 q 460 1007 486 1048 q 384 940 434 966 q 261 913 334 913 q 114 955 157 913 q 72 1051 72 998 q 97 1136 72 1095 q 173 1206 122 1178 q 298 1234 223 1234 m 475 0 l 82 0 l 82 843 l 475 843 l 475 0 m 990 1234 q 1132 1190 1086 1234 q 1177 1090 1177 1147 q 1151 1007 1177 1048 q 1075 940 1125 966 q 953 913 1025 913 q 806 955 848 913 q 764 1051 764 998 q 789 1136 764 1095 q 864 1206 814 1178 q 990 1234 915 1234 m 579 47 q 650 36 606 36 q 703 64 675 36 q 750 134 730 93 q 769 215 769 176 l 769 843 l 1175 843 l 1175 75 q 1132 -86 1175 -19 q 1019 -190 1090 -154 q 863 -225 948 -225 q 711 -199 785 -225 q 579 -127 637 -174 l 579 47 z "},"j":{"ha":689,"x_min":22,"x_max":621,"o":"m 433 1234 q 575 1190 529 1234 q 621 1090 621 1147 q 594 1007 621 1048 q 518 940 568 966 q 396 913 469 913 q 249 955 292 913 q 207 1051 207 998 q 232 1136 207 1095 q 308 1206 257 1178 q 433 1234 358 1234 m 22 47 q 93 36 50 36 q 146 64 118 36 q 193 134 174 93 q 212 215 212 176 l 212 843 l 618 843 l 618 75 q 575 -86 618 -19 q 462 -190 533 -154 q 306 -225 391 -225 q 155 -199 229 -225 q 22 -127 81 -174 l 22 47 z "},"ȷ":{"ha":654,"x_min":21,"x_max":616,"o":"m 21 47 q 92 36 48 36 q 144 64 117 36 q 192 134 172 93 q 211 215 211 176 l 211 843 l 616 843 l 616 75 q 574 -86 616 -19 q 461 -190 532 -154 q 304 -225 390 -225 q 153 -199 227 -225 q 21 -127 79 -174 l 21 47 z "},"ĵ":{"ha":654,"x_min":21,"x_max":654,"o":"m 21 47 q 92 36 48 36 q 144 64 117 36 q 192 134 172 93 q 211 215 211 176 l 211 843 l 616 843 l 616 75 q 574 -86 616 -19 q 461 -190 532 -154 q 304 -225 390 -225 q 153 -199 227 -225 q 21 -127 79 -174 l 21 47 m 313 1345 q 354 1391 327 1375 q 410 1407 382 1407 q 464 1392 438 1407 q 506 1345 490 1377 l 645 1063 q 653 1038 652 1049 q 654 1019 654 1027 q 635 996 654 996 q 563 1036 607 996 l 409 1176 l 256 1036 q 184 996 211 996 q 163 1019 163 996 q 165 1038 163 1027 q 174 1063 168 1049 l 313 1345 z "},"k":{"ha":1047,"x_min":83,"x_max":1036,"o":"m 435 1141 l 435 591 l 595 843 l 994 843 l 734 475 l 1036 0 l 623 0 l 453 273 q 447 262 450 269 q 441 250 443 256 l 441 0 l 83 0 l 83 1141 l 435 1141 z "},"ķ":{"ha":1047,"x_min":83,"x_max":1036,"o":"m 435 1141 l 435 591 l 595 843 l 994 843 l 734 475 l 1036 0 l 623 0 l 453 273 q 447 262 450 269 q 441 250 443 256 l 441 0 l 83 0 l 83 1141 l 435 1141 m 291 -518 q 362 -497 337 -518 q 398 -450 387 -477 q 411 -401 408 -422 q 413 -378 413 -380 l 291 -378 l 291 -92 l 704 -92 l 704 -366 q 605 -606 704 -519 q 291 -693 507 -693 l 291 -518 z "},"ĸ":{"ha":1055,"x_min":83,"x_max":1036,"o":"m 435 843 l 435 578 l 595 843 l 994 843 l 726 453 l 1036 0 l 623 0 l 441 282 l 441 0 l 83 0 l 83 843 l 435 843 z "},"l":{"ha":550,"x_min":83,"x_max":468,"o":"m 468 0 l 83 0 l 83 1141 l 468 1141 l 468 0 z "},"ĺ":{"ha":550,"x_min":83,"x_max":633,"o":"m 468 0 l 83 0 l 83 1141 l 468 1141 l 468 0 m 633 1634 l 342 1269 q 279 1221 304 1221 q 254 1259 254 1221 q 260 1295 254 1276 l 357 1634 l 633 1634 z "},"ľ":{"ha":550,"x_min":83,"x_max":931,"o":"m 468 0 l 83 0 l 83 1141 l 468 1141 l 468 0 m 518 701 q 589 722 564 701 q 625 771 614 743 q 638 820 635 798 q 640 841 640 841 l 518 841 l 518 1127 l 931 1127 l 931 853 q 832 612 931 699 q 518 526 734 526 l 518 701 z "},"ļ":{"ha":550,"x_min":68,"x_max":481,"o":"m 468 0 l 83 0 l 83 1141 l 468 1141 l 468 0 m 68 -518 q 140 -497 115 -518 q 175 -450 165 -477 q 188 -401 186 -422 q 191 -378 191 -380 l 68 -378 l 68 -92 l 481 -92 l 481 -366 q 383 -606 481 -519 q 68 -693 284 -693 l 68 -518 z "},"ŀ":{"ha":920,"x_min":83,"x_max":933,"o":"m 468 0 l 83 0 l 83 1141 l 468 1141 l 468 0 m 747 844 q 850 818 809 844 q 912 749 892 791 q 933 660 933 707 q 908 558 933 608 q 833 477 883 509 q 707 446 783 446 q 601 471 642 446 q 541 539 560 497 q 521 629 521 581 q 548 730 521 680 q 626 812 575 779 q 747 844 677 844 z "},"ǉ":{"ha":1239,"x_min":83,"x_max":1171,"o":"m 468 0 l 83 0 l 83 1141 l 468 1141 l 468 0 m 983 1234 q 1125 1190 1079 1234 q 1171 1090 1171 1147 q 1144 1007 1171 1048 q 1068 940 1118 966 q 946 913 1019 913 q 799 955 842 913 q 757 1051 757 998 q 782 1136 757 1095 q 858 1206 807 1178 q 983 1234 908 1234 m 572 47 q 643 36 600 36 q 696 64 668 36 q 743 134 724 93 q 762 215 762 176 l 762 843 l 1168 843 l 1168 75 q 1125 -86 1168 -19 q 1012 -190 1083 -154 q 856 -225 941 -225 q 705 -199 779 -225 q 572 -127 631 -174 l 572 47 z "},"ł":{"ha":503,"x_min":-37,"x_max":591,"o":"m 468 798 l 591 842 l 591 590 l 468 546 l 468 0 l 83 0 l 83 410 l -37 367 l -37 618 l 83 660 l 83 1203 l 468 1203 l 468 798 z "},"m":{"ha":1625,"x_min":82,"x_max":1549,"o":"m 631 435 q 600 570 631 526 q 539 614 568 614 q 497 588 509 614 q 485 526 485 562 l 485 0 l 82 0 l 82 843 l 304 843 l 401 711 q 489 799 436 763 q 605 855 543 836 q 730 875 668 875 q 878 837 811 875 q 981 728 944 798 q 1110 836 1036 798 q 1264 875 1185 875 q 1407 839 1342 875 q 1510 736 1471 804 q 1549 575 1549 669 l 1549 0 l 1156 0 l 1156 435 q 1127 570 1156 526 q 1069 614 1099 614 q 1028 591 1042 614 q 1015 536 1015 568 l 1015 0 l 631 0 l 631 435 z "},"n":{"ha":1140,"x_min":82,"x_max":1064,"o":"m 659 407 q 626 566 659 517 q 539 614 594 614 q 497 588 509 614 q 485 526 485 562 l 485 0 l 82 0 l 82 843 l 304 843 l 401 711 q 553 831 458 788 q 751 875 649 875 q 908 839 837 875 q 1022 736 979 804 q 1064 575 1064 669 l 1064 0 l 659 0 l 659 407 z "},"ń":{"ha":1140,"x_min":82,"x_max":1064,"o":"m 659 407 q 626 566 659 517 q 539 614 594 614 q 497 588 509 614 q 485 526 485 562 l 485 0 l 82 0 l 82 843 l 304 843 l 401 711 q 553 831 458 788 q 751 875 649 875 q 908 839 837 875 q 1022 736 979 804 q 1064 575 1064 669 l 1064 0 l 659 0 l 659 407 m 921 1383 l 629 1019 q 567 971 591 971 q 542 1008 542 971 q 547 1045 542 1026 l 644 1383 l 921 1383 z "},"ň":{"ha":1140,"x_min":82,"x_max":1064,"o":"m 659 407 q 626 566 659 517 q 539 614 594 614 q 497 588 509 614 q 485 526 485 562 l 485 0 l 82 0 l 82 843 l 304 843 l 401 711 q 553 831 458 788 q 751 875 649 875 q 908 839 837 875 q 1022 736 979 804 q 1064 575 1064 669 l 1064 0 l 659 0 l 659 407 m 332 1336 q 321 1379 321 1362 q 342 1402 321 1402 q 414 1362 370 1402 l 567 1222 l 722 1362 q 793 1402 765 1402 q 813 1379 813 1402 q 811 1360 813 1371 q 803 1336 810 1350 l 665 1053 q 623 1006 650 1021 q 568 991 596 991 q 513 1007 541 991 q 471 1053 486 1023 l 332 1336 z "},"ņ":{"ha":1140,"x_min":82,"x_max":1064,"o":"m 659 407 q 626 566 659 517 q 539 614 594 614 q 497 588 509 614 q 485 526 485 562 l 485 0 l 82 0 l 82 843 l 304 843 l 401 711 q 553 831 458 788 q 751 875 649 875 q 908 839 837 875 q 1022 736 979 804 q 1064 575 1064 669 l 1064 0 l 659 0 l 659 407 m 363 -518 q 435 -497 410 -518 q 470 -450 460 -477 q 483 -401 481 -422 q 486 -378 486 -380 l 363 -378 l 363 -92 l 777 -92 l 777 -366 q 678 -606 777 -519 q 363 -693 579 -693 l 363 -518 z "},"ǌ":{"ha":1829,"x_min":82,"x_max":1761,"o":"m 659 407 q 626 566 659 517 q 539 614 594 614 q 497 588 509 614 q 485 526 485 562 l 485 0 l 82 0 l 82 843 l 304 843 l 401 711 q 553 831 458 788 q 751 875 649 875 q 908 839 837 875 q 1022 736 979 804 q 1064 575 1064 669 l 1064 0 l 659 0 l 659 407 m 1573 1234 q 1715 1190 1669 1234 q 1761 1090 1761 1147 q 1734 1007 1761 1048 q 1658 940 1708 966 q 1536 913 1609 913 q 1389 955 1432 913 q 1347 1051 1347 998 q 1372 1136 1347 1095 q 1448 1206 1397 1178 q 1573 1234 1498 1234 m 1162 47 q 1233 36 1190 36 q 1286 64 1258 36 q 1333 134 1314 93 q 1352 215 1352 176 l 1352 843 l 1758 843 l 1758 75 q 1715 -86 1758 -19 q 1602 -190 1673 -154 q 1446 -225 1531 -225 q 1295 -199 1369 -225 q 1162 -127 1221 -174 l 1162 47 z "},"ñ":{"ha":1140,"x_min":82,"x_max":1064,"o":"m 659 407 q 626 566 659 517 q 539 614 594 614 q 497 588 509 614 q 485 526 485 562 l 485 0 l 82 0 l 82 843 l 304 843 l 401 711 q 553 831 458 788 q 751 875 649 875 q 908 839 837 875 q 1022 736 979 804 q 1064 575 1064 669 l 1064 0 l 659 0 l 659 407 m 366 1053 q 321 1043 340 1053 q 290 1023 302 1033 q 270 1013 277 1013 q 257 1023 257 1013 q 279 1166 257 1116 q 339 1237 301 1217 q 425 1257 378 1257 q 547 1239 482 1257 q 673 1204 611 1221 q 783 1186 734 1186 q 827 1197 808 1186 q 859 1217 846 1207 q 880 1227 872 1227 q 890 1217 890 1227 q 870 1073 890 1124 q 813 1001 849 1021 q 731 981 777 981 q 612 999 676 981 q 485 1035 549 1017 q 366 1053 420 1053 z "},"o":{"ha":1076,"x_min":50,"x_max":1025,"o":"m 532 -25 q 355 6 441 -25 q 200 97 269 38 q 91 240 131 157 q 50 425 50 323 q 88 609 50 526 q 193 751 126 692 q 346 843 259 810 q 532 875 433 875 q 782 820 670 875 q 959 664 894 766 q 1025 422 1025 563 q 985 237 1025 319 q 876 96 945 154 q 718 6 806 37 q 532 -25 629 -25 m 489 249 q 555 277 519 249 q 626 349 592 305 q 682 441 660 393 q 704 529 704 489 q 688 585 704 559 q 633 610 672 610 q 559 583 598 610 q 485 513 519 556 q 430 421 451 470 q 408 329 408 373 q 426 274 408 299 q 489 249 444 249 z "},"ó":{"ha":1076,"x_min":50,"x_max":1025,"o":"m 532 -25 q 355 6 441 -25 q 200 97 269 38 q 91 240 131 157 q 50 425 50 323 q 88 609 50 526 q 193 751 126 692 q 346 843 259 810 q 532 875 433 875 q 782 820 670 875 q 959 664 894 766 q 1025 422 1025 563 q 985 237 1025 319 q 876 96 945 154 q 718 6 806 37 q 532 -25 629 -25 m 489 249 q 555 277 519 249 q 626 349 592 305 q 682 441 660 393 q 704 529 704 489 q 688 585 704 559 q 633 610 672 610 q 559 583 598 610 q 485 513 519 556 q 430 421 451 470 q 408 329 408 373 q 426 274 408 299 q 489 249 444 249 m 886 1382 l 594 1017 q 532 970 556 970 q 507 1007 507 970 q 512 1044 507 1025 l 609 1382 l 886 1382 z "},"ô":{"ha":1076,"x_min":50,"x_max":1025,"o":"m 532 -25 q 355 6 441 -25 q 200 97 269 38 q 91 240 131 157 q 50 425 50 323 q 88 609 50 526 q 193 751 126 692 q 346 843 259 810 q 532 875 433 875 q 782 820 670 875 q 959 664 894 766 q 1025 422 1025 563 q 985 237 1025 319 q 876 96 945 154 q 718 6 806 37 q 532 -25 629 -25 m 489 249 q 555 277 519 249 q 626 349 592 305 q 682 441 660 393 q 704 529 704 489 q 688 585 704 559 q 633 610 672 610 q 559 583 598 610 q 485 513 519 556 q 430 421 451 470 q 408 329 408 373 q 426 274 408 299 q 489 249 444 249 m 435 1344 q 477 1390 450 1374 q 533 1405 505 1405 q 587 1391 561 1405 q 629 1344 613 1376 l 768 1061 q 776 1037 774 1048 q 777 1018 777 1026 q 758 994 777 994 q 686 1035 730 994 l 532 1175 l 378 1035 q 307 994 334 994 q 286 1018 286 994 q 288 1037 286 1026 q 296 1061 290 1048 l 435 1344 z "},"ö":{"ha":1076,"x_min":50,"x_max":1025,"o":"m 532 -25 q 355 6 441 -25 q 200 97 269 38 q 91 240 131 157 q 50 425 50 323 q 88 609 50 526 q 193 751 126 692 q 346 843 259 810 q 532 875 433 875 q 782 820 670 875 q 959 664 894 766 q 1025 422 1025 563 q 985 237 1025 319 q 876 96 945 154 q 718 6 806 37 q 532 -25 629 -25 m 489 249 q 555 277 519 249 q 626 349 592 305 q 682 441 660 393 q 704 529 704 489 q 688 585 704 559 q 633 610 672 610 q 559 583 598 610 q 485 513 519 556 q 430 421 451 470 q 408 329 408 373 q 426 274 408 299 q 489 249 444 249 m 337 1251 q 449 1211 410 1251 q 488 1115 488 1171 q 470 1037 488 1074 q 414 975 452 999 q 317 951 376 951 q 201 993 239 951 q 162 1092 162 1034 q 182 1168 162 1131 q 242 1228 203 1204 q 337 1251 281 1251 m 747 1251 q 860 1211 821 1251 q 899 1115 899 1171 q 881 1037 899 1074 q 826 975 863 999 q 729 951 789 951 q 613 993 653 951 q 574 1092 574 1034 q 594 1168 574 1131 q 653 1228 614 1204 q 747 1251 692 1251 z "},"ò":{"ha":1076,"x_min":50,"x_max":1025,"o":"m 532 -25 q 355 6 441 -25 q 200 97 269 38 q 91 240 131 157 q 50 425 50 323 q 88 609 50 526 q 193 751 126 692 q 346 843 259 810 q 532 875 433 875 q 782 820 670 875 q 959 664 894 766 q 1025 422 1025 563 q 985 237 1025 319 q 876 96 945 154 q 718 6 806 37 q 532 -25 629 -25 m 489 249 q 555 277 519 249 q 626 349 592 305 q 682 441 660 393 q 704 529 704 489 q 688 585 704 559 q 633 610 672 610 q 559 583 598 610 q 485 513 519 556 q 430 421 451 470 q 408 329 408 373 q 426 274 408 299 q 489 249 444 249 m 454 1381 l 551 1043 q 557 1006 557 1024 q 532 969 557 969 q 469 1017 507 969 l 178 1381 l 454 1381 z "},"ő":{"ha":1076,"x_min":50,"x_max":1038,"o":"m 532 -25 q 355 6 441 -25 q 200 97 269 38 q 91 240 131 157 q 50 425 50 323 q 88 609 50 526 q 193 751 126 692 q 346 843 259 810 q 532 875 433 875 q 782 820 670 875 q 959 664 894 766 q 1025 422 1025 563 q 985 237 1025 319 q 876 96 945 154 q 718 6 806 37 q 532 -25 629 -25 m 489 249 q 555 277 519 249 q 626 349 592 305 q 682 441 660 393 q 704 529 704 489 q 688 585 704 559 q 633 610 672 610 q 559 583 598 610 q 485 513 519 556 q 430 421 451 470 q 408 329 408 373 q 426 274 408 299 q 489 249 444 249 m 661 1388 l 438 1022 q 382 975 409 975 q 363 989 372 975 q 355 1030 355 1002 q 355 1039 355 1035 q 355 1048 355 1044 l 384 1388 l 661 1388 m 1038 1388 l 747 1022 q 682 978 711 978 q 659 1011 659 978 q 664 1048 659 1029 l 748 1388 l 1038 1388 z "},"ȏ":{"ha":1076,"x_min":50,"x_max":1025,"o":"m 532 -25 q 355 6 441 -25 q 200 97 269 38 q 91 240 131 157 q 50 425 50 323 q 88 609 50 526 q 193 751 126 692 q 346 843 259 810 q 532 875 433 875 q 782 820 670 875 q 959 664 894 766 q 1025 422 1025 563 q 985 237 1025 319 q 876 96 945 154 q 718 6 806 37 q 532 -25 629 -25 m 489 249 q 555 277 519 249 q 626 349 592 305 q 682 441 660 393 q 704 529 704 489 q 688 585 704 559 q 633 610 672 610 q 559 583 598 610 q 485 513 519 556 q 430 421 451 470 q 408 329 408 373 q 426 274 408 299 q 489 249 444 249 m 657 1008 q 643 1078 657 1044 q 602 1133 629 1112 q 532 1154 574 1154 q 438 1109 470 1154 q 406 1008 406 1065 l 155 1008 q 197 1180 155 1099 q 323 1313 239 1261 q 532 1364 407 1364 q 740 1312 656 1364 q 866 1179 823 1261 q 908 1008 908 1098 l 657 1008 z "},"ø":{"ha":1076,"x_min":50,"x_max":1025,"o":"m 532 -25 q 491 -23 511 -25 q 450 -18 471 -21 l 408 -125 l 297 -87 l 336 12 q 191 105 256 46 q 88 245 126 164 q 50 425 50 326 q 88 609 50 526 q 193 751 126 692 q 346 843 259 810 q 532 875 433 875 q 600 871 566 875 q 665 861 633 867 l 714 986 l 825 949 l 778 822 q 957 667 889 769 q 1025 422 1025 564 q 985 237 1025 319 q 876 96 945 154 q 718 6 806 37 q 532 -25 629 -25 m 633 610 q 559 583 598 610 q 485 513 519 556 q 430 421 451 470 q 408 329 408 373 q 426 274 408 299 q 489 249 444 249 q 555 277 519 249 q 626 349 592 305 q 682 441 660 393 q 704 529 704 489 q 688 585 704 559 q 633 610 672 610 z "},"õ":{"ha":1076,"x_min":50,"x_max":1025,"o":"m 532 -25 q 355 6 441 -25 q 200 97 269 38 q 91 240 131 157 q 50 425 50 323 q 88 609 50 526 q 193 751 126 692 q 346 843 259 810 q 532 875 433 875 q 782 820 670 875 q 959 664 894 766 q 1025 422 1025 563 q 985 237 1025 319 q 876 96 945 154 q 718 6 806 37 q 532 -25 629 -25 m 489 249 q 555 277 519 249 q 626 349 592 305 q 682 441 660 393 q 704 529 704 489 q 688 585 704 559 q 633 610 672 610 q 559 583 598 610 q 485 513 519 556 q 430 421 451 470 q 408 329 408 373 q 426 274 408 299 q 489 249 444 249 m 330 1051 q 286 1041 305 1051 q 254 1021 267 1031 q 235 1011 241 1011 q 222 1022 222 1011 q 244 1165 222 1114 q 304 1235 266 1215 q 390 1255 342 1255 q 511 1238 447 1255 q 637 1202 576 1220 q 747 1185 699 1185 q 792 1195 773 1185 q 824 1216 810 1206 q 844 1226 837 1226 q 855 1215 855 1226 q 834 1072 855 1123 q 778 1000 814 1020 q 696 979 742 979 q 577 997 641 979 q 449 1033 513 1015 q 330 1051 385 1051 z "},"œ":{"ha":1725,"x_min":50,"x_max":1531,"o":"m 489 -25 q 297 12 380 -25 q 160 110 215 48 q 78 250 105 172 q 50 411 50 328 q 80 579 50 497 q 170 729 110 662 q 320 835 230 795 q 530 875 410 875 q 697 842 619 875 q 836 750 776 810 q 1001 845 909 814 q 1193 876 1093 876 q 1385 839 1310 876 q 1496 741 1460 802 q 1531 612 1531 681 q 1506 494 1531 553 q 1430 386 1480 435 q 1309 309 1380 338 q 1147 279 1238 279 q 1122 280 1135 279 q 1093 281 1109 280 q 1110 239 1093 252 q 1153 224 1126 227 q 1206 221 1179 221 q 1266 225 1232 221 q 1349 250 1300 230 q 1468 317 1398 271 l 1510 106 q 1406 31 1472 60 q 1261 -12 1339 2 q 1108 -25 1183 -25 q 956 4 1030 -25 q 821 93 882 33 q 666 6 751 37 q 489 -25 581 -25 m 1156 661 q 1096 628 1114 657 q 1072 553 1078 600 q 1057 449 1065 507 l 1197 482 l 1210 586 q 1211 594 1210 590 q 1211 602 1211 597 q 1156 661 1211 661 m 583 608 q 526 582 556 608 q 470 515 496 556 q 428 429 444 475 q 411 345 411 384 q 428 283 411 307 q 489 258 446 258 q 545 285 515 258 q 601 354 574 312 q 643 441 627 395 q 660 526 660 488 q 642 585 660 561 q 583 608 624 608 z "},"p":{"ha":1116,"x_min":82,"x_max":1064,"o":"m 721 875 q 911 829 835 875 q 1026 706 987 783 q 1064 534 1064 629 q 1045 397 1064 469 q 984 255 1026 324 q 875 129 943 185 q 711 37 807 72 q 485 0 614 3 l 485 -220 l 82 -220 l 82 843 l 304 843 l 399 713 q 565 838 480 800 q 721 875 650 875 m 653 595 q 591 571 623 595 q 530 511 558 548 q 485 433 503 474 l 485 239 q 542 276 503 251 q 625 338 581 301 q 699 422 668 375 q 729 526 729 470 q 711 574 729 554 q 653 595 693 595 z "},"þ":{"ha":1168,"x_min":69,"x_max":1109,"o":"m 69 1083 l 464 1083 l 464 743 q 556 808 506 783 q 653 843 606 832 q 736 854 701 854 q 943 797 860 854 q 1068 647 1026 740 q 1109 446 1109 553 q 1092 339 1109 400 q 1033 214 1074 277 q 922 95 991 150 q 749 7 852 41 q 505 -26 647 -26 l 461 -26 l 461 -240 l 69 -240 l 69 1083 m 660 572 q 580 557 618 572 q 513 520 543 541 q 463 484 483 500 l 463 228 l 529 228 q 598 251 564 228 q 662 311 633 273 q 709 393 691 349 q 726 479 726 437 q 711 542 726 511 q 660 572 696 572 z "},"q":{"ha":1156,"x_min":50,"x_max":1074,"o":"m 1074 -221 l 707 -221 l 707 86 q 615 21 665 46 q 517 -14 565 -3 q 435 -25 469 -25 q 221 32 306 -25 q 93 183 136 90 q 50 383 50 276 q 64 494 50 431 q 114 623 77 557 q 220 745 151 688 q 398 836 289 801 q 665 871 507 871 q 852 862 751 871 q 1074 833 954 853 l 1074 -221 m 511 257 q 591 273 554 257 q 658 309 629 288 q 708 346 688 330 l 708 587 q 656 602 685 602 q 581 579 618 602 q 513 518 544 556 q 463 437 481 481 q 444 350 444 393 q 459 288 444 318 q 511 257 475 257 z "},"r":{"ha":722,"x_min":82,"x_max":685,"o":"m 685 525 q 597 503 643 525 q 521 451 552 481 q 490 393 490 420 l 490 0 l 82 0 l 82 843 l 490 843 l 490 753 q 576 836 525 805 q 685 873 627 867 l 685 525 z "},"ŕ":{"ha":722,"x_min":82,"x_max":712,"o":"m 685 525 q 597 503 643 525 q 521 451 552 481 q 490 393 490 420 l 490 0 l 82 0 l 82 843 l 490 843 l 490 753 q 576 836 525 805 q 685 873 627 867 l 685 525 m 712 1383 l 420 1019 q 358 971 382 971 q 333 1008 333 971 q 338 1045 333 1026 l 435 1383 l 712 1383 z "},"ř":{"ha":722,"x_min":82,"x_max":685,"o":"m 685 525 q 597 503 643 525 q 521 451 552 481 q 490 393 490 420 l 490 0 l 82 0 l 82 843 l 490 843 l 490 753 q 576 836 525 805 q 685 873 627 867 l 685 525 m 123 1336 q 113 1379 113 1362 q 133 1402 113 1402 q 205 1362 161 1402 l 358 1222 l 513 1362 q 585 1402 556 1402 q 604 1379 604 1402 q 603 1360 604 1371 q 594 1336 601 1350 l 456 1053 q 414 1006 441 1021 q 359 991 387 991 q 304 1007 332 991 q 262 1053 277 1023 l 123 1336 z "},"ŗ":{"ha":722,"x_min":82,"x_max":685,"o":"m 685 525 q 597 503 643 525 q 521 451 552 481 q 490 393 490 420 l 490 0 l 82 0 l 82 843 l 490 843 l 490 753 q 576 836 525 805 q 685 873 627 867 l 685 525 m 87 -518 q 158 -497 133 -518 q 194 -450 183 -477 q 207 -401 204 -422 q 209 -378 209 -380 l 87 -378 l 87 -92 l 500 -92 l 500 -366 q 401 -606 500 -519 q 87 -693 302 -693 l 87 -518 z "},"ȓ":{"ha":722,"x_min":-18,"x_max":734,"o":"m 685 525 q 597 503 643 525 q 521 451 552 481 q 490 393 490 420 l 490 0 l 82 0 l 82 843 l 490 843 l 490 753 q 576 836 525 805 q 685 873 627 867 l 685 525 m 484 1010 q 470 1079 484 1046 q 428 1134 456 1113 q 358 1156 400 1156 q 264 1111 296 1156 q 232 1010 232 1066 l -18 1010 q 24 1181 -18 1100 q 150 1314 66 1263 q 358 1365 233 1365 q 566 1314 483 1365 q 692 1181 650 1262 q 734 1010 734 1099 l 484 1010 z "},"s":{"ha":815,"x_min":65,"x_max":758,"o":"m 68 288 q 117 274 81 287 q 197 249 153 261 q 281 236 242 236 q 313 243 300 236 q 325 269 325 250 q 299 311 325 294 q 234 347 273 328 q 156 395 195 366 q 91 473 117 424 q 65 600 65 522 q 97 729 65 676 q 184 813 130 781 q 307 860 239 846 q 447 875 375 875 q 564 869 509 875 q 657 856 618 863 q 705 846 695 848 l 705 590 q 681 595 705 590 q 621 608 657 601 q 549 620 585 614 q 486 625 512 625 q 456 616 467 625 q 446 596 446 608 q 457 575 446 585 q 504 551 469 565 q 604 507 557 529 q 685 454 650 485 q 739 376 720 424 q 758 256 758 329 q 659 45 758 116 q 396 -25 560 -25 q 195 -10 266 -25 q 96 21 123 5 q 68 36 68 36 l 68 288 z "},"ś":{"ha":815,"x_min":65,"x_max":758,"o":"m 68 288 q 117 274 81 287 q 197 249 153 261 q 281 236 242 236 q 313 243 300 236 q 325 269 325 250 q 299 311 325 294 q 234 347 273 328 q 156 395 195 366 q 91 473 117 424 q 65 600 65 522 q 97 729 65 676 q 184 813 130 781 q 307 860 239 846 q 447 875 375 875 q 564 869 509 875 q 657 856 618 863 q 705 846 695 848 l 705 590 q 681 595 705 590 q 621 608 657 601 q 549 620 585 614 q 486 625 512 625 q 456 616 467 625 q 446 596 446 608 q 457 575 446 585 q 504 551 469 565 q 604 507 557 529 q 685 454 650 485 q 739 376 720 424 q 758 256 758 329 q 659 45 758 116 q 396 -25 560 -25 q 195 -10 266 -25 q 96 21 123 5 q 68 36 68 36 l 68 288 m 747 1383 l 456 1019 q 393 971 418 971 q 368 1008 368 971 q 374 1045 368 1026 l 471 1383 l 747 1383 z "},"š":{"ha":815,"x_min":65,"x_max":758,"o":"m 68 288 q 117 274 81 287 q 197 249 153 261 q 281 236 242 236 q 313 243 300 236 q 325 269 325 250 q 299 311 325 294 q 234 347 273 328 q 156 395 195 366 q 91 473 117 424 q 65 600 65 522 q 97 729 65 676 q 184 813 130 781 q 307 860 239 846 q 447 875 375 875 q 564 869 509 875 q 657 856 618 863 q 705 846 695 848 l 705 590 q 681 595 705 590 q 621 608 657 601 q 549 620 585 614 q 486 625 512 625 q 456 616 467 625 q 446 596 446 608 q 457 575 446 585 q 504 551 469 565 q 604 507 557 529 q 685 454 650 485 q 739 376 720 424 q 758 256 758 329 q 659 45 758 116 q 396 -25 560 -25 q 195 -10 266 -25 q 96 21 123 5 q 68 36 68 36 l 68 288 m 159 1336 q 148 1379 148 1362 q 168 1402 148 1402 q 241 1362 197 1402 l 393 1222 l 548 1362 q 620 1402 591 1402 q 640 1379 640 1402 q 638 1360 640 1371 q 629 1336 636 1350 l 491 1053 q 449 1006 476 1021 q 395 991 422 991 q 340 1007 368 991 q 298 1053 312 1023 l 159 1336 z "},"ş":{"ha":815,"x_min":65,"x_max":758,"o":"m 68 288 q 117 274 81 287 q 197 249 153 261 q 281 236 242 236 q 313 243 300 236 q 325 269 325 250 q 299 311 325 294 q 234 347 273 328 q 156 395 195 366 q 91 473 117 424 q 65 600 65 522 q 97 729 65 676 q 184 813 130 781 q 307 860 239 846 q 447 875 375 875 q 564 869 509 875 q 657 856 618 863 q 705 846 695 848 l 705 590 q 681 595 705 590 q 621 608 657 601 q 549 620 585 614 q 486 625 512 625 q 456 616 467 625 q 446 596 446 608 q 457 575 446 585 q 504 551 469 565 q 604 507 557 529 q 685 454 650 485 q 739 376 720 424 q 758 256 758 329 q 659 45 758 116 q 396 -25 560 -25 q 195 -10 266 -25 q 96 21 123 5 q 68 36 68 36 l 68 288 m 191 -370 q 165 -328 165 -348 q 177 -299 165 -311 q 205 -286 190 -286 q 233 -297 212 -286 q 285 -318 254 -307 q 351 -329 316 -329 q 391 -319 370 -329 q 412 -285 412 -310 q 375 -238 412 -254 q 293 -222 338 -222 q 299 -198 293 -221 q 315 -143 306 -176 q 334 -77 325 -110 q 350 -22 344 -44 q 357 0 357 0 l 450 0 l 408 -129 l 423 -129 q 474 -134 445 -129 q 531 -154 503 -139 q 578 -198 559 -169 q 597 -273 597 -227 q 568 -362 597 -328 q 494 -412 540 -396 q 397 -428 448 -428 q 286 -412 341 -428 q 191 -370 230 -395 z "},"ș":{"ha":815,"x_min":65,"x_max":758,"o":"m 68 288 q 117 274 81 287 q 197 249 153 261 q 281 236 242 236 q 313 243 300 236 q 325 269 325 250 q 299 311 325 294 q 234 347 273 328 q 156 395 195 366 q 91 473 117 424 q 65 600 65 522 q 97 729 65 676 q 184 813 130 781 q 307 860 239 846 q 447 875 375 875 q 564 869 509 875 q 657 856 618 863 q 705 846 695 848 l 705 590 q 681 595 705 590 q 621 608 657 601 q 549 620 585 614 q 486 625 512 625 q 456 616 467 625 q 446 596 446 608 q 457 575 446 585 q 504 551 469 565 q 604 507 557 529 q 685 454 650 485 q 739 376 720 424 q 758 256 758 329 q 659 45 758 116 q 396 -25 560 -25 q 195 -10 266 -25 q 96 21 123 5 q 68 36 68 36 l 68 288 m 192 -518 q 263 -497 238 -518 q 299 -450 288 -477 q 312 -401 309 -422 q 314 -378 314 -380 l 192 -378 l 192 -92 l 605 -92 l 605 -366 q 506 -606 605 -519 q 192 -693 408 -693 l 192 -518 z "},"ß":{"ha":1225,"x_min":37,"x_max":1194,"o":"m 37 671 q 91 861 37 783 q 234 988 144 940 q 435 1059 324 1037 q 661 1082 546 1082 q 886 1052 784 1082 q 1050 965 989 1022 q 1112 827 1112 908 q 1070 710 1112 751 q 954 635 1028 669 q 1042 602 999 621 q 1119 552 1084 584 q 1174 468 1154 521 q 1194 330 1194 414 q 1154 160 1194 228 q 1047 53 1114 93 q 899 -8 981 12 q 733 -34 817 -28 q 574 -40 648 -40 q 566 -40 572 -40 q 554 -39 559 -39 l 554 253 q 628 296 591 274 q 689 350 665 317 q 714 435 714 382 q 696 498 714 481 q 652 514 677 514 q 603 506 630 514 q 554 492 576 497 l 554 644 q 599 672 574 654 q 643 716 624 690 q 661 778 661 743 q 642 822 661 808 q 602 836 623 836 q 542 819 575 836 q 485 782 509 802 q 461 754 461 762 l 461 -37 l 37 -37 l 37 671 z "},"t":{"ha":762,"x_min":45,"x_max":720,"o":"m 45 843 l 122 843 l 122 1071 l 528 1112 l 528 843 l 720 843 l 720 628 l 528 628 l 528 415 q 569 278 528 323 q 720 233 610 233 l 720 61 q 587 -2 661 22 q 435 -26 512 -26 q 278 9 349 -26 q 165 113 208 45 q 122 275 122 181 l 122 628 l 45 628 l 45 843 z "},"ť":{"ha":762,"x_min":45,"x_max":1158,"o":"m 45 843 l 122 843 l 122 1071 l 528 1112 l 528 843 l 720 843 l 720 628 l 528 628 l 528 415 q 569 278 528 323 q 720 233 610 233 l 720 61 q 587 -2 661 22 q 435 -26 512 -26 q 278 9 349 -26 q 165 113 208 45 q 122 275 122 181 l 122 628 l 45 628 l 45 843 m 745 728 q 816 749 791 728 q 851 798 841 770 q 864 847 862 825 q 867 868 867 868 l 745 868 l 745 1154 l 1158 1154 l 1158 880 q 1059 640 1158 726 q 745 553 960 553 l 745 728 z "},"ţ":{"ha":762,"x_min":45,"x_max":720,"o":"m 45 843 l 122 843 l 122 1071 l 528 1112 l 528 843 l 720 843 l 720 628 l 528 628 l 528 415 q 569 278 528 323 q 720 233 610 233 l 720 61 q 587 -2 661 22 q 435 -26 512 -26 q 278 9 349 -26 q 165 113 208 45 q 122 275 122 181 l 122 628 l 45 628 l 45 843 m 191 -370 q 165 -328 165 -348 q 177 -299 165 -311 q 205 -286 190 -286 q 233 -297 212 -286 q 285 -318 254 -307 q 351 -329 316 -329 q 391 -319 370 -329 q 412 -285 412 -310 q 375 -238 412 -254 q 293 -222 338 -222 q 299 -198 293 -221 q 315 -143 306 -176 q 334 -77 325 -110 q 350 -22 344 -44 q 357 0 357 0 l 450 0 l 408 -129 l 423 -129 q 474 -134 445 -129 q 531 -154 503 -139 q 578 -198 559 -169 q 597 -273 597 -227 q 568 -362 597 -328 q 494 -412 540 -396 q 397 -428 448 -428 q 286 -412 341 -428 q 191 -370 230 -395 z "},"ț":{"ha":762,"x_min":45,"x_max":720,"o":"m 45 843 l 122 843 l 122 1071 l 528 1112 l 528 843 l 720 843 l 720 628 l 528 628 l 528 415 q 569 278 528 323 q 720 233 610 233 l 720 61 q 587 -2 661 22 q 435 -26 512 -26 q 278 9 349 -26 q 165 113 208 45 q 122 275 122 181 l 122 628 l 45 628 l 45 843 m 174 -518 q 245 -497 220 -518 q 281 -450 271 -477 q 294 -401 292 -422 q 296 -378 296 -380 l 174 -378 l 174 -92 l 587 -92 l 587 -366 q 489 -606 587 -519 q 174 -693 390 -693 l 174 -518 z "},"u":{"ha":1139,"x_min":77,"x_max":1059,"o":"m 482 450 q 497 315 482 363 q 537 247 513 267 q 590 228 562 228 q 643 253 631 228 q 656 317 656 277 l 656 843 l 1059 843 l 1059 0 l 836 0 l 739 132 q 587 12 683 55 q 389 -32 491 -32 q 233 4 304 -32 q 119 106 161 39 q 77 268 77 174 l 77 843 l 482 843 l 482 450 z "},"ú":{"ha":1139,"x_min":77,"x_max":1059,"o":"m 482 450 q 497 315 482 363 q 537 247 513 267 q 590 228 562 228 q 643 253 631 228 q 656 317 656 277 l 656 843 l 1059 843 l 1059 0 l 836 0 l 739 132 q 587 12 683 55 q 389 -32 491 -32 q 233 4 304 -32 q 119 106 161 39 q 77 268 77 174 l 77 843 l 482 843 l 482 450 m 925 1382 l 633 1017 q 571 970 595 970 q 546 1007 546 970 q 551 1044 546 1025 l 648 1382 l 925 1382 z "},"û":{"ha":1139,"x_min":77,"x_max":1059,"o":"m 482 450 q 497 315 482 363 q 537 247 513 267 q 590 228 562 228 q 643 253 631 228 q 656 317 656 277 l 656 843 l 1059 843 l 1059 0 l 836 0 l 739 132 q 587 12 683 55 q 389 -32 491 -32 q 233 4 304 -32 q 119 106 161 39 q 77 268 77 174 l 77 843 l 482 843 l 482 450 m 475 1344 q 516 1390 489 1374 q 572 1405 544 1405 q 626 1391 600 1405 q 668 1344 652 1376 l 807 1061 q 815 1037 814 1048 q 817 1018 817 1026 q 797 994 817 994 q 725 1035 769 994 l 571 1175 l 418 1035 q 346 994 373 994 q 325 1018 325 994 q 327 1037 325 1026 q 336 1061 330 1048 l 475 1344 z "},"ü":{"ha":1139,"x_min":77,"x_max":1059,"o":"m 482 450 q 497 315 482 363 q 537 247 513 267 q 590 228 562 228 q 643 253 631 228 q 656 317 656 277 l 656 843 l 1059 843 l 1059 0 l 836 0 l 739 132 q 587 12 683 55 q 389 -32 491 -32 q 233 4 304 -32 q 119 106 161 39 q 77 268 77 174 l 77 843 l 482 843 l 482 450 m 376 1251 q 488 1211 450 1251 q 527 1115 527 1171 q 509 1037 527 1074 q 453 975 491 999 q 356 951 416 951 q 240 993 279 951 q 201 1092 201 1034 q 222 1168 201 1131 q 281 1228 242 1204 q 376 1251 321 1251 m 787 1251 q 899 1211 861 1251 q 938 1115 938 1171 q 920 1037 938 1074 q 865 975 903 999 q 768 951 828 951 q 653 993 692 951 q 613 1092 613 1034 q 633 1168 613 1131 q 692 1228 654 1204 q 787 1251 731 1251 z "},"ù":{"ha":1139,"x_min":77,"x_max":1059,"o":"m 482 450 q 497 315 482 363 q 537 247 513 267 q 590 228 562 228 q 643 253 631 228 q 656 317 656 277 l 656 843 l 1059 843 l 1059 0 l 836 0 l 739 132 q 587 12 683 55 q 389 -32 491 -32 q 233 4 304 -32 q 119 106 161 39 q 77 268 77 174 l 77 843 l 482 843 l 482 450 m 493 1381 l 591 1043 q 596 1006 596 1024 q 571 969 596 969 q 509 1017 547 969 l 217 1381 l 493 1381 z "},"ű":{"ha":1139,"x_min":77,"x_max":1078,"o":"m 482 450 q 497 315 482 363 q 537 247 513 267 q 590 228 562 228 q 643 253 631 228 q 656 317 656 277 l 656 843 l 1059 843 l 1059 0 l 836 0 l 739 132 q 587 12 683 55 q 389 -32 491 -32 q 233 4 304 -32 q 119 106 161 39 q 77 268 77 174 l 77 843 l 482 843 l 482 450 m 700 1388 l 477 1022 q 422 975 448 975 q 402 989 411 975 q 394 1030 394 1002 q 394 1039 394 1035 q 395 1048 394 1044 l 423 1388 l 700 1388 m 1078 1388 l 786 1022 q 721 978 751 978 q 699 1011 699 978 q 703 1048 699 1029 l 787 1388 l 1078 1388 z "},"ȗ":{"ha":1139,"x_min":77,"x_max":1059,"o":"m 482 450 q 497 315 482 363 q 537 247 513 267 q 590 228 562 228 q 643 253 631 228 q 656 317 656 277 l 656 843 l 1059 843 l 1059 0 l 836 0 l 739 132 q 587 12 683 55 q 389 -32 491 -32 q 233 4 304 -32 q 119 106 161 39 q 77 268 77 174 l 77 843 l 482 843 l 482 450 m 696 1008 q 683 1078 696 1044 q 641 1133 669 1112 q 571 1154 613 1154 q 477 1109 509 1154 q 445 1008 445 1065 l 195 1008 q 237 1180 195 1099 q 362 1313 279 1261 q 571 1364 446 1364 q 779 1312 696 1364 q 905 1179 863 1261 q 947 1008 947 1098 l 696 1008 z "},"ū":{"ha":1139,"x_min":77,"x_max":1059,"o":"m 482 450 q 497 315 482 363 q 537 247 513 267 q 590 228 562 228 q 643 253 631 228 q 656 317 656 277 l 656 843 l 1059 843 l 1059 0 l 836 0 l 739 132 q 587 12 683 55 q 389 -32 491 -32 q 233 4 304 -32 q 119 106 161 39 q 77 268 77 174 l 77 843 l 482 843 l 482 450 m 256 1223 l 875 1223 l 875 1022 l 256 1022 l 256 1223 z "},"ų":{"ha":1139,"x_min":77,"x_max":1112,"o":"m 482 450 q 497 315 482 363 q 537 247 513 267 q 590 228 562 228 q 643 253 631 228 q 656 317 656 277 l 656 843 l 1059 843 l 1059 0 l 836 0 l 739 132 q 587 12 683 55 q 389 -32 491 -32 q 233 4 304 -32 q 119 106 161 39 q 77 268 77 174 l 77 843 l 482 843 l 482 450 m 1085 -368 q 991 -410 1046 -394 q 880 -427 936 -427 q 782 -411 828 -427 q 708 -360 736 -395 q 680 -272 680 -326 q 699 -191 680 -231 q 746 -117 718 -151 q 802 -56 774 -82 q 849 -15 830 -30 q 868 0 868 0 l 962 0 q 947 -27 962 0 q 913 -95 932 -54 q 879 -182 894 -137 q 864 -262 864 -227 q 878 -310 864 -292 q 925 -328 892 -328 q 992 -317 961 -328 q 1044 -295 1023 -306 q 1071 -285 1065 -285 q 1099 -297 1086 -285 q 1112 -326 1112 -310 q 1085 -368 1112 -348 z "},"ů":{"ha":1139,"x_min":77,"x_max":1059,"o":"m 482 450 q 497 315 482 363 q 537 247 513 267 q 590 228 562 228 q 643 253 631 228 q 656 317 656 277 l 656 843 l 1059 843 l 1059 0 l 836 0 l 739 132 q 587 12 683 55 q 389 -32 491 -32 q 233 4 304 -32 q 119 106 161 39 q 77 268 77 174 l 77 843 l 482 843 l 482 450 m 570 972 q 464 996 514 972 q 381 1068 413 1020 q 349 1189 349 1117 q 381 1308 349 1261 q 463 1379 413 1355 q 568 1402 513 1402 q 674 1379 623 1402 q 756 1308 724 1355 q 789 1189 789 1260 q 757 1068 789 1117 q 675 996 725 1020 q 570 972 625 972 m 571 1096 q 643 1124 619 1096 q 667 1187 667 1153 q 642 1251 667 1221 q 568 1280 617 1280 q 496 1252 520 1280 q 472 1190 472 1224 q 497 1125 472 1155 q 571 1096 522 1096 z "},"v":{"ha":997,"x_min":17,"x_max":978,"o":"m 414 843 l 539 595 q 596 719 567 657 q 654 843 626 781 l 978 843 l 562 1 q 541 -18 556 -12 q 509 -25 526 -25 q 477 -18 492 -25 q 454 1 461 -12 l 17 843 l 414 843 z "},"w":{"ha":1410,"x_min":47,"x_max":1362,"o":"m 47 843 l 427 843 l 518 562 q 623 703 568 631 q 726 843 677 775 l 770 843 l 964 568 q 1009 706 985 635 q 1054 843 1033 777 l 1362 843 l 1076 -5 l 964 -5 l 721 346 l 461 -5 l 349 -5 l 47 843 z "},"ẃ":{"ha":1410,"x_min":47,"x_max":1362,"o":"m 47 843 l 427 843 l 518 562 q 623 703 568 631 q 726 843 677 775 l 770 843 l 964 568 q 1009 706 985 635 q 1054 843 1033 777 l 1362 843 l 1076 -5 l 964 -5 l 721 346 l 461 -5 l 349 -5 l 47 843 m 1059 1383 l 768 1019 q 705 971 730 971 q 680 1008 680 971 q 686 1045 680 1026 l 783 1383 l 1059 1383 z "},"ŵ":{"ha":1410,"x_min":47,"x_max":1362,"o":"m 47 843 l 427 843 l 518 562 q 623 703 568 631 q 726 843 677 775 l 770 843 l 964 568 q 1009 706 985 635 q 1054 843 1033 777 l 1362 843 l 1076 -5 l 964 -5 l 721 346 l 461 -5 l 349 -5 l 47 843 m 609 1345 q 651 1391 623 1375 q 707 1407 678 1407 q 761 1392 734 1407 q 802 1345 787 1377 l 941 1063 q 949 1038 948 1049 q 951 1019 951 1027 q 931 996 951 996 q 859 1036 903 996 l 705 1176 l 552 1036 q 480 996 507 996 q 459 1019 459 996 q 461 1038 459 1027 q 470 1063 464 1049 l 609 1345 z "},"ẅ":{"ha":1410,"x_min":47,"x_max":1362,"o":"m 47 843 l 427 843 l 518 562 q 623 703 568 631 q 726 843 677 775 l 770 843 l 964 568 q 1009 706 985 635 q 1054 843 1033 777 l 1362 843 l 1076 -5 l 964 -5 l 721 346 l 461 -5 l 349 -5 l 47 843 m 511 1253 q 623 1213 584 1253 q 661 1116 661 1173 q 643 1038 661 1076 q 588 977 625 1000 q 490 953 550 953 q 374 994 413 953 q 336 1093 336 1036 q 356 1169 336 1133 q 416 1229 376 1206 q 511 1253 455 1253 m 921 1253 q 1034 1213 995 1253 q 1072 1116 1072 1173 q 1055 1038 1072 1076 q 1000 977 1037 1000 q 903 953 962 953 q 787 994 827 953 q 747 1093 747 1036 q 768 1169 747 1133 q 827 1229 788 1206 q 921 1253 865 1253 z "},"ẁ":{"ha":1410,"x_min":47,"x_max":1362,"o":"m 47 843 l 427 843 l 518 562 q 623 703 568 631 q 726 843 677 775 l 770 843 l 964 568 q 1009 706 985 635 q 1054 843 1033 777 l 1362 843 l 1076 -5 l 964 -5 l 721 346 l 461 -5 l 349 -5 l 47 843 m 627 1383 l 725 1044 q 730 1008 730 1025 q 705 970 730 970 q 643 1018 681 970 l 351 1383 l 627 1383 z "},"x":{"ha":1038,"x_min":61,"x_max":986,"o":"m 529 685 l 612 843 l 925 843 l 714 444 l 986 0 l 581 0 l 485 192 l 407 0 l 68 0 l 296 437 l 61 843 l 446 843 l 529 685 z "},"y":{"ha":1120,"x_min":60,"x_max":1101,"o":"m 785 56 q 700 -107 748 -36 q 583 -220 652 -179 q 416 -261 515 -261 q 259 -251 336 -261 q 136 -222 182 -241 l 136 18 q 219 5 166 11 q 317 -1 272 -1 q 388 27 361 -1 q 415 94 415 55 q 413 113 415 104 q 408 134 412 123 l 60 843 l 464 843 l 610 517 l 746 843 l 1101 843 l 785 56 z "},"ý":{"ha":1120,"x_min":60,"x_max":1101,"o":"m 785 56 q 700 -107 748 -36 q 583 -220 652 -179 q 416 -261 515 -261 q 259 -251 336 -261 q 136 -222 182 -241 l 136 18 q 219 5 166 11 q 317 -1 272 -1 q 388 27 361 -1 q 415 94 415 55 q 413 113 415 104 q 408 134 412 123 l 60 843 l 464 843 l 610 517 l 746 843 l 1101 843 l 785 56 m 957 1382 l 665 1017 q 603 970 627 970 q 578 1007 578 970 q 583 1044 578 1025 l 680 1382 l 957 1382 z "},"ŷ":{"ha":1120,"x_min":60,"x_max":1101,"o":"m 785 56 q 700 -107 748 -36 q 583 -220 652 -179 q 416 -261 515 -261 q 259 -251 336 -261 q 136 -222 182 -241 l 136 18 q 219 5 166 11 q 317 -1 272 -1 q 388 27 361 -1 q 415 94 415 55 q 413 113 415 104 q 408 134 412 123 l 60 843 l 464 843 l 610 517 l 746 843 l 1101 843 l 785 56 m 507 1344 q 548 1390 521 1374 q 604 1405 576 1405 q 658 1391 632 1405 q 700 1344 684 1376 l 839 1061 q 847 1037 846 1048 q 848 1018 848 1026 q 829 994 848 994 q 757 1035 801 994 l 603 1175 l 450 1035 q 378 994 405 994 q 357 1018 357 994 q 359 1037 357 1026 q 368 1061 361 1048 l 507 1344 z "},"ÿ":{"ha":1120,"x_min":60,"x_max":1101,"o":"m 785 56 q 700 -107 748 -36 q 583 -220 652 -179 q 416 -261 515 -261 q 259 -251 336 -261 q 136 -222 182 -241 l 136 18 q 219 5 166 11 q 317 -1 272 -1 q 388 27 361 -1 q 415 94 415 55 q 413 113 415 104 q 408 134 412 123 l 60 843 l 464 843 l 610 517 l 746 843 l 1101 843 l 785 56 m 408 1251 q 520 1211 481 1251 q 559 1115 559 1171 q 541 1037 559 1074 q 485 975 523 999 q 388 951 448 951 q 272 993 311 951 q 233 1092 233 1034 q 254 1168 233 1131 q 313 1228 274 1204 q 408 1251 353 1251 m 819 1251 q 931 1211 892 1251 q 970 1115 970 1171 q 952 1037 970 1074 q 897 975 935 999 q 800 951 860 951 q 685 993 724 951 q 645 1092 645 1034 q 665 1168 645 1131 q 724 1228 686 1204 q 819 1251 763 1251 z "},"ỳ":{"ha":1120,"x_min":60,"x_max":1101,"o":"m 785 56 q 700 -107 748 -36 q 583 -220 652 -179 q 416 -261 515 -261 q 259 -251 336 -261 q 136 -222 182 -241 l 136 18 q 219 5 166 11 q 317 -1 272 -1 q 388 27 361 -1 q 415 94 415 55 q 413 113 415 104 q 408 134 412 123 l 60 843 l 464 843 l 610 517 l 746 843 l 1101 843 l 785 56 m 525 1381 l 623 1043 q 628 1006 628 1024 q 603 969 628 969 q 541 1017 578 969 l 249 1381 l 525 1381 z "},"z":{"ha":1006,"x_min":74,"x_max":946,"o":"m 399 587 l 106 587 l 106 843 l 946 843 l 946 781 l 618 241 l 946 241 l 946 0 l 74 0 l 74 46 l 399 587 z "},"ź":{"ha":1006,"x_min":74,"x_max":946,"o":"m 399 587 l 106 587 l 106 843 l 946 843 l 946 781 l 618 241 l 946 241 l 946 0 l 74 0 l 74 46 l 399 587 m 876 1383 l 585 1019 q 522 971 547 971 q 497 1008 497 971 q 503 1045 497 1026 l 600 1383 l 876 1383 z "},"ž":{"ha":1006,"x_min":74,"x_max":946,"o":"m 399 587 l 106 587 l 106 843 l 946 843 l 946 781 l 618 241 l 946 241 l 946 0 l 74 0 l 74 46 l 399 587 m 288 1336 q 277 1379 277 1362 q 297 1402 277 1402 q 370 1362 326 1402 l 522 1222 l 677 1362 q 749 1402 720 1402 q 768 1379 768 1402 q 767 1360 768 1371 q 758 1336 765 1350 l 620 1053 q 578 1006 605 1021 q 524 991 551 991 q 469 1007 496 991 q 427 1053 441 1023 l 288 1336 z "},"ż":{"ha":1006,"x_min":74,"x_max":946,"o":"m 399 587 l 106 587 l 106 843 l 946 843 l 946 781 l 618 241 l 946 241 l 946 0 l 74 0 l 74 46 l 399 587 m 564 1410 q 667 1383 626 1410 q 729 1314 709 1356 q 750 1225 750 1272 q 725 1124 750 1173 q 650 1043 700 1075 q 524 1011 600 1011 q 418 1037 459 1011 q 357 1105 377 1063 q 338 1194 338 1147 q 365 1295 338 1245 q 443 1377 392 1345 q 564 1410 494 1410 z "},"ﬁ":{"ha":1276,"x_min":46,"x_max":1206,"o":"m 1029 1276 q 1127 1253 1088 1276 q 1186 1193 1166 1230 q 1206 1116 1206 1156 q 1182 1026 1206 1069 q 1111 955 1158 983 q 991 926 1063 926 q 858 975 900 926 q 815 1086 815 1024 q 841 1175 815 1131 q 915 1247 867 1219 q 1029 1276 963 1276 m 46 843 l 123 843 l 123 1014 q 166 1146 123 1092 q 280 1229 209 1200 q 436 1258 351 1258 q 595 1240 517 1258 q 733 1189 673 1223 l 733 986 q 673 996 705 996 q 575 955 616 996 q 529 843 534 915 l 1206 843 l 1206 0 l 814 0 l 814 628 l 529 628 l 529 0 l 123 0 l 123 628 l 46 628 l 46 843 z "},"ﬂ":{"ha":1286,"x_min":46,"x_max":1204,"o":"m 1204 0 l 812 0 l 812 1000 q 749 1015 791 1008 q 664 1022 708 1022 q 586 1013 623 1022 q 526 978 549 1003 q 503 905 503 952 q 505 877 503 892 q 513 843 507 861 l 721 843 l 721 628 l 529 628 l 529 0 l 123 0 l 123 628 l 46 628 l 46 843 l 123 843 l 123 917 q 165 1076 123 1012 q 283 1177 208 1139 q 462 1230 359 1214 q 686 1246 565 1246 q 822 1239 749 1246 q 969 1219 896 1232 q 1103 1192 1042 1207 q 1204 1161 1165 1177 l 1204 0 z "},"ª":{"ha":924,"x_min":60,"x_max":844,"o":"m 60 755 q 98 947 60 867 q 202 1069 137 1027 q 343 1112 267 1112 q 481 1078 414 1112 q 589 982 549 1044 l 667 1088 l 844 1088 l 844 412 l 667 412 l 589 525 q 486 428 551 463 q 354 393 422 393 q 208 434 275 393 q 100 556 140 475 q 60 755 60 637 m 396 612 q 484 642 439 612 q 553 708 529 672 l 553 875 q 485 860 522 875 q 413 819 448 845 q 356 757 378 792 q 334 682 334 722 q 346 634 334 656 q 396 612 359 612 z "},"º":{"ha":884,"x_min":52,"x_max":832,"o":"m 437 393 q 295 418 364 393 q 172 491 227 444 q 84 604 117 538 q 52 753 52 671 q 104 941 52 861 q 245 1067 157 1022 q 437 1112 333 1112 q 637 1068 548 1112 q 780 944 727 1025 q 832 750 832 863 q 777 560 832 640 q 631 437 721 480 q 437 393 541 393 m 415 619 q 459 641 436 619 q 504 695 483 662 q 538 765 525 728 q 551 833 551 802 q 537 880 551 861 q 490 899 522 899 q 445 878 469 899 q 400 825 421 857 q 366 755 379 792 q 353 688 353 719 q 366 639 353 659 q 415 619 380 619 z "},"⁄":{"ha":794,"x_min":14,"x_max":790,"o":"m 193 0 l 14 0 l 389 1083 l 790 1083 l 193 0 z "},"½":{"ha":2506,"x_min":14,"x_max":2256,"o":"m 205 683 l 14 614 l 14 876 l 464 1083 l 564 1083 l 564 216 l 205 216 l 205 683 m 833 0 l 654 0 l 1029 1083 l 1430 1083 l 833 0 m 1478 157 l 1807 433 q 1857 492 1841 462 q 1874 550 1874 523 q 1853 603 1874 581 q 1794 624 1832 624 q 1675 585 1745 624 q 1539 475 1605 546 l 1411 659 q 1533 786 1457 734 q 1700 864 1609 838 q 1882 890 1791 890 q 2063 859 1980 890 q 2199 765 2147 828 q 2250 607 2250 703 q 2224 495 2250 545 q 2158 405 2199 446 q 2070 328 2117 363 q 1980 260 2023 292 l 2256 260 l 2256 0 l 1478 0 l 1478 157 z "},"¼":{"ha":2506,"x_min":14,"x_max":2241,"o":"m 205 683 l 14 614 l 14 876 l 464 1083 l 564 1083 l 564 216 l 205 216 l 205 683 m 874 0 l 694 0 l 1069 1083 l 1471 1083 l 874 0 m 1301 372 l 1642 868 l 2163 868 l 2163 380 l 2241 380 l 2241 117 l 2163 117 l 2163 0 l 1796 0 l 1796 117 l 1301 117 l 1301 372 m 1639 372 l 1796 372 l 1796 618 l 1639 372 z "},"¾":{"ha":2506,"x_min":-205,"x_max":2241,"o":"m 707 501 q 666 350 707 409 q 559 257 625 290 q 414 210 492 223 q 258 197 335 197 q 114 207 195 197 q -50 246 33 217 q -205 332 -134 275 l -77 541 q 65 475 -15 500 q 227 450 144 450 q 309 471 281 450 q 336 525 336 492 q 317 578 336 557 q 267 609 297 598 q 203 623 236 619 q 142 627 170 627 q 121 626 132 627 q 104 625 111 625 l 97 625 l 31 739 q 37 747 31 740 q 47 755 43 753 l 179 847 l -149 847 l -149 1083 l 688 1083 l 688 986 l 408 773 q 559 733 492 763 q 667 648 627 704 q 707 501 707 591 m 874 0 l 694 0 l 1069 1083 l 1471 1083 l 874 0 m 1301 372 l 1642 868 l 2163 868 l 2163 380 l 2241 380 l 2241 117 l 2163 117 l 2163 0 l 1796 0 l 1796 117 l 1301 117 l 1301 372 m 1639 372 l 1796 372 l 1796 618 l 1639 372 z "},"¹":{"ha":646,"x_min":14,"x_max":564,"o":"m 205 467 l 14 397 l 14 660 l 464 867 l 564 867 l 564 0 l 205 0 l 205 467 z "},"²":{"ha":958,"x_min":46,"x_max":890,"o":"m 113 157 l 441 433 q 492 492 475 462 q 509 550 509 523 q 488 603 509 581 q 429 624 467 624 q 310 585 380 624 q 174 475 240 546 l 46 659 q 168 786 92 734 q 335 864 243 838 q 517 890 426 890 q 698 859 614 890 q 833 765 782 828 q 885 607 885 703 q 859 495 885 545 q 793 405 833 446 q 705 328 752 363 q 615 260 658 292 l 890 260 l 890 0 l 113 0 l 113 157 z "},"³":{"ha":1029,"x_min":54,"x_max":966,"o":"m 966 285 q 926 133 966 193 q 819 40 885 74 q 673 -6 752 7 q 518 -20 595 -20 q 374 -9 455 -20 q 210 30 293 1 q 54 115 126 59 l 183 325 q 325 259 245 284 q 486 233 404 233 q 569 255 541 233 q 596 309 596 276 q 576 361 596 341 q 526 392 557 382 q 463 407 496 403 q 402 410 429 410 q 381 410 391 410 q 364 408 371 409 l 357 408 l 290 522 q 296 530 290 524 q 307 539 302 537 l 439 631 l 111 631 l 111 867 l 947 867 l 947 770 l 668 557 q 819 517 751 547 q 927 431 887 488 q 966 285 966 375 z "},"⁴":{"ha":1035,"x_min":32,"x_max":971,"o":"m 32 372 l 372 868 l 893 868 l 893 380 l 971 380 l 971 117 l 893 117 l 893 0 l 526 0 l 526 117 l 32 117 l 32 372 m 370 372 l 526 372 l 526 618 l 370 372 z "}," ":{"ha":347,"x_min":0,"x_max":0,"o":""}," ":{"ha":347,"x_min":0,"x_max":0,"o":""},".":{"ha":515,"x_min":52,"x_max":464,"o":"m 278 374 q 381 347 340 374 q 443 279 422 321 q 464 189 464 237 q 439 88 464 137 q 363 7 414 39 q 237 -25 313 -25 q 132 1 173 -25 q 71 68 91 26 q 52 158 52 111 q 79 258 52 209 q 157 341 106 308 q 278 374 208 374 z "},",":{"ha":549,"x_min":83,"x_max":496,"o":"m 83 -140 q 155 -119 130 -140 q 190 -70 180 -98 q 203 -21 201 -43 q 205 0 205 0 l 83 0 l 83 286 l 496 286 l 496 12 q 397 -229 496 -142 q 83 -315 299 -315 l 83 -140 z "},":":{"ha":486,"x_min":56,"x_max":431,"o":"m 261 875 q 354 850 317 875 q 411 788 392 826 q 431 707 431 749 q 408 615 431 660 q 340 542 385 570 q 225 513 294 513 q 96 563 136 513 q 56 679 56 613 q 80 770 56 725 q 151 845 104 815 q 261 875 197 875 m 261 363 q 354 339 317 363 q 411 276 392 315 q 431 195 431 238 q 408 102 431 147 q 340 29 385 58 q 225 0 294 0 q 128 24 165 0 q 73 86 91 47 q 56 167 56 124 q 80 258 56 213 q 151 333 104 303 q 261 363 197 363 z "},";":{"ha":528,"x_min":64,"x_max":476,"o":"m 293 875 q 386 850 349 875 q 443 788 424 826 q 463 707 463 749 q 440 615 463 660 q 372 542 417 570 q 257 513 326 513 q 127 563 168 513 q 87 679 87 613 q 112 770 87 725 q 182 845 136 815 q 293 875 229 875 m 64 -53 q 135 -32 110 -53 q 171 17 160 -10 q 183 66 181 45 q 186 87 186 87 l 64 87 l 64 374 l 476 374 l 476 100 q 378 -141 476 -54 q 64 -228 279 -228 l 64 -53 z "},"…":{"ha":1465,"x_min":52,"x_max":1413,"o":"m 753 374 q 856 347 814 374 q 918 279 897 321 q 939 189 939 237 q 913 88 939 137 q 838 7 888 39 q 712 -25 788 -25 q 607 1 648 -25 q 546 68 566 26 q 526 158 526 111 q 553 258 526 209 q 631 341 581 308 q 753 374 682 374 m 1227 374 q 1331 347 1289 374 q 1393 279 1372 321 q 1413 189 1413 237 q 1388 88 1413 137 q 1313 7 1363 39 q 1187 -25 1263 -25 q 1081 1 1122 -25 q 1021 68 1040 26 q 1001 158 1001 111 q 1028 258 1001 209 q 1106 341 1055 308 q 1227 374 1157 374 m 278 374 q 381 347 340 374 q 443 279 422 321 q 464 189 464 237 q 439 88 464 137 q 363 7 414 39 q 237 -25 313 -25 q 132 1 173 -25 q 71 68 91 26 q 52 158 52 111 q 79 258 52 209 q 157 341 106 308 q 278 374 208 374 z "},"!":{"ha":522,"x_min":68,"x_max":460,"o":"m 390 433 l 138 433 l 68 1084 l 460 1084 l 390 433 m 283 325 q 382 302 342 325 q 440 242 421 279 q 460 164 460 205 q 436 75 460 118 q 365 3 412 31 q 245 -25 317 -25 q 112 24 154 -25 q 69 135 69 73 q 95 223 69 180 q 169 296 121 267 q 283 325 217 325 z "},"¡":{"ha":525,"x_min":69,"x_max":461,"o":"m 285 734 q 170 764 218 734 q 96 837 122 793 q 71 925 71 881 q 113 1036 71 987 q 248 1084 155 1084 q 366 1056 319 1084 q 437 985 414 1028 q 461 896 461 942 q 442 818 461 855 q 383 758 422 781 q 285 734 344 734 m 461 -25 l 69 -25 l 139 627 l 392 627 l 461 -25 z "},"?":{"ha":783,"x_min":56,"x_max":760,"o":"m 211 375 q 195 439 200 410 q 191 492 191 468 q 210 582 191 546 q 257 641 229 617 q 314 681 286 664 q 361 714 342 697 q 380 753 380 730 q 349 815 380 799 q 272 832 317 832 q 186 823 231 832 q 106 802 142 813 q 56 783 71 790 l 56 1075 q 180 1101 111 1090 q 321 1111 249 1111 q 479 1097 401 1111 q 621 1050 557 1083 q 722 962 684 1017 q 760 823 760 906 q 742 704 760 751 q 697 626 725 656 q 635 573 669 596 q 567 525 601 549 q 505 466 533 500 q 458 375 476 431 l 211 375 m 357 325 q 455 302 416 325 q 513 242 494 279 q 533 164 533 205 q 509 75 533 118 q 438 3 486 31 q 319 -25 391 -25 q 185 24 228 -25 q 143 135 143 73 q 169 223 143 180 q 242 296 195 267 q 357 325 290 325 z "},"¿":{"ha":848,"x_min":122,"x_max":826,"o":"m 525 763 q 427 786 466 763 q 368 846 388 810 q 349 924 349 883 q 372 1013 349 970 q 444 1085 396 1057 q 562 1113 491 1113 q 696 1064 654 1113 q 739 953 739 1015 q 713 865 739 909 q 639 792 687 821 q 525 763 591 763 m 671 713 q 687 649 682 678 q 691 596 691 620 q 672 506 691 542 q 624 447 652 471 q 568 407 596 424 q 520 374 540 391 q 501 335 501 357 q 533 273 501 290 q 610 256 565 256 q 695 265 651 256 q 776 287 740 275 q 826 304 812 298 l 826 13 q 702 -13 771 -3 q 561 -23 633 -23 q 402 -9 480 -23 q 261 38 324 5 q 160 126 197 71 q 122 264 122 182 q 139 385 122 338 q 185 461 157 431 q 247 515 213 492 q 315 563 281 538 q 377 623 349 587 q 423 713 406 658 l 671 713 z "},"·":{"ha":515,"x_min":52,"x_max":464,"o":"m 278 842 q 381 815 340 842 q 443 747 422 789 q 464 657 464 705 q 439 556 464 605 q 363 475 414 507 q 237 443 313 443 q 132 469 173 443 q 71 536 91 494 q 52 627 52 578 q 79 727 52 677 q 157 809 106 777 q 278 842 208 842 z "},"•":{"ha":515,"x_min":-4,"x_max":519,"o":"m 278 485 q 413 450 359 485 q 493 361 467 416 q 519 244 519 306 q 489 117 519 178 q 395 15 458 55 q 237 -25 333 -25 q 100 9 153 -25 q 21 97 47 43 q -4 214 -4 152 q 30 341 -4 279 q 127 444 64 404 q 278 485 191 485 z "},"*":{"ha":1032,"x_min":50,"x_max":982,"o":"m 576 798 q 571 782 574 790 q 567 765 569 774 l 591 789 q 654 852 621 817 q 723 919 688 887 q 795 972 759 951 q 865 993 831 993 q 918 977 891 993 q 964 931 945 960 q 982 865 982 903 q 956 796 982 823 q 887 750 930 768 q 796 720 845 732 q 700 697 747 707 q 619 673 653 686 q 697 656 651 665 q 792 633 743 646 q 885 599 842 619 q 955 551 928 579 q 982 484 982 523 q 964 417 982 446 q 918 371 945 387 q 865 354 891 354 q 794 375 829 354 q 723 430 758 397 q 655 497 688 463 q 591 559 622 532 l 570 579 l 576 551 q 599 463 585 509 q 625 371 613 416 q 636 282 636 325 q 605 193 636 229 q 515 158 574 158 q 427 193 457 158 q 396 282 396 229 q 409 385 396 330 q 439 492 422 440 q 464 582 455 545 l 440 559 q 376 497 408 532 q 310 430 343 463 q 240 375 276 397 q 167 354 205 354 q 115 369 142 354 q 69 413 87 385 q 50 479 50 441 q 77 549 50 521 q 148 597 104 578 q 242 629 192 616 q 339 652 292 642 q 418 673 385 663 q 339 695 385 684 q 242 718 292 705 q 148 750 192 731 q 77 798 104 770 q 50 868 50 827 q 69 935 50 907 q 115 979 87 963 q 167 994 142 994 q 240 973 205 994 q 310 920 276 952 q 376 852 344 887 q 440 789 409 817 l 460 771 q 454 798 456 781 q 418 932 439 861 q 396 1068 396 1004 q 427 1156 396 1121 q 515 1190 457 1190 q 605 1156 574 1190 q 636 1068 636 1121 q 613 930 636 1002 q 576 798 590 859 z "},"#":{"ha":1394,"x_min":52,"x_max":1354,"o":"m 143 842 l 253 842 l 288 1083 l 717 1083 l 661 842 l 818 842 l 871 1083 l 1328 1083 l 1238 842 l 1354 842 l 1299 639 l 1162 639 l 1096 461 l 1249 461 l 1193 258 l 1021 258 l 925 0 l 635 0 l 690 258 l 526 258 l 467 0 l 135 0 l 171 258 l 52 258 l 79 461 l 199 461 l 224 639 l 115 639 l 143 842 m 572 461 l 734 461 l 774 639 l 614 639 l 572 461 z "},"/":{"ha":707,"x_min":36,"x_max":688,"o":"m 396 0 l 36 0 l 231 1083 l 688 1083 l 396 0 z "},"\\":{"ha":717,"x_min":33,"x_max":699,"o":"m 241 0 l 33 1083 l 393 1083 l 699 0 l 241 0 z "},"-":{"ha":684,"x_min":83,"x_max":602,"o":"m 83 618 l 602 618 l 602 325 l 83 325 l 83 618 z "},"–":{"ha":785,"x_min":83,"x_max":703,"o":"m 83 618 l 703 618 l 703 416 l 83 416 l 83 618 z "},"—":{"ha":785,"x_min":83,"x_max":703,"o":"m 83 618 l 703 618 l 703 416 l 83 416 l 83 618 z "},"_":{"ha":785,"x_min":83,"x_max":703,"o":"m 83 0 l 703 0 l 703 -201 l 83 -201 l 83 0 z "},"(":{"ha":693,"x_min":28,"x_max":611,"o":"m 608 904 q 493 782 538 850 q 428 641 448 713 q 407 500 407 568 q 432 356 407 423 q 504 248 458 290 q 611 205 549 207 l 611 -45 q 392 -8 497 -45 q 205 99 288 28 q 76 276 123 170 q 28 519 28 381 q 70 769 28 656 q 189 962 112 881 q 373 1088 267 1044 q 608 1135 479 1133 l 608 904 z "},")":{"ha":694,"x_min":83,"x_max":667,"o":"m 86 1135 q 321 1088 215 1133 q 505 962 428 1044 q 625 769 583 881 q 667 519 667 656 q 619 276 667 381 q 489 99 571 170 q 302 -8 407 28 q 83 -45 197 -45 l 83 205 q 191 248 145 207 q 262 356 237 290 q 288 500 288 423 q 267 641 288 568 q 202 782 246 713 q 86 904 157 850 l 86 1135 z "},"{":{"ha":708,"x_min":22,"x_max":627,"o":"m 129 293 q 100 382 129 347 q 22 421 71 418 l 22 644 q 100 683 71 646 q 129 772 129 719 q 180 976 129 888 q 340 1113 231 1064 q 627 1162 450 1162 l 627 904 q 544 879 568 904 q 514 818 519 853 q 509 755 509 783 q 489 662 509 709 q 433 581 469 616 q 346 532 397 546 q 432 484 395 519 q 488 404 468 450 q 509 312 509 359 q 514 249 509 285 q 544 188 519 214 q 627 161 568 161 l 627 -97 q 340 -48 450 -97 q 180 89 231 1 q 129 293 129 177 z "},"}":{"ha":708,"x_min":83,"x_max":688,"o":"m 581 293 q 530 89 581 177 q 369 -48 479 1 q 83 -97 260 -97 l 83 161 q 166 188 142 161 q 196 249 191 214 q 201 311 201 284 q 221 403 201 357 q 277 483 241 448 q 364 532 313 518 q 277 581 313 546 q 221 662 241 616 q 201 755 201 709 q 196 818 201 783 q 166 879 191 853 q 83 904 142 904 l 83 1162 q 369 1113 260 1162 q 530 976 479 1064 q 581 772 581 888 q 610 683 581 719 q 688 644 639 646 l 688 421 q 610 382 639 418 q 581 293 581 347 z "},"[":{"ha":806,"x_min":83,"x_max":724,"o":"m 83 -25 l 83 1112 l 724 1112 l 724 918 l 505 918 l 505 160 l 724 160 l 724 -25 l 83 -25 z "},"]":{"ha":806,"x_min":83,"x_max":724,"o":"m 83 -25 l 83 160 l 301 160 l 301 918 l 83 918 l 83 1112 l 724 1112 l 724 -25 l 83 -25 z "},"‚":{"ha":549,"x_min":83,"x_max":496,"o":"m 83 -140 q 155 -119 130 -140 q 190 -70 180 -98 q 203 -21 201 -43 q 205 0 205 0 l 83 0 l 83 286 l 496 286 l 496 12 q 397 -229 496 -142 q 83 -315 299 -315 l 83 -140 z "},"„":{"ha":1075,"x_min":83,"x_max":1006,"o":"m 593 -140 q 664 -119 639 -140 q 700 -70 689 -98 q 713 -21 711 -43 q 715 0 715 0 l 593 0 l 593 286 l 1006 286 l 1006 12 q 907 -229 1006 -142 q 593 -315 808 -315 l 593 -140 m 83 -140 q 155 -119 130 -140 q 190 -70 180 -98 q 203 -21 201 -43 q 205 0 205 0 l 83 0 l 83 286 l 496 286 l 496 12 q 397 -229 496 -142 q 83 -315 299 -315 l 83 -140 z "},"“":{"ha":1076,"x_min":71,"x_max":993,"o":"m 484 909 q 412 888 437 909 q 376 840 387 867 q 363 791 366 812 q 361 770 361 770 l 484 770 l 484 484 l 71 484 l 71 757 q 169 998 71 911 q 484 1084 268 1084 l 484 909 m 993 909 q 922 888 947 909 q 886 840 897 867 q 873 791 876 812 q 871 770 871 770 l 993 770 l 993 484 l 581 484 l 581 757 q 679 998 581 911 q 993 1084 777 1084 l 993 909 z "},"”":{"ha":1075,"x_min":83,"x_max":1006,"o":"m 593 659 q 664 680 639 659 q 700 729 689 701 q 713 778 711 756 q 715 799 715 799 l 593 799 l 593 1084 l 1006 1084 l 1006 811 q 907 570 1006 657 q 593 484 808 484 l 593 659 m 83 659 q 155 680 130 659 q 190 729 180 701 q 203 778 201 756 q 205 799 205 799 l 83 799 l 83 1084 l 496 1084 l 496 811 q 397 570 496 657 q 83 484 299 484 l 83 659 z "},"‘":{"ha":550,"x_min":56,"x_max":468,"o":"m 468 909 q 397 888 422 909 q 361 840 372 867 q 348 791 351 812 q 346 770 346 770 l 468 770 l 468 484 l 56 484 l 56 757 q 154 998 56 911 q 468 1084 252 1084 l 468 909 z "},"’":{"ha":549,"x_min":83,"x_max":496,"o":"m 83 659 q 155 680 130 659 q 190 729 180 701 q 203 778 201 756 q 205 799 205 799 l 83 799 l 83 1084 l 496 1084 l 496 811 q 397 570 496 657 q 83 484 299 484 l 83 659 z "},"«":{"ha":1089,"x_min":18,"x_max":1007,"o":"m 1007 653 l 847 541 l 1007 418 l 1007 109 l 541 482 q 522 505 529 492 q 514 536 514 519 q 522 567 514 553 q 541 590 529 581 l 1007 981 l 1007 653 m 511 653 l 351 541 l 511 418 l 511 109 l 45 482 q 26 505 33 492 q 18 536 18 519 q 26 567 18 553 q 45 590 33 581 l 511 981 l 511 653 z "},"»":{"ha":1090,"x_min":83,"x_max":1072,"o":"m 83 436 l 243 549 l 83 671 l 83 981 l 550 607 q 569 584 562 598 q 576 553 576 570 q 550 498 576 520 l 83 109 l 83 436 m 579 436 l 739 549 l 579 671 l 579 981 l 1046 607 q 1065 584 1057 598 q 1072 553 1072 570 q 1046 498 1072 520 l 579 109 l 579 436 z "},"‹":{"ha":685,"x_min":0,"x_max":604,"o":"m 604 611 l 453 519 l 604 432 l 604 94 l 26 482 q 6 504 13 490 q 0 536 0 519 q 7 568 0 553 q 26 590 14 583 l 604 994 l 604 611 z "},"›":{"ha":688,"x_min":83,"x_max":688,"o":"m 83 478 l 235 570 l 83 657 l 83 994 l 661 607 q 688 553 688 593 q 661 498 688 517 l 83 94 l 83 478 z "},"\"":{"ha":893,"x_min":66,"x_max":823,"o":"m 768 572 l 543 572 l 473 1083 l 823 1083 l 768 572 m 361 572 l 136 572 l 66 1083 l 416 1083 l 361 572 z "},"'":{"ha":456,"x_min":50,"x_max":400,"o":"m 345 572 l 119 572 l 50 1083 l 400 1083 l 345 572 z "},"@":{"ha":1607,"x_min":52,"x_max":1565,"o":"m 1565 494 q 1519 312 1565 389 q 1398 194 1473 235 q 1236 153 1323 153 q 1084 186 1161 153 q 943 288 1008 219 q 828 181 901 220 q 679 142 756 142 q 533 183 600 142 q 425 304 466 224 q 385 504 385 385 q 424 696 385 616 q 527 819 463 776 q 668 861 592 861 q 808 827 740 861 q 916 730 876 792 l 993 836 l 1171 836 l 1171 403 q 1208 341 1171 364 q 1284 318 1245 318 q 1342 355 1317 318 q 1367 475 1367 392 q 1334 687 1367 586 q 1232 868 1301 789 q 1058 993 1164 947 q 808 1039 953 1039 q 566 993 670 1039 q 393 870 463 947 q 288 696 323 793 q 253 498 253 600 q 288 314 253 403 q 391 154 322 224 q 565 41 460 83 q 808 0 669 0 q 984 21 904 0 q 1131 79 1065 42 l 1190 -61 q 1006 -141 1103 -115 q 808 -167 909 -167 q 531 -126 666 -167 q 288 -2 396 -85 q 116 204 180 80 q 52 494 52 328 q 116 804 52 671 q 288 1026 180 937 q 531 1159 396 1114 q 808 1203 666 1203 q 1031 1175 922 1203 q 1238 1089 1141 1146 q 1408 948 1334 1033 q 1523 749 1481 863 q 1565 494 1565 636 m 722 361 q 809 391 765 361 q 879 457 854 420 l 879 624 q 811 609 849 624 q 739 568 774 594 q 682 506 705 541 q 660 431 660 471 q 672 383 660 405 q 722 361 685 361 z "},"&":{"ha":1520,"x_min":45,"x_max":1485,"o":"m 515 -25 q 347 -3 431 -25 q 195 63 264 18 q 86 177 127 108 q 45 340 45 245 q 74 489 45 427 q 147 593 103 551 q 238 659 191 634 q 323 698 286 684 q 374 718 360 711 q 330 865 330 801 q 363 975 330 928 q 450 1052 395 1021 q 571 1097 505 1082 q 705 1112 637 1112 q 821 1100 759 1112 q 938 1060 882 1088 q 1028 988 993 1033 q 1063 878 1063 943 q 1041 795 1063 833 q 987 728 1020 758 q 921 675 955 698 q 862 638 888 652 q 829 616 836 623 l 929 501 q 1061 620 995 549 q 1165 771 1128 690 l 1485 685 q 1453 576 1485 638 q 1374 452 1422 514 q 1272 339 1325 389 q 1173 264 1218 288 q 1265 185 1221 218 q 1361 131 1309 153 q 1483 94 1413 109 l 1483 0 l 916 0 l 852 69 q 695 -5 774 16 q 515 -25 616 -25 m 705 764 q 741 782 715 770 q 791 814 768 795 q 815 859 815 833 q 791 905 815 890 q 729 920 768 920 q 673 902 700 920 q 646 854 646 884 q 668 807 646 832 l 705 764 m 541 293 q 574 297 551 293 q 622 308 597 300 q 663 326 647 315 l 524 497 q 466 448 484 478 q 447 386 447 418 q 471 321 447 350 q 541 293 496 293 z "},"¶":{"ha":1187,"x_min":26,"x_max":1104,"o":"m 1104 0 l 886 0 l 886 876 l 808 876 l 808 0 l 586 0 l 586 307 q 529 306 555 307 q 479 304 503 304 q 245 362 347 304 q 84 523 142 420 q 26 757 26 625 q 65 915 26 840 q 179 1036 104 989 q 366 1083 255 1083 l 1104 1083 l 1104 0 z "},"§":{"ha":972,"x_min":39,"x_max":930,"o":"m 136 227 q 166 219 136 227 q 241 205 197 212 q 325 197 285 197 q 374 203 353 197 q 395 233 395 210 q 369 267 395 254 q 303 290 343 279 q 217 318 262 300 q 131 366 171 335 q 64 448 90 396 q 39 579 39 499 q 72 708 39 652 q 153 798 104 764 q 247 836 201 831 q 246 852 246 844 q 245 868 245 860 q 276 996 245 945 q 358 1076 307 1046 q 475 1119 410 1106 q 610 1132 541 1132 q 722 1125 666 1132 q 827 1108 777 1119 l 827 867 q 798 870 827 867 q 729 877 770 873 q 654 880 689 880 q 600 873 620 880 q 581 846 581 865 q 606 822 581 829 q 671 806 631 814 q 755 783 711 798 q 840 738 800 768 q 905 654 880 707 q 930 518 930 602 q 902 389 930 450 q 829 286 874 327 q 732 240 783 245 q 738 204 736 221 q 741 172 741 188 q 709 65 741 109 q 626 -5 678 21 q 510 -44 574 -32 q 382 -56 446 -56 q 244 -43 309 -56 q 136 -9 178 -31 l 136 227 m 382 525 q 405 516 382 525 q 465 495 429 507 q 540 474 500 484 q 611 465 579 465 q 646 472 632 465 q 660 500 660 479 q 645 537 660 519 q 596 567 629 556 q 570 578 594 569 q 512 597 546 587 q 442 616 477 608 q 382 624 407 624 q 318 579 318 624 q 339 545 318 555 q 382 525 361 534 z "},"©":{"ha":1617,"x_min":52,"x_max":1565,"o":"m 808 -192 q 531 -146 666 -192 q 288 -7 396 -100 q 116 223 180 85 q 52 546 52 361 q 116 869 52 730 q 288 1099 180 1007 q 531 1237 396 1191 q 808 1283 666 1283 q 1031 1254 922 1283 q 1238 1165 1141 1224 q 1408 1018 1334 1106 q 1523 811 1481 929 q 1565 546 1565 694 q 1523 280 1565 399 q 1408 74 1481 162 q 1238 -74 1334 -15 q 1031 -162 1141 -133 q 808 -192 922 -192 m 808 -66 q 1070 -18 958 -66 q 1257 114 1182 30 q 1369 310 1331 199 q 1406 546 1406 420 q 1369 782 1406 671 q 1257 978 1331 893 q 1070 1112 1182 1063 q 808 1160 958 1160 q 547 1112 659 1160 q 360 978 435 1063 q 248 782 286 893 q 211 546 211 671 q 248 310 211 420 q 360 114 286 199 q 547 -18 435 30 q 808 -66 659 -66 m 818 158 q 664 183 739 158 q 530 256 589 208 q 435 376 470 305 q 400 541 400 448 q 458 769 400 671 q 619 922 516 867 q 857 977 722 977 q 935 972 886 977 q 1022 953 983 968 l 1022 696 q 989 704 1006 702 q 957 707 972 707 q 868 683 909 707 q 803 621 827 660 q 779 533 779 581 q 852 429 779 429 q 888 434 867 429 q 944 458 909 439 q 1036 519 979 477 l 1036 199 q 818 158 934 158 z "},"®":{"ha":1617,"x_min":52,"x_max":1565,"o":"m 808 -192 q 531 -146 666 -192 q 288 -7 396 -100 q 116 223 180 85 q 52 546 52 361 q 116 869 52 730 q 288 1099 180 1007 q 531 1237 396 1191 q 808 1283 666 1283 q 1031 1254 922 1283 q 1238 1165 1141 1224 q 1408 1018 1334 1106 q 1523 811 1481 929 q 1565 546 1565 694 q 1523 280 1565 399 q 1408 74 1481 162 q 1238 -74 1334 -15 q 1031 -162 1141 -133 q 808 -192 922 -192 m 808 -66 q 1070 -18 958 -66 q 1257 114 1182 30 q 1369 310 1331 199 q 1406 546 1406 420 q 1369 782 1406 671 q 1257 978 1331 893 q 1070 1112 1182 1063 q 808 1160 958 1160 q 547 1112 659 1160 q 360 978 435 1063 q 248 782 286 893 q 211 546 211 671 q 248 310 211 420 q 360 114 286 199 q 547 -18 435 30 q 808 -66 659 -66 m 429 191 l 429 953 l 846 953 q 1034 914 956 953 q 1153 814 1112 876 q 1194 684 1194 752 q 1152 552 1194 608 q 1044 461 1110 497 l 1251 191 l 873 191 l 753 390 l 741 390 l 741 191 l 429 191 m 739 539 l 799 572 q 846 603 823 589 q 885 636 869 616 q 900 688 900 656 q 888 733 900 713 q 850 753 876 753 q 804 742 830 753 q 759 721 778 731 q 739 710 739 710 l 739 539 z "},"™":{"ha":1830,"x_min":33,"x_max":1789,"o":"m 33 1084 l 757 1084 l 757 838 l 545 838 l 545 318 l 244 318 l 244 838 l 33 838 l 33 1084 m 822 1084 l 929 1084 l 1301 737 l 1683 1084 l 1789 1084 l 1789 318 l 1474 318 l 1474 566 l 1276 353 l 1086 561 l 1086 318 l 822 318 l 822 1084 z "},"°":{"ha":545,"x_min":53,"x_max":493,"o":"m 273 682 q 168 706 218 682 q 85 779 117 730 q 53 899 53 827 q 85 1018 53 970 q 167 1088 117 1065 q 272 1112 218 1112 q 378 1088 327 1112 q 461 1017 429 1065 q 493 899 493 970 q 461 779 493 827 q 379 706 429 730 q 273 682 328 682 m 275 806 q 347 834 323 806 q 371 897 371 863 q 346 961 371 932 q 272 990 321 990 q 200 962 224 990 q 176 900 176 934 q 201 835 176 865 q 275 806 226 806 z "},"|":{"ha":553,"x_min":65,"x_max":492,"o":"m 439 -139 l 110 -139 l 65 1222 l 492 1222 l 439 -139 z "},"¦":{"ha":543,"x_min":66,"x_max":479,"o":"m 86 623 l 106 1222 l 435 1222 l 458 623 l 86 623 m 66 -139 l 86 461 l 456 461 l 479 -139 l 66 -139 z "},"¢":{"ha":791,"x_min":20,"x_max":736,"o":"m 428 -21 q 227 41 319 -9 q 77 181 134 92 q 20 396 20 271 q 76 633 20 530 q 235 799 133 736 q 472 873 337 861 l 478 985 l 582 985 l 575 875 q 649 865 608 872 q 722 847 689 859 l 722 562 q 659 571 692 571 q 559 550 606 571 q 483 487 512 528 q 453 386 453 446 q 472 302 453 332 q 528 272 492 272 q 564 278 542 272 q 626 307 585 283 q 736 380 666 330 l 736 22 q 637 -7 688 5 q 532 -24 586 -20 l 525 -139 l 422 -139 l 428 -21 z "},"¤":{"ha":1099,"x_min":61,"x_max":1036,"o":"m 549 187 q 411 201 474 187 q 296 241 347 216 l 212 147 l 125 214 l 203 302 q 97 447 132 364 q 61 615 61 529 q 97 784 61 702 q 203 928 132 866 l 125 1018 l 212 1084 l 296 989 q 411 1028 348 1014 q 549 1043 474 1043 q 689 1028 625 1043 q 806 986 753 1013 l 893 1084 l 981 1018 l 897 925 q 1002 782 967 863 q 1036 615 1036 701 q 1002 448 1036 530 q 899 306 967 367 l 981 214 l 893 147 l 807 244 q 689 202 753 217 q 549 187 625 187 m 549 431 q 640 452 597 431 q 709 515 682 473 q 736 621 736 557 q 709 723 736 682 q 639 784 682 764 q 549 804 596 804 q 459 784 502 804 q 388 723 416 764 q 361 621 361 682 q 388 515 361 557 q 458 452 415 473 q 549 431 501 431 z "},"$":{"ha":937,"x_min":46,"x_max":900,"o":"m 521 1112 q 662 1104 595 1112 q 775 1087 728 1096 q 833 1075 821 1078 l 833 755 q 805 761 833 755 q 735 775 777 767 q 647 788 692 783 q 568 794 602 794 q 521 784 537 794 q 505 758 505 773 q 519 733 505 746 q 575 705 534 721 q 703 652 644 679 q 807 585 762 625 q 876 485 851 546 q 900 329 900 423 q 846 135 900 213 q 693 16 791 56 q 463 -25 595 -24 l 457 -139 l 353 -139 l 358 -22 q 168 1 235 -16 q 75 34 101 18 q 49 49 49 49 l 49 370 q 80 359 53 369 q 148 337 108 349 q 230 315 187 324 q 307 306 273 306 q 356 315 337 306 q 375 347 375 323 q 351 390 375 373 q 290 425 328 408 q 211 466 252 442 q 131 527 169 490 q 70 621 94 564 q 46 764 46 678 q 97 944 46 873 q 233 1055 149 1016 q 416 1107 317 1095 l 422 1222 l 526 1222 l 521 1112 z "},"€":{"ha":1128,"x_min":22,"x_max":1053,"o":"m 22 701 l 163 701 q 290 931 201 834 q 508 1081 379 1028 q 796 1135 637 1135 q 865 1132 823 1135 q 951 1122 906 1129 q 1032 1101 996 1115 l 1032 814 q 984 825 1008 821 q 937 829 960 829 q 795 794 861 829 q 688 701 728 760 l 962 701 l 962 611 l 647 611 q 642 580 644 595 q 640 549 640 564 l 640 526 l 962 526 l 962 436 l 657 436 q 731 337 680 370 q 850 304 782 304 q 1053 363 942 304 l 1053 12 q 902 -31 981 -16 q 741 -46 823 -46 q 531 -15 633 -46 q 346 77 429 16 q 208 228 262 138 q 140 436 153 318 l 22 436 l 22 526 l 136 526 q 139 569 138 548 q 143 611 140 590 l 22 611 l 22 701 z "},"£":{"ha":1325,"x_min":40,"x_max":1261,"o":"m 1261 47 q 1100 -10 1176 5 q 953 -25 1025 -25 q 775 -9 863 -25 q 593 22 688 6 q 390 37 499 37 q 258 24 326 37 q 121 -25 191 11 l 40 89 q 119 157 79 115 q 186 255 159 199 q 214 378 214 311 l 214 440 l 47 440 l 47 656 l 225 656 l 228 676 q 324 930 247 835 q 524 1069 401 1026 q 800 1112 647 1112 q 901 1106 844 1112 q 1018 1083 959 1099 q 1127 1037 1077 1067 q 1209 961 1178 1007 q 1240 847 1240 914 l 924 737 q 874 798 910 777 q 796 818 838 818 q 686 777 730 818 q 642 656 642 736 l 975 656 l 975 440 l 624 440 q 605 343 619 385 q 591 301 591 301 q 676 317 632 310 q 762 323 721 323 q 882 310 823 323 q 1002 297 941 297 q 1088 304 1042 297 q 1175 322 1135 311 q 1236 343 1215 333 l 1261 47 z "},"¥":{"ha":1179,"x_min":36,"x_max":1143,"o":"m 121 632 l 256 632 l 36 1083 l 519 1083 l 628 861 l 739 1083 l 1143 1083 l 920 632 l 1061 632 l 1061 507 l 857 507 l 819 431 l 1061 431 l 1061 306 l 806 306 l 806 0 l 367 0 l 367 306 l 121 306 l 121 431 l 353 431 l 315 507 l 121 507 l 121 632 z "},"+":{"ha":737,"x_min":22,"x_max":715,"o":"m 244 653 l 244 875 l 494 875 l 494 653 l 715 653 l 715 403 l 494 403 l 494 182 l 244 182 l 244 403 l 22 403 l 22 653 l 244 653 z "},"−":{"ha":737,"x_min":90,"x_max":648,"o":"m 90 403 l 90 653 l 648 653 l 648 403 l 90 403 z "},"×":{"ha":737,"x_min":16,"x_max":722,"o":"m 192 530 l 16 706 l 192 882 l 370 706 l 545 882 l 722 705 l 546 530 l 722 353 l 545 177 l 370 352 l 192 176 l 16 352 l 192 530 z "},"÷":{"ha":737,"x_min":43,"x_max":695,"o":"m 383 960 q 484 919 450 960 q 519 826 519 877 q 500 752 519 788 q 446 694 482 717 q 354 671 410 671 q 251 711 283 671 q 218 804 218 751 q 238 877 218 841 q 295 937 258 913 q 383 960 332 960 m 43 453 l 43 622 l 695 622 l 695 453 l 43 453 m 383 404 q 484 363 450 404 q 519 270 519 321 q 500 196 519 232 q 446 137 482 160 q 354 114 410 114 q 251 155 283 114 q 218 248 218 196 q 238 320 218 284 q 295 380 258 357 q 383 404 332 404 z "},"=":{"ha":737,"x_min":59,"x_max":678,"o":"m 59 835 l 678 835 l 678 633 l 59 633 l 59 835 m 59 456 l 678 456 l 678 254 l 59 254 l 59 456 z "},">":{"ha":737,"x_min":66,"x_max":671,"o":"m 66 478 l 218 570 l 66 657 l 66 994 l 644 607 q 671 553 671 593 q 644 498 671 517 l 66 94 l 66 478 z "},"<":{"ha":737,"x_min":66,"x_max":671,"o":"m 671 611 l 519 519 l 671 432 l 671 94 l 93 482 q 73 504 79 490 q 66 536 66 519 q 73 568 66 553 q 93 590 80 583 l 671 994 l 671 611 z "},"±":{"ha":737,"x_min":92,"x_max":646,"o":"m 270 739 l 270 916 l 469 916 l 469 739 l 646 739 l 646 538 l 469 538 l 469 362 l 270 362 l 270 538 l 92 538 l 92 739 l 270 739 m 121 277 l 615 277 l 615 115 l 121 115 l 121 277 z "},"¬":{"ha":737,"x_min":64,"x_max":673,"o":"m 64 638 l 673 638 l 673 227 l 445 227 l 445 399 l 64 399 l 64 638 z "},"~":{"ha":745,"x_min":53,"x_max":686,"o":"m 161 968 q 117 958 136 968 q 85 938 98 948 q 65 928 73 928 q 53 939 53 928 q 75 1081 53 1031 q 135 1152 97 1132 q 221 1173 173 1173 q 342 1155 278 1173 q 469 1119 407 1137 q 578 1101 530 1101 q 623 1112 604 1101 q 654 1133 642 1122 q 675 1143 667 1143 q 686 1132 686 1143 q 665 988 686 1040 q 608 917 644 937 q 526 896 572 896 q 408 914 471 896 q 280 950 344 932 q 161 968 216 968 z "},"^":{"ha":555,"x_min":32,"x_max":524,"o":"m 182 1276 q 224 1321 196 1305 q 279 1337 252 1337 q 332 1323 305 1337 q 375 1276 359 1308 l 514 993 q 522 969 519 980 q 524 950 524 958 q 504 926 524 926 q 432 966 475 926 l 278 1107 l 125 966 q 53 926 81 926 q 32 950 32 926 q 34 969 32 958 q 43 993 37 980 l 182 1276 z "},"µ":{"ha":1118,"x_min":83,"x_max":1065,"o":"m 83 843 l 489 843 l 489 297 q 511 240 489 261 q 562 218 533 218 q 620 242 592 218 q 663 317 648 265 l 663 843 l 1065 843 l 1065 0 l 843 0 l 746 132 q 675 31 720 61 q 575 0 629 0 q 534 4 555 0 q 489 18 512 9 l 489 -158 l 83 -158 l 83 843 z "},"%":{"ha":2252,"x_min":40,"x_max":2208,"o":"m 458 301 q 275 335 354 301 q 144 428 197 370 q 66 558 92 486 q 40 707 40 631 q 66 855 40 783 q 144 985 92 927 q 275 1078 197 1044 q 458 1112 354 1112 q 641 1078 562 1112 q 771 985 719 1044 q 850 855 824 927 q 876 707 876 783 q 850 558 876 631 q 771 428 824 486 q 641 335 719 370 q 458 301 562 301 m 790 0 l 1165 1083 l 1567 1083 l 970 0 l 790 0 m 458 539 q 528 564 500 539 q 569 626 555 588 q 583 705 583 664 q 569 786 583 747 q 528 850 555 825 q 458 875 500 875 q 388 850 416 875 q 346 788 359 826 q 332 708 332 750 q 346 627 332 666 q 389 564 360 589 q 458 539 417 539 m 1790 -25 q 1607 9 1686 -25 q 1476 102 1529 43 q 1398 232 1424 160 q 1372 380 1372 304 q 1398 529 1372 456 q 1476 659 1424 601 q 1607 752 1529 718 q 1790 786 1686 786 q 1972 752 1894 786 q 2103 659 2051 718 q 2182 529 2156 601 q 2208 380 2208 456 q 2182 232 2208 304 q 2103 102 2156 160 q 1972 9 2051 43 q 1790 -25 1894 -25 m 1790 212 q 1860 237 1832 212 q 1901 299 1887 261 q 1915 379 1915 338 q 1901 460 1915 421 q 1860 524 1887 498 q 1790 549 1832 549 q 1720 524 1748 549 q 1678 462 1692 500 q 1664 382 1664 424 q 1678 301 1664 340 q 1721 237 1693 262 q 1790 212 1749 212 z "},"̈":{"ha":0,"x_min":69,"x_max":806,"o":"m 244 871 q 356 831 317 871 q 395 734 395 791 q 377 656 395 694 q 321 595 359 618 q 224 571 283 571 q 108 612 146 571 q 69 711 69 654 q 90 787 69 751 q 149 847 110 824 q 244 871 189 871 m 654 871 q 767 831 728 871 q 806 734 806 791 q 788 656 806 694 q 733 595 770 618 q 636 571 696 571 q 520 612 560 571 q 481 711 481 654 q 501 787 481 751 q 560 847 522 824 q 654 871 599 871 z "},"̇":{"ha":0,"x_min":29,"x_max":441,"o":"m 256 1028 q 359 1001 317 1028 q 421 932 400 975 q 441 843 441 890 q 416 742 441 791 q 341 661 391 693 q 215 629 291 629 q 110 655 151 629 q 49 723 68 681 q 29 812 29 765 q 56 913 29 863 q 134 996 83 963 q 256 1028 185 1028 z "},"̀":{"ha":0,"x_min":22,"x_max":401,"o":"m 298 1001 l 396 663 q 401 626 401 644 q 376 589 401 589 q 314 636 352 589 l 22 1001 l 298 1001 z "},"́":{"ha":0,"x_min":22,"x_max":401,"o":"m 401 1002 l 110 637 q 47 589 72 589 q 22 627 22 589 q 28 663 22 644 l 125 1002 l 401 1002 z "},"̋":{"ha":0,"x_min":98,"x_max":782,"o":"m 404 1007 l 182 642 q 126 595 153 595 q 107 608 115 595 q 98 650 98 622 q 98 659 98 654 q 99 668 98 663 l 127 1007 l 404 1007 m 782 1007 l 490 642 q 425 597 455 597 q 403 631 403 597 q 408 668 403 648 l 492 1007 l 782 1007 z "},"̂":{"ha":0,"x_min":32,"x_max":524,"o":"m 182 964 q 223 1009 196 994 q 279 1025 251 1025 q 333 1010 307 1025 q 375 964 359 996 l 514 681 q 522 656 521 667 q 524 637 524 646 q 504 614 524 614 q 432 654 476 614 l 278 794 l 125 654 q 53 614 80 614 q 32 637 32 614 q 34 656 32 646 q 43 681 37 667 l 182 964 z "},"̌":{"ha":0,"x_min":21,"x_max":513,"o":"m 32 954 q 21 997 21 980 q 41 1021 21 1021 q 114 981 70 1021 l 267 840 l 421 981 q 493 1021 465 1021 q 513 997 513 1021 q 511 978 513 989 q 503 954 509 968 l 364 671 q 322 625 349 640 q 268 610 296 610 q 213 626 241 610 q 171 671 185 642 l 32 954 z "},"̆":{"ha":0,"x_min":28,"x_max":864,"o":"m 864 994 q 838 839 864 913 q 759 707 812 765 q 628 614 707 648 q 446 580 550 580 q 263 614 341 580 q 132 708 184 649 q 54 843 80 768 q 28 998 28 918 l 319 998 q 352 872 319 926 q 446 817 384 817 q 539 870 508 817 q 571 994 571 924 l 864 994 z "},"̊":{"ha":0,"x_min":29,"x_max":469,"o":"m 250 591 q 144 615 195 591 q 61 688 94 640 q 29 808 29 736 q 61 927 29 880 q 144 998 94 975 q 249 1022 194 1022 q 354 998 304 1022 q 437 927 405 975 q 469 808 469 880 q 437 688 469 736 q 355 615 406 640 q 250 591 305 591 m 252 715 q 323 744 300 715 q 347 807 347 772 q 322 870 347 841 q 249 900 298 900 q 177 872 201 900 q 153 810 153 844 q 177 745 153 774 q 252 715 202 715 z "},"̃":{"ha":0,"x_min":98,"x_max":732,"o":"m 207 671 q 163 661 182 671 q 131 641 144 651 q 111 631 118 631 q 98 642 98 631 q 120 784 98 734 q 181 855 142 835 q 267 875 219 875 q 388 857 323 875 q 514 822 452 840 q 624 804 576 804 q 668 815 650 804 q 700 836 687 825 q 721 846 713 846 q 732 835 732 846 q 711 691 732 743 q 654 619 690 640 q 572 599 618 599 q 454 617 517 599 q 326 653 390 635 q 207 671 262 671 z "},"̄":{"ha":0,"x_min":83,"x_max":703,"o":"m 83 843 l 703 843 l 703 642 l 83 642 l 83 843 z "},"̑":{"ha":0,"x_min":71,"x_max":823,"o":"m 572 628 q 558 697 572 664 q 517 752 545 731 q 447 774 489 774 q 353 729 385 774 q 321 628 321 684 l 71 628 q 113 800 71 718 q 238 932 155 881 q 447 983 322 983 q 655 932 572 983 q 781 799 739 880 q 823 628 823 718 l 572 628 z "},"̦":{"ha":0,"x_min":36,"x_max":449,"o":"m 36 -518 q 107 -497 82 -518 q 143 -450 132 -477 q 156 -401 153 -422 q 158 -378 158 -380 l 36 -378 l 36 -92 l 449 -92 l 449 -366 q 350 -606 449 -519 q 36 -693 252 -693 l 36 -518 z "},"̧":{"ha":0,"x_min":14,"x_max":446,"o":"m 40 -370 q 14 -328 14 -348 q 26 -299 14 -311 q 54 -286 39 -286 q 81 -297 60 -286 q 134 -318 102 -307 q 200 -329 165 -329 q 240 -319 219 -329 q 261 -285 261 -310 q 224 -238 261 -254 q 142 -222 186 -222 q 148 -198 142 -221 q 164 -143 155 -176 q 183 -77 174 -110 q 199 -22 193 -44 q 205 0 205 0 l 298 0 l 257 -129 l 272 -129 q 323 -134 294 -129 q 380 -154 352 -139 q 427 -198 408 -169 q 446 -273 446 -227 q 417 -362 446 -328 q 343 -412 389 -396 q 245 -428 297 -428 q 134 -412 190 -428 q 40 -370 79 -395 z "},"̨":{"ha":0,"x_min":26,"x_max":458,"o":"m 432 -368 q 338 -410 393 -394 q 227 -427 283 -427 q 129 -411 175 -427 q 55 -360 83 -395 q 26 -272 26 -326 q 45 -191 26 -231 q 93 -117 64 -151 q 149 -56 121 -82 q 196 -15 177 -30 q 215 0 215 0 l 309 0 q 294 -27 309 0 q 260 -95 279 -54 q 226 -182 241 -137 q 211 -262 211 -227 q 225 -310 211 -292 q 272 -328 239 -328 q 339 -317 308 -328 q 391 -295 370 -306 q 418 -285 412 -285 q 446 -297 433 -285 q 458 -326 458 -310 q 432 -368 458 -348 z "},"¨":{"ha":875,"x_min":69,"x_max":806,"o":"m 244 871 q 356 831 317 871 q 395 734 395 791 q 377 656 395 694 q 321 595 359 618 q 224 571 283 571 q 108 612 146 571 q 69 711 69 654 q 90 787 69 751 q 149 847 110 824 q 244 871 189 871 m 654 871 q 767 831 728 871 q 806 734 806 791 q 788 656 806 694 q 733 595 770 618 q 636 571 696 571 q 520 612 560 571 q 481 711 481 654 q 501 787 481 751 q 560 847 522 824 q 654 871 599 871 z "},"˙":{"ha":471,"x_min":29,"x_max":441,"o":"m 256 1028 q 359 1001 317 1028 q 421 932 400 975 q 441 843 441 890 q 416 742 441 791 q 341 661 391 693 q 215 629 291 629 q 110 655 151 629 q 49 723 68 681 q 29 812 29 765 q 56 913 29 863 q 134 996 83 963 q 256 1028 185 1028 z "},"`":{"ha":424,"x_min":22,"x_max":401,"o":"m 298 1001 l 396 663 q 401 626 401 644 q 376 589 401 589 q 314 636 352 589 l 22 1001 l 298 1001 z "},"´":{"ha":424,"x_min":22,"x_max":401,"o":"m 401 1002 l 110 637 q 47 589 72 589 q 22 627 22 589 q 28 663 22 644 l 125 1002 l 401 1002 z "},"˝":{"ha":864,"x_min":98,"x_max":782,"o":"m 404 1007 l 182 642 q 126 595 153 595 q 107 608 115 595 q 98 650 98 622 q 98 659 98 654 q 99 668 98 663 l 127 1007 l 404 1007 m 782 1007 l 490 642 q 425 597 455 597 q 403 631 403 597 q 408 668 403 648 l 492 1007 l 782 1007 z "},"ˆ":{"ha":555,"x_min":32,"x_max":524,"o":"m 182 964 q 223 1009 196 994 q 279 1025 251 1025 q 333 1010 307 1025 q 375 964 359 996 l 514 681 q 522 656 521 667 q 524 637 524 646 q 504 614 524 614 q 432 654 476 614 l 278 794 l 125 654 q 53 614 80 614 q 32 637 32 614 q 34 656 32 646 q 43 681 37 667 l 182 964 z "},"ˇ":{"ha":533,"x_min":21,"x_max":513,"o":"m 32 954 q 21 997 21 980 q 41 1021 21 1021 q 114 981 70 1021 l 267 840 l 421 981 q 493 1021 465 1021 q 513 997 513 1021 q 511 978 513 989 q 503 954 509 968 l 364 671 q 322 625 349 640 q 268 610 296 610 q 213 626 241 610 q 171 671 185 642 l 32 954 z "},"˘":{"ha":893,"x_min":28,"x_max":864,"o":"m 864 994 q 838 839 864 913 q 759 707 812 765 q 628 614 707 648 q 446 580 550 580 q 263 614 341 580 q 132 708 184 649 q 54 843 80 768 q 28 998 28 918 l 319 998 q 352 872 319 926 q 446 817 384 817 q 539 870 508 817 q 571 994 571 924 l 864 994 z "},"˚":{"ha":498,"x_min":29,"x_max":469,"o":"m 250 591 q 144 615 195 591 q 61 688 94 640 q 29 808 29 736 q 61 927 29 880 q 144 998 94 975 q 249 1022 194 1022 q 354 998 304 1022 q 437 927 405 975 q 469 808 469 880 q 437 688 469 736 q 355 615 406 640 q 250 591 305 591 m 252 715 q 323 744 300 715 q 347 807 347 772 q 322 870 347 841 q 249 900 298 900 q 177 872 201 900 q 153 810 153 844 q 177 745 153 774 q 252 715 202 715 z "},"˜":{"ha":745,"x_min":98,"x_max":732,"o":"m 207 671 q 163 661 182 671 q 131 641 144 651 q 111 631 118 631 q 98 642 98 631 q 120 784 98 734 q 181 855 142 835 q 267 875 219 875 q 388 857 323 875 q 514 822 452 840 q 624 804 576 804 q 668 815 650 804 q 700 836 687 825 q 721 846 713 846 q 732 835 732 846 q 711 691 732 743 q 654 619 690 640 q 572 599 618 599 q 454 617 517 599 q 326 653 390 635 q 207 671 262 671 z "},"¯":{"ha":785,"x_min":83,"x_max":703,"o":"m 83 843 l 703 843 l 703 642 l 83 642 l 83 843 z "},"¸":{"ha":481,"x_min":14,"x_max":446,"o":"m 40 -370 q 14 -328 14 -348 q 26 -299 14 -311 q 54 -286 39 -286 q 81 -297 60 -286 q 134 -318 102 -307 q 200 -329 165 -329 q 240 -319 219 -329 q 261 -285 261 -310 q 224 -238 261 -254 q 142 -222 186 -222 q 148 -198 142 -221 q 164 -143 155 -176 q 183 -77 174 -110 q 199 -22 193 -44 q 205 0 205 0 l 298 0 l 257 -129 l 272 -129 q 323 -134 294 -129 q 380 -154 352 -139 q 427 -198 408 -169 q 446 -273 446 -227 q 417 -362 446 -328 q 343 -412 389 -396 q 245 -428 297 -428 q 134 -412 190 -428 q 40 -370 79 -395 z "},"˛":{"ha":472,"x_min":26,"x_max":458,"o":"m 432 -368 q 338 -410 393 -394 q 227 -427 283 -427 q 129 -411 175 -427 q 55 -360 83 -395 q 26 -272 26 -326 q 45 -191 26 -231 q 93 -117 64 -151 q 149 -56 121 -82 q 196 -15 177 -30 q 215 0 215 0 l 309 0 q 294 -27 309 0 q 260 -95 279 -54 q 226 -182 241 -137 q 211 -262 211 -227 q 225 -310 211 -292 q 272 -328 239 -328 q 339 -317 308 -328 q 391 -295 370 -306 q 418 -285 412 -285 q 446 -297 433 -285 q 458 -326 458 -310 q 432 -368 458 -348 z "}}}
